SplineFontDB: 3.2
FontName: CursiveSans-Bold
FullName: Cursive Sans Bold
FamilyName: Cursive Sans
Weight: Bold
Copyright: Copyright (c) 2020-2024 by Wojciech Kalinowski "wmk69" with Reserved Font Name "CursiveSans-Bold".\nThis Font Software is licensed under the SIL Open Font License, Version 1.1.
Version: 3.1.0; 2022-02-18
ItalicAngle: -15
UnderlinePosition: -80
UnderlineWidth: 320
Ascent: 1638
Descent: 410
InvalidEm: 0
LayerCount: 2
Layer: 0 1 "Warstwa t+AUIA-a" 1
Layer: 1 1 "Plan pierwszy" 0
XUID: [1021 783 23647091 14658235]
StyleMap: 0x0021
FSType: 0
OS2Version: 3
OS2_WeightWidthSlopeOnly: 0
OS2_UseTypoMetrics: 1
CreationTime: 1260698820
ModificationTime: 1645208855
PfmFamily: 33
TTFWeight: 700
TTFWidth: 5
LineGap: 300
VLineGap: 0
Panose: 2 11 8 3 6 3 8 13 5 4
OS2TypoAscent: 1950
OS2TypoAOffset: 0
OS2TypoDescent: -537
OS2TypoDOffset: 0
OS2TypoLinegap: 300
OS2WinAscent: 1950
OS2WinAOffset: 0
OS2WinDescent: 537
OS2WinDOffset: 0
HheadAscent: 1950
HheadAOffset: 0
HheadDescent: -537
HheadDOffset: 0
OS2SubXSize: 1434
OS2SubYSize: 1331
OS2SubXOff: 0
OS2SubYOff: 287
OS2SupXSize: 1434
OS2SupYSize: 1331
OS2SupXOff: 0
OS2SupYOff: 977
OS2StrikeYSize: 102
OS2StrikeYPos: 512
OS2CapHeight: 1530
OS2XHeight: 1120
OS2Vendor: '    '
OS2CodePages: 20000093.00000000
OS2UnicodeRanges: 8000002f.4000204b.00000000.00000000
Lookup: 258 0 0 "'kern' Horizontal Kerning lookup 0" { "'kern' Horizontal Kerning lookup 0-1 subtable" [307,0,4] } ['kern' ('DFLT' <'dflt' > 'grek' <'dflt' > 'latn' <'dflt' > ) ]
MarkAttachClasses: 1
DEI: 91125
KernClass2: 79 63 "'kern' Horizontal Kerning lookup 0-1 subtable"
 84 A Agrave Aacute Acircumflex Atilde Adieresis Aring Amacron Abreve Aogonek Aringacute
 17 B uni1E02 uni1E9E
 47 C Ccedilla Cacute Ccircumflex Cdotaccent Ccaron
 27 D Eth Dcaron Dcroat uni1E0A
 92 E AE Egrave Eacute Ecircumflex Edieresis Emacron Ebreve Edotaccent Eogonek Ecaron OE AEacute
 9 F uni1E1E
 44 G Gcircumflex Gbreve Gdotaccent Gcommaaccent
 18 H Hcircumflex Hbar

StartChar: .notdef
Encoding: 65536 -1 0
Width: 1014
Flags: W
HStem: 0 118<320 758> 1392 118<661 1099>
VStem: 100 814<0 814> 505 814<696 1510>
DStem2: 100 0 288.382 0 0.258819 0.965926<170.919 1489.77> 726.382 0 914 0 0.258819 0.965926<122.163 1441.01>
LayerCount: 2
Fore
SplineSet
100 0 m 1,0,-1
 505 1510 l 1,1,-1
 1319 1510 l 1,2,-1
 914 0 l 1,3,-1
 100 0 l 1,0,-1
320 118 m 1,4,-1
 758 118 l 1,5,-1
 1099 1392 l 1,6,-1
 661 1392 l 1,7,-1
 320 118 l 1,4,-1
EndSplineSet
Validated: 1
EndChar

StartChar: exclam
Encoding: 33 33 4
Width: 665
GlyphClass: 2
Flags: W
HStem: -20 370<258.14 495.86> 1510 20G<654 731.5>
VStem: 195 364<42.5779 287.422> 510 358<1237.35 1468.36>
LayerCount: 2
Fore
SplineSet
693 1530 m 0,0,1
 770 1530 770 1530 822 1476 c 0,2,3
 868 1428 868 1428 868 1357 c 0,4,5
 868 1318 868 1318 848 1269 c 2,6,-1
 507 429 l 2,7,8
 495 400 495 400 462 400 c 2,9,-1
 418 400 l 2,10,11
 388 400 388 400 388 416 c 0,12,13
 388 421 388 421 389 429 c 2,14,-1
 510 1346 l 2,15,16
 522 1437 522 1437 567 1482 c 0,17,18
 615 1530 615 1530 693 1530 c 0,0,1
377 -20 m 128,-1,20
 301 -20 301 -20 248 34 c 128,-1,21
 195 88 195 88 195 165 c 128,-1,22
 195 242 195 242 248 296 c 128,-1,23
 301 350 301 350 377 350 c 128,-1,24
 453 350 453 350 506 296 c 128,-1,25
 559 242 559 242 559 165 c 128,-1,26
 559 88 559 88 506 34 c 128,-1,19
 453 -20 453 -20 377 -20 c 128,-1,20
EndSplineSet
Validated: 1
EndChar

StartChar: quotedbl
Encoding: 34 34 5
Width: 741
GlyphClass: 2
Flags: W
HStem: 1125 425<503 606.024 842 945.024>
VStem: 503 229<1291.24 1548.15> 842 229<1291.24 1548.15>
LayerCount: 2
Fore
SplineSet
804 1550 m 1,0,1
 1050 1550 l 1,2,3
 1071 1503 1071 1503 1071 1451 c 0,4,5
 1071 1416 1071 1416 1061 1379 c 0,6,7
 1027 1251 1027 1251 906 1125 c 1,8,-1
 720 1125 l 1,9,10
 801 1234 801 1234 831 1343 c 0,11,12
 842 1384 842 1384 842 1421 c 0,13,14
 842 1491 842 1491 804 1550 c 1,0,1
465 1550 m 1,15,-1
 711 1550 l 1,16,17
 732 1503 732 1503 732 1451 c 0,18,19
 732 1416 732 1416 722 1379 c 0,20,21
 688 1251 688 1251 567 1125 c 1,22,-1
 381 1125 l 1,23,24
 462 1234 462 1234 492 1343 c 0,25,26
 503 1384 503 1384 503 1421 c 0,27,28
 503 1491 503 1491 465 1550 c 1,15,-1
EndSplineSet
Validated: 1
EndChar

StartChar: numbersign
Encoding: 35 35 6
Width: 1374
GlyphClass: 2
Flags: W
HStem: 503 160<316.002 571 774 913 1116 1370.14> 844 160<407.002 662 865 1004 1207 1461.14>
DStem2: 493.674 216 653.674 216 0.258819 0.965926<29.7017 297.234 504.322 650.167 857.256 1123.93> 835.674 216 995.674 216 0.258819 0.965926<29.7017 297.234 504.322 650.167 857.256 1123.59>
LayerCount: 2
Fore
SplineSet
828 1290 m 2,0,-1
 898 1290 l 2,1,2
 933 1290 933 1290 933 1263 c 0,3,4
 933 1256 933 1256 930 1246 c 2,5,-1
 865 1004 l 1,6,-1
 1047 1004 l 1,7,-1
 1112 1246 l 2,8,9
 1124 1290 1124 1290 1168 1290 c 2,10,-1
 1238 1290 l 2,11,12
 1274 1290 1274 1290 1274 1262 c 0,13,14
 1274 1255 1274 1255 1272 1246 c 2,15,-1
 1207 1004 l 1,16,-1
 1448 1004 l 2,17,18
 1484 1004 1484 1004 1484 976 c 0,19,20
 1484 969 1484 969 1481 959 c 2,21,-1
 1462 889 l 2,22,23
 1450 844 1450 844 1405 844 c 2,24,-1
 1164 844 l 1,25,-1
 1116 663 l 1,26,-1
 1357 663 l 2,27,28
 1393 663 1393 663 1393 635 c 0,29,30
 1393 628 1393 628 1390 618 c 2,31,-1
 1371 548 l 2,32,33
 1359 503 1359 503 1314 503 c 2,34,-1
 1073 503 l 1,35,-1
 1008 262 l 2,36,37
 996 216 996 216 950 216 c 2,38,-1
 880 216 l 2,39,40
 845 216 845 216 845 244 c 0,41,42
 845 252 845 252 848 262 c 2,43,-1
 913 503 l 1,44,-1
 731 503 l 1,45,-1
 666 262 l 2,46,47
 654 216 654 216 610 216 c 2,48,-1
 538 216 l 2,49,50
 503 216 503 216 503 244 c 0,51,52
 503 252 503 252 506 262 c 2,53,-1
 571 503 l 1,54,-1
 330 503 l 2,55,56
 294 503 294 503 294 531 c 0,57,58
 294 538 294 538 297 548 c 2,59,-1
 316 619 l 2,60,61
 328 663 328 663 373 663 c 2,62,-1
 614 663 l 1,63,-1
 662 844 l 1,64,-1
 421 844 l 2,65,66
 385 844 385 844 385 872 c 0,67,68
 385 879 385 879 388 889 c 2,69,-1
 407 960 l 2,70,71
 419 1004 419 1004 464 1004 c 2,72,-1
 705 1004 l 1,73,-1
 770 1246 l 2,74,75
 782 1290 782 1290 828 1290 c 2,0,-1
774 663 m 1,76,-1
 956 663 l 1,77,-1
 1004 844 l 1,78,-1
 822 844 l 1,79,-1
 774 663 l 1,76,-1
EndSplineSet
Validated: 1
EndChar

StartChar: dollar
Encoding: 36 36 7
Width: 1283
GlyphClass: 2
Flags: W
HStem: -19 105<374.416 555> 172 369<315.034 453.821>
VStem: 146 375<238.372 468.859> 460 288<1059 1235.2> 1020 318<360.639 596.848> 1039 373<1106.09 1332.18>
DStem2: 520.282 -150 650.282 -150 0.258819 0.965926<24.3963 135.522 301.866 893.974 1225.63 1602.59 1769.64 1882.02>
LayerCount: 2
Fore
SplineSet
555 -19 m 1,0,1
 329 -9 329 -9 221 122 c 0,2,3
 146 212 146 212 146 320 c 0,4,5
 146 423 146 423 204 485 c 0,6,7
 257 541 257 541 337 541 c 128,-1,8
 417 541 417 541 469 488 c 128,-1,9
 521 435 521 435 521 355 c 0,10,11
 521 273 521 273 459 220 c 0,12,13
 404 172 404 172 314 172 c 1,14,15
 399 87 399 87 583 86 c 1,16,-1
 758 737 l 1,17,-1
 672 778 l 2,18,19
 460 879 460 879 460 1059 c 0,20,21
 460 1096 460 1096 469 1137 c 0,22,23
 508 1312 508 1312 690 1431 c 0,24,25
 813 1511 813 1511 969 1526 c 1,26,-1
 994 1620 l 2,27,28
 1005 1660 1005 1660 1045 1660 c 2,29,-1
 1095 1660 l 2,30,31
 1127 1660 1127 1660 1127 1636 c 0,32,33
 1127 1631 1127 1631 1124 1620 c 2,34,-1
 1099 1527 l 1,35,36
 1274 1510 1274 1510 1364 1381 c 0,37,38
 1412 1312 1412 1312 1412 1232 c 0,39,40
 1412 1148 1412 1148 1353 1089 c 0,41,42
 1297 1032 1297 1032 1218 1032 c 0,43,44
 1142 1032 1142 1032 1091 1086 c 0,45,46
 1039 1141 1039 1141 1039 1215 c 0,47,48
 1039 1291 1039 1291 1091 1340 c 0,49,50
 1139 1385 1139 1385 1212 1388 c 1,51,52
 1150 1423 1150 1423 1071 1423 c 9,53,-1
 951 972 l 1,54,-1
 1100 901 l 2,55,56
 1338 788 1338 788 1338 562 c 0,57,58
 1338 518 1338 518 1329 470 c 0,59,60
 1291 266 1291 266 1069 122 c 0,61,62
 890 6 890 6 686 -15 c 1,63,-1
 661 -110 l 2,64,65
 650 -150 650 -150 610 -150 c 2,66,-1
 560 -150 l 2,67,68
 528 -150 528 -150 528 -127 c 0,69,70
 528 -121 528 -121 531 -110 c 2,71,-1
 555 -19 l 1,0,1
837 1034 m 1,72,-1
 935 1398 l 1,73,74
 899 1384 899 1384 867 1362 c 0,75,76
 776 1299 776 1299 752 1199 c 0,77,78
 748 1182 748 1182 748 1165 c 0,79,80
 748 1096 748 1096 837 1034 c 1,72,-1
873 681 m 1,81,-1
 720 109 l 1,82,83
 806 139 806 139 888 209 c 0,84,85
 1002 306 1002 306 1018 443 c 0,86,87
 1020 460 1020 460 1020 475 c 0,88,89
 1020 597 1020 597 873 681 c 1,81,-1
EndSplineSet
Validated: 1
EndChar

StartChar: percent
Encoding: 37 37 8
Width: 1728
GlyphClass: 2
Flags: W
HStem: -20 75<1210.53 1373.91> 623 75<1342.66 1503.16> 812 75<627.731 793.237> 1455 75<761.99 922.328>
VStem: 399 210<921.966 1229.83> 943 210<1111.86 1420.18> 980 210<89.824 398.313> 1524 210<280.343 588.034>
DStem2: 374 129 563 0 0.654033 0.756466<-46.755 1899.01>
LayerCount: 2
Fore
SplineSet
1635 1550 m 0,0,1
 1655 1550 1655 1550 1674 1537 c 2,2,-1
 1757 1481 l 2,3,4
 1780 1465 1780 1465 1780 1438 c 0,5,6
 1780 1408 1780 1408 1757 1381 c 2,7,-1
 563 0 l 2,8,9
 528 -40 528 -40 497 -40 c 0,10,11
 475 -40 475 -40 456 -27 c 2,12,-1
 373 29 l 2,13,14
 347 47 347 47 347 73 c 0,15,16
 347 98 347 98 374 129 c 2,17,-1
 1568 1510 l 2,18,19
 1603 1550 1603 1550 1635 1550 c 0,0,1
1433 623 m 128,-1,21
 1367 623 1367 623 1312 556 c 0,22,23
 1256 486 1256 486 1217 339 c 0,24,25
 1190 239 1190 239 1190 175 c 0,26,27
 1190 145 1190 145 1196 122 c 0,28,29
 1214 55 1214 55 1282.5 55 c 128,-1,30
 1351 55 1351 55 1402 122 c 0,31,32
 1458 193 1458 193 1497 339 c 0,33,34
 1524 441 1524 441 1524 504 c 0,35,36
 1524 534 1524 534 1518 556 c 0,37,20
 1499 623 1499 623 1433 623 c 128,-1,21
1261 -20 m 128,-1,39
 1125 -20 1125 -20 1044 66 c 0,40,41
 980 133 980 133 980 234 c 0,42,43
 980 283 980 283 995 340 c 0,44,45
 1041 512 1041 512 1190 612 c 0,46,47
 1316 698 1316 698 1452.5 698 c 128,-1,48
 1589 698 1589 698 1670 612 c 0,49,50
 1734 544 1734 544 1734 444 c 0,51,52
 1734 395 1734 395 1719 339 c 0,53,54
 1673 167 1673 167 1524 66 c 0,55,38
 1397 -20 1397 -20 1261 -20 c 128,-1,39
872 1530 m 128,-1,57
 1008 1530 1008 1530 1089 1444 c 0,58,59
 1153 1377 1153 1377 1153 1276 c 0,60,61
 1153 1227 1153 1227 1138 1170 c 0,62,63
 1092 998 1092 998 943 898 c 0,64,65
 817 812 817 812 680.5 812 c 128,-1,66
 544 812 544 812 463 898 c 0,67,68
 399 966 399 966 399 1066 c 0,69,70
 399 1115 399 1115 414 1171 c 0,71,72
 460 1343 460 1343 609 1444 c 0,73,56
 736 1530 736 1530 872 1530 c 128,-1,57
852 1455 m 128,-1,75
 786 1455 786 1455 731 1388 c 0,76,77
 675 1318 675 1318 636 1171 c 0,78,79
 609 1071 609 1071 609 1007 c 0,80,81
 609 977 609 977 615 954 c 0,82,83
 633 887 633 887 701.5 887 c 128,-1,84
 770 887 770 887 821 954 c 0,85,86
 877 1025 877 1025 916 1171 c 0,87,88
 943 1273 943 1273 943 1336 c 0,89,90
 943 1366 943 1366 937 1388 c 0,91,74
 918 1455 918 1455 852 1455 c 128,-1,75
EndSplineSet
Validated: 1
EndChar

StartChar: ampersand
Encoding: 38 38 9
Width: 1672
GlyphClass: 2
Flags: W
HStem: -20 105<634.512 975.778> 0 21G<1249 1447.5> 1435 95<984.106 1214.35>
VStem: 209 336<178.724 538.803> 540 312<970.193 1274.89> 1050 371<1124.51 1352.53> 1383 364<768.394 1003.26>
DStem2: 1245 881 964 837 0.27488 -0.961479<-16.9723 437.768 521.613 616.919 694.861 841.625>
LayerCount: 2
Fore
SplineSet
1287 0 m 2,0,1
 1211 0 1211 0 1185 80 c 2,2,-1
 1167 136 l 1,3,4
 986 -20 986 -20 712 -20 c 0,5,6
 425 -20 425 -20 302 112 c 0,7,8
 209 212 209 212 209 349 c 0,9,10
 209 409 209 409 227 475 c 0,11,12
 273 646 273 646 402 753 c 128,-1,13
 531 860 531 860 691 889 c 1,14,15
 629 918 629 918 592 961 c 0,16,17
 540 1022 540 1022 540 1108 c 0,18,19
 540 1151 540 1151 553 1199 c 0,20,21
 591 1339 591 1339 748 1437 c 0,22,23
 899 1530 899 1530 1109 1530 c 0,24,25
 1265 1530 1265 1530 1358 1426 c 0,26,27
 1421 1355 1421 1355 1421 1264 c 0,28,29
 1421 1168 1421 1168 1360 1106 c 0,30,31
 1308 1053 1308 1053 1230 1053 c 128,-1,32
 1152 1053 1152 1053 1101 1103 c 128,-1,33
 1050 1153 1050 1153 1050 1232 c 0,34,35
 1050 1320 1050 1320 1110 1368 c 0,36,37
 1153 1403 1153 1403 1217 1408 c 1,38,39
 1176 1435 1176 1435 1112 1435 c 0,40,41
 1040 1435 1040 1435 981 1388 c 0,42,43
 901 1325 901 1325 868 1200 c 0,44,45
 852 1140 852 1140 852 1093 c 0,46,47
 852 1032 852 1032 878 990 c 8,48,49
 932 905 932 905 1245 881 c 1,50,-1
 1365 460 l 1,51,52
 1480 579 1480 579 1560 710 c 1,53,54
 1484 718 1484 718 1442 754 c 0,55,56
 1383 803 1383 803 1383 883 c 0,57,58
 1383 960 1383 960 1436.5 1013.5 c 128,-1,59
 1490 1067 1490 1067 1568 1067 c 0,60,61
 1642 1067 1642 1067 1696 1014 c 0,62,63
 1747 964 1747 964 1747 882 c 0,64,65
 1747 849 1747 849 1734 812 c 0,66,67
 1717 765 1717 765 1689 718 c 0,68,69
 1636 629 1636 629 1562 535 c 0,70,71
 1489 442 1489 442 1394 357 c 1,72,-1
 1474 80 l 2,73,74
 1479 63 1479 63 1479 50 c 0,75,76
 1479 0 1479 0 1416 0 c 2,77,-1
 1287 0 l 2,0,1
964 837 m 1,78,79
 855 813 855 813 759 750 c 0,80,81
 618 659 618 659 568 475 c 0,82,83
 546 392 546 392 545 327 c 0,84,85
 545 250 545 250 576 196 c 0,86,87
 639 85 639 85 782 85 c 0,88,89
 966 85 966 85 1140 228 c 1,90,-1
 964 837 l 1,78,79
EndSplineSet
Validated: 1
EndChar

StartChar: quotesingle
Encoding: 39 39 10
Width: 402
GlyphClass: 2
Flags: W
HStem: 1125 425<503 606.024>
VStem: 503 229<1291.24 1548.15>
LayerCount: 2
Fore
SplineSet
465 1550 m 1,0,1
 711 1550 l 1,2,3
 732 1503 732 1503 732 1451 c 0,4,5
 732 1416 732 1416 722 1379 c 0,6,7
 688 1251 688 1251 567 1125 c 1,8,-1
 381 1125 l 1,9,10
 462 1234 462 1234 492 1343 c 0,11,12
 503 1384 503 1384 503 1421 c 0,13,14
 503 1491 503 1491 465 1550 c 1,0,1
EndSplineSet
Validated: 1
EndChar

StartChar: parenleft
Encoding: 40 40 11
Width: 658
GlyphClass: 2
Flags: W
VStem: 296 258<63.5366 593.917>
LayerCount: 2
Fore
SplineSet
995 1730 m 1,0,1
 1086 1673 l 1,2,3
 943 1496 943 1496 814 1235 c 0,4,5
 711 1025 711 1025 639 762 c 0,6,7
 571 517 571 517 557 275 c 0,8,9
 554 223 554 223 554 174 c 0,10,11
 554 -8 554 -8 594 -163 c 1,12,-1
 472 -220 l 1,13,14
 334 -16 334 -16 304 242 c 0,15,16
 296 315 296 315 296 389 c 0,17,18
 296 580 296 580 350 785 c 0,19,20
 426 1071 426 1071 586.5 1298.5 c 128,-1,21
 747 1526 747 1526 995 1730 c 1,0,1
EndSplineSet
Validated: 1
EndChar

StartChar: parenright
Encoding: 41 41 12
Width: 658
GlyphClass: 2
Flags: W
VStem: 508 258<916.083 1446.46>
LayerCount: 2
Fore
SplineSet
590 1730 m 1,0,1
 728 1526 728 1526 758 1268 c 0,2,3
 766 1195 766 1195 766 1121 c 0,4,5
 766 930 766 930 712 725 c 0,6,7
 636 439 636 439 475.5 211.5 c 128,-1,8
 315 -16 315 -16 67 -220 c 1,9,-1
 -24 -163 l 1,10,11
 119 14 119 14 248 275 c 0,12,13
 351 485 351 485 423 748 c 0,14,15
 491 993 491 993 505 1235 c 0,16,17
 508 1287 508 1287 508 1336 c 0,18,19
 508 1518 508 1518 468 1673 c 1,20,-1
 590 1730 l 1,0,1
EndSplineSet
Validated: 1
EndChar

StartChar: asterisk
Encoding: 42 42 13
Width: 1129
GlyphClass: 2
Flags: W
LayerCount: 2
Fore
SplineSet
1002 1669 m 1,0,-1
 1016 1669 l 1,1,-1
 1023 1337 l 1,2,-1
 1197 1409 l 1,3,-1
 1085 1262 l 1,4,-1
 1391 1164 l 1,5,-1
 1387 1150 l 1,6,-1
 1029 1054 l 1,7,-1
 1060 900 l 1,8,-1
 932 972 l 1,9,-1
 745 640 l 1,10,-1
 731 640 l 1,11,-1
 724 972 l 1,12,-1
 551 900 l 1,13,-1
 663 1047 l 1,14,-1
 357 1145 l 1,15,-1
 361 1159 l 1,16,-1
 718 1255 l 1,17,-1
 688 1409 l 1,18,-1
 815 1337 l 1,19,-1
 1002 1669 l 1,0,-1
EndSplineSet
Validated: 1
EndChar

StartChar: plus
Encoding: 43 43 14
Width: 1273
GlyphClass: 2
Flags: W
HStem: 649 211<321.328 705 972 1355.67>
DStem2: 589.583 218 800.583 218 0.258819 0.965926<44.4808 446.186 719.101 1121.13>
LayerCount: 2
Fore
SplineSet
942 1291 m 2,0,-1
 1023 1291 l 2,1,2
 1075 1291 1075 1291 1075 1250 c 0,3,4
 1075 1239 1075 1239 1071 1226 c 2,5,-1
 972 860 l 1,6,-1
 1338 860 l 2,7,8
 1390 860 1390 860 1390 819 c 0,9,10
 1390 808 1390 808 1386 795 c 2,11,-1
 1364 714 l 2,12,13
 1347 649 1347 649 1282 649 c 2,14,-1
 916 649 l 1,15,-1
 818 283 l 2,16,17
 801 218 801 218 735 218 c 2,18,-1
 654 218 l 2,19,20
 603 218 603 218 603 258 c 0,21,22
 603 269 603 269 607 283 c 2,23,-1
 705 649 l 1,24,-1
 339 649 l 2,25,26
 287 649 287 649 287 690 c 0,27,28
 287 701 287 701 291 714 c 2,29,-1
 313 795 l 2,30,31
 330 860 330 860 395 860 c 2,32,-1
 761 860 l 1,33,-1
 860 1226 l 2,34,35
 877 1291 877 1291 942 1291 c 2,0,-1
EndSplineSet
Validated: 1
EndChar

StartChar: comma
Encoding: 44 44 15
Width: 514
GlyphClass: 2
Flags: W
HStem: -172 30<-18 40.2695>
VStem: 104 386<37.2617 269.944>
LayerCount: 2
Fore
SplineSet
344 336 m 0,0,1
 423 315 423 315 462 246 c 0,2,3
 490 196 490 196 490 136 c 0,4,5
 490 99 490 99 479 59 c 0,6,7
 447 -59 447 -59 341 -133 c 0,8,9
 251 -195 251 -195 130 -195 c 0,10,11
 58 -195 58 -195 -26 -172 c 1,12,-1
 -18 -142 l 1,13,14
 75 -130 75 -130 147 -96 c 0,15,16
 203 -68 203 -68 240 -19 c 1,17,18
 164 1 164 1 127 65 c 0,19,20
 104 105 104 105 104 150 c 0,21,22
 104 176 104 176 112 205 c 0,23,24
 132 281 132 281 196 320 c 0,25,26
 237 344 237 344 285 344 c 0,27,28
 313 344 313 344 344 336 c 0,0,1
EndSplineSet
Validated: 1
EndChar

StartChar: hyphen
Encoding: 45 45 16
Width: 1273
GlyphClass: 2
Flags: W
HStem: 649 211<321.328 1355.67>
LayerCount: 2
Fore
SplineSet
395 860 m 2,0,-1
 1338 860 l 2,1,2
 1390 860 1390 860 1390 819 c 0,3,4
 1390 808 1390 808 1386 795 c 2,5,-1
 1364 714 l 2,6,7
 1347 649 1347 649 1282 649 c 2,8,-1
 339 649 l 2,9,10
 287 649 287 649 287 690 c 0,11,12
 287 701 287 701 291 714 c 2,13,-1
 313 795 l 2,14,15
 330 860 330 860 395 860 c 2,0,-1
EndSplineSet
Validated: 1
EndChar

StartChar: period
Encoding: 46 46 17
Width: 464
GlyphClass: 2
Flags: W
HStem: -20 370<157.14 394.86>
VStem: 94 364<42.5779 287.422>
LayerCount: 2
Fore
SplineSet
276 -20 m 128,-1,1
 200 -20 200 -20 147 34 c 128,-1,2
 94 88 94 88 94 165 c 128,-1,3
 94 242 94 242 147 296 c 128,-1,4
 200 350 200 350 276 350 c 128,-1,5
 352 350 352 350 405 296 c 128,-1,6
 458 242 458 242 458 165 c 128,-1,7
 458 88 458 88 405 34 c 128,-1,0
 352 -20 352 -20 276 -20 c 128,-1,1
EndSplineSet
Validated: 1
EndChar

StartChar: slash
Encoding: 47 47 18
Width: 1194
GlyphClass: 2
Flags: W
DStem2: 28 19 218 -110 0.645558 0.763711<-48.3647 2172.09>
LayerCount: 2
Fore
SplineSet
1450 1662 m 0,0,1
 1470 1662 1470 1662 1489 1649 c 2,2,-1
 1572 1593 l 2,3,4
 1597 1576 1597 1576 1597 1548 c 0,5,6
 1597 1523 1597 1523 1572 1493 c 2,7,-1
 218 -110 l 2,8,9
 184 -150 184 -150 152 -150 c 0,10,11
 129 -150 129 -150 110 -137 c 2,12,-1
 27 -81 l 2,13,14
 1 -63 1 -63 1 -41 c 0,15,16
 1 -13 1 -13 28 19 c 2,17,-1
 1383 1622 l 2,18,19
 1417 1662 1417 1662 1450 1662 c 0,0,1
EndSplineSet
Validated: 1
EndChar

StartChar: zero
Encoding: 48 48 19
Width: 1442
GlyphClass: 2
Flags: W
HStem: -20 105<629.497 882.151> 1425 105<964.625 1217.04>
VStem: 241 320<236.299 693.61> 1285 321<816.573 1273.76>
LayerCount: 2
Fore
SplineSet
744 85 m 128,-1,1
 861 85 861 85 964 202 c 0,2,3
 1126 386 1126 386 1225 755 c 0,4,5
 1285 979 1285 979 1285 1135 c 0,6,7
 1285 1236 1285 1236 1260 1308 c 0,8,9
 1219 1425 1219 1425 1102.5 1425 c 128,-1,10
 986 1425 986 1425 882 1308 c 0,11,12
 720 1124 720 1124 621 755 c 0,13,14
 561 531 561 531 561 375 c 0,15,16
 561 274 561 274 586 202 c 0,17,0
 627 85 627 85 744 85 c 128,-1,1
716 -20 m 128,-1,19
 451 -20 451 -20 337 142 c 0,20,21
 241 278 241 278 241 474 c 0,22,23
 241 602 241 602 282 755 c 0,24,25
 386 1143 386 1143 666 1368 c 0,26,27
 866 1530 866 1530 1131 1530 c 128,-1,28
 1396 1530 1396 1530 1510 1368 c 0,29,30
 1606 1232 1606 1232 1606 1037 c 0,31,32
 1606 909 1606 909 1564 755 c 0,33,34
 1460 367 1460 367 1181 142 c 0,35,18
 981 -20 981 -20 716 -20 c 128,-1,19
EndSplineSet
Validated: 1
EndChar

StartChar: one
Encoding: 49 49 20
Width: 680
GlyphClass: 2
Flags: W
HStem: 0 21G<229.5 461>
DStem2: 180.564 0 500.564 0 0.258819 0.965926<75.4195 1131.09>
LayerCount: 2
Fore
SplineSet
261 0 m 2,0,1
 198 0 198 0 198 50 c 0,2,3
 198 63 198 63 202 80 c 2,4,-1
 452 1010 l 2,5,6
 465 1057 465 1057 465 1096 c 0,7,8
 465 1214 465 1214 344 1244 c 1,9,-1
 348 1259 l 1,10,11
 649 1356 649 1356 909 1580 c 1,12,-1
 924 1580 l 1,13,-1
 522 80 l 2,14,15
 501 0 501 0 421 0 c 2,16,-1
 261 0 l 2,0,1
EndSplineSet
Validated: 1
EndChar

StartChar: two
Encoding: 50 50 21
Width: 1381
GlyphClass: 2
Flags: W
HStem: -10 300<898.326 1152.58> 80 293<373.117 745.405> 1404 126<836.038 1112.62>
VStem: 417 364<945.593 1190.61> 1165 345<1033.21 1352.01>
LayerCount: 2
Fore
SplineSet
97 -10 m 1,0,1
 248 280 248 280 450 454 c 0,2,3
 633 612 633 612 880 768 c 0,4,5
 1094 903 1094 903 1149 1108 c 0,6,7
 1165 1168 1165 1168 1165 1217 c 0,8,9
 1165 1271 1165 1271 1146 1313 c 0,10,11
 1105 1404 1105 1404 980 1404 c 0,12,13
 875 1404 875 1404 781 1354 c 0,14,15
 689 1305 689 1305 625 1244 c 1,16,17
 685 1240 685 1240 728 1199 c 0,18,19
 781 1150 781 1150 781 1070.5 c 128,-1,20
 781 991 781 991 728 937 c 128,-1,21
 675 883 675 883 599 883 c 128,-1,22
 523 883 523 883 470 937 c 128,-1,23
 417 991 417 991 417 1068 c 0,24,25
 417 1142 417 1142 463 1207 c 0,26,27
 529 1300 529 1300 633 1377 c 0,28,29
 839 1530 839 1530 1096 1530 c 0,30,31
 1338 1530 1338 1530 1440 1407 c 0,32,33
 1510 1321 1510 1321 1510 1214 c 0,34,35
 1510 1167 1510 1167 1496 1115 c 0,36,37
 1431 869 1431 869 1133 704 c 0,38,39
 961 609 961 609 737 498 c 0,40,41
 563 411 563 411 451 289 c 1,42,43
 591 373 591 373 693.5 373 c 128,-1,44
 796 373 796 373 897 335 c 0,45,46
 1020 290 1020 290 1097 290 c 0,47,48
 1235 291 1235 291 1370 388 c 1,49,-1
 1385 388 l 1,50,51
 1146 -10 1146 -10 921 -10 c 0,52,53
 808 -10 808 -10 674 43 c 0,54,55
 580 80 580 80 419 80 c 0,56,57
 264 80 264 80 112 -10 c 1,58,-1
 97 -10 l 1,0,1
EndSplineSet
Validated: 1
EndChar

StartChar: three
Encoding: 51 51 22
Width: 1222
GlyphClass: 2
Flags: W
HStem: -20 105<357.71 655.073> 1435 95<727.651 982.935>
VStem: 137 364<170.426 409.41> 474 364<1087.33 1325.47> 926 341<400.603 730.758> 1012 309<1115.67 1393.2>
LayerCount: 2
Fore
SplineSet
514 -20 m 0,0,1
 331 -20 331 -20 218 94 c 0,2,3
 137 175 137 175 137 285 c 0,4,5
 137 364 137 364 190 418 c 128,-1,6
 243 472 243 472 319 472 c 128,-1,7
 395 472 395 472 448 418 c 128,-1,8
 501 364 501 364 501 287 c 0,9,10
 501 203 501 203 445 158 c 0,11,12
 404 125 404 125 356 119 c 1,13,14
 407 85 407 85 487 85 c 0,15,16
 629 85 629 85 752 196 c 0,17,18
 862 295 862 295 910 475 c 0,19,20
 926 537 926 537 926 588 c 0,21,22
 926 687 926 687 865 750 c 0,23,24
 772 845 772 845 635 859 c 1,25,-1
 639 874 l 1,26,27
 790 918 790 918 874 990 c 0,28,29
 962 1065 962 1065 998 1200 c 0,30,31
 1012 1253 1012 1253 1012 1294 c 0,32,33
 1012 1351 1012 1351 985 1388 c 0,34,35
 951 1435 951 1435 879 1435 c 0,36,37
 780 1435 780 1435 706 1375 c 1,38,39
 751 1363 751 1363 781 1338 c 0,40,41
 838 1290 838 1290 838 1208 c 0,42,43
 838 1132 838 1132 785 1077.5 c 128,-1,44
 732 1023 732 1023 656 1023 c 128,-1,45
 580 1023 580 1023 527 1077 c 128,-1,46
 474 1131 474 1131 474 1208 c 0,47,48
 474 1321 474 1321 596 1415 c 0,49,50
 744 1530 744 1530 932 1530 c 0,51,52
 1143 1530 1143 1530 1244 1437 c 0,53,54
 1321 1365 1321 1365 1321 1270 c 0,55,56
 1321 1236 1321 1236 1311 1199 c 0,57,58
 1272 1053 1272 1053 1144 961 c 0,59,60
 1084 918 1084 918 1007 889 c 1,61,62
 1151 860 1151 860 1223 753 c 0,63,64
 1267 688 1267 688 1267 599 c 0,65,66
 1267 542 1267 542 1249 475 c 0,67,68
 1189 253 1189 253 981 112 c 0,69,70
 786 -20 786 -20 514 -20 c 0,0,1
EndSplineSet
Validated: 1
EndChar

StartChar: four
Encoding: 52 52 23
Width: 1196
GlyphClass: 2
Flags: W
HStem: 0 21G<735.5 967> 356 120<323 782 1135 1263.44>
DStem2: 152 468 323 476 0.757379 0.652975<134.736 977.837> 686.564 0 1006.56 0 0.258819 0.965926<75.602 368.57 575.844 1062.33>
LayerCount: 2
Fore
SplineSet
767 0 m 2,0,1
 704 0 704 0 704 50 c 0,2,3
 704 65 704 65 708 80 c 2,4,-1
 782 356 l 1,5,-1
 152 356 l 2,6,7
 114 356 114 356 114 383 c 0,8,9
 114 390 114 390 116 397 c 2,10,-1
 123 421 l 2,11,12
 132 451 132 451 152 468 c 2,13,-1
 1407 1550 l 1,14,-1
 1422 1550 l 1,15,-1
 1135 476 l 1,16,-1
 1244 476 l 2,17,18
 1276 476 1276 476 1276 454 c 0,19,20
 1276 449 1276 449 1274 441 c 2,21,-1
 1261 391 l 2,22,23
 1252 356 1252 356 1211 356 c 2,24,-1
 1102 356 l 1,25,-1
 1028 80 l 2,26,27
 1007 0 1007 0 927 0 c 2,28,-1
 767 0 l 2,0,1
815 476 m 1,29,-1
 962 1026 l 1,30,-1
 323 476 l 1,31,-1
 815 476 l 1,29,-1
EndSplineSet
Validated: 1
EndChar

StartChar: five
Encoding: 53 53 24
Width: 1221
GlyphClass: 2
Flags: W
HStem: -20 105<356.71 654.698> 814 105<702.092 879.363> 1290 220<923.859 1210.44>
VStem: 136 364<170.426 409.41> 932 333<408.625 757.779>
LayerCount: 2
Fore
SplineSet
513 -20 m 0,0,1
 330 -20 330 -20 217 94 c 0,2,3
 136 175 136 175 136 285 c 0,4,5
 136 364 136 364 189 418 c 128,-1,6
 242 472 242 472 318 472 c 128,-1,7
 394 472 394 472 447 418 c 128,-1,8
 500 364 500 364 500 287 c 0,9,10
 500 203 500 203 444 158 c 0,11,12
 403 125 403 125 355 119 c 1,13,14
 406 85 406 85 486 85 c 0,15,16
 629 85 629 85 753 197 c 0,17,18
 860 294 860 294 907 470 c 0,19,20
 932 562 932 562 932 628 c 0,21,22
 932 692 932 692 909 732 c 0,23,24
 863 814 863 814 748 814 c 0,25,26
 651 814 651 814 546 739 c 1,27,-1
 358 894 l 1,28,-1
 690 1510 l 1,29,-1
 1478 1510 l 1,30,31
 1318 1290 1318 1290 1109 1290 c 0,32,33
 888 1290 888 1290 843 1445 c 1,34,-1
 702 919 l 1,35,36
 764 926 764 926 822 926 c 0,37,38
 1057 926 1057 926 1182 804 c 0,39,40
 1265 723 1265 723 1265 597 c 0,41,42
 1265 538 1265 538 1247 470 c 0,43,44
 1189 253 1189 253 980 112 c 0,45,46
 785 -20 785 -20 513 -20 c 0,0,1
EndSplineSet
Validated: 1
EndChar

StartChar: six
Encoding: 54 54 25
Width: 1384
GlyphClass: 2
Flags: W
HStem: -20 107<609.475 856.962> 938 108<811.98 1063.21> 1425 105<1026.51 1302.62>
VStem: 248 305<202.313 545.696> 1116 326<478.098 839.325> 1181 364<1127.17 1363.51>
LayerCount: 2
Fore
SplineSet
709 -20 m 128,-1,1
 453 -20 453 -20 347 113 c 0,2,3
 248 236 248 236 248 429 c 0,4,5
 248 553 248 553 289 706 c 0,6,7
 404 1134 404 1134 684 1363 c 0,8,9
 888 1530 888 1530 1156 1530 c 0,10,11
 1382 1530 1382 1530 1487 1402 c 0,12,13
 1545 1331 1545 1331 1545 1249 c 0,14,15
 1545 1170 1545 1170 1492 1117 c 0,16,17
 1439 1063 1439 1063 1363 1063 c 128,-1,18
 1287 1063 1287 1063 1234 1117 c 128,-1,19
 1181 1171 1181 1171 1181 1248 c 0,20,21
 1181 1324 1181 1324 1236 1375 c 0,22,23
 1265 1402 1265 1402 1304 1410 c 1,24,25
 1254 1425 1254 1425 1185 1425 c 0,26,27
 1037 1425 1037 1425 902 1281 c 0,28,29
 782 1153 782 1153 713 979 c 1,30,31
 835 1046 835 1046 984 1046 c 0,32,33
 1249 1046 1249 1046 1367 888 c 0,34,35
 1442 787 1442 787 1442 656 c 0,36,37
 1442 589 1442 589 1422 513 c 0,38,39
 1363 294 1363 294 1169 141 c 0,40,0
 965 -20 965 -20 709 -20 c 128,-1,1
949 938 m 128,-1,42
 827 938 827 938 726 814 c 0,43,44
 641 710 641 710 588 514 c 0,45,46
 553 384 553 384 553 296 c 0,47,48
 553 247 553 247 564 211 c 0,49,50
 601 87 601 87 721 87 c 128,-1,51
 841 87 841 87 944 211 c 0,52,53
 1028 312 1028 312 1082 514 c 0,54,55
 1116 641 1116 641 1116 729 c 0,56,57
 1116 777 1116 777 1106 814 c 0,58,41
 1071 938 1071 938 949 938 c 128,-1,42
EndSplineSet
Validated: 1
EndChar

StartChar: seven
Encoding: 55 55 26
Width: 1181
GlyphClass: 2
Flags: W
HStem: -20 21G<531.75 627.25> 1226 294<558.176 847.323>
VStem: 369 356<141.5 414.904>
LayerCount: 2
Fore
SplineSet
579.5 -20 m 128,-1,1
 484 -20 484 -20 432 28 c 0,2,3
 369 86 369 86 369 197 c 0,4,5
 369 263 369 263 391 346 c 0,6,7
 456 589 456 589 645 775 c 0,8,9
 773 900 773 900 924 1003 c 0,10,-1
 1183 1187 l 1,11,12
 1075 1157 1075 1157 998 1157 c 128,-1,13
 921 1157 921 1157 836 1185 c 0,14,15
 711 1226 711 1226 635 1226 c 0,16,17
 465 1226 465 1226 328 1132 c 1,18,-1
 313 1132 l 1,19,20
 548 1520 548 1520 833 1520 c 0,21,22
 954 1520 954 1520 1056.5 1476 c 128,-1,23
 1159 1432 1159 1432 1293 1432 c 0,24,25
 1441 1432 1441 1432 1563 1520 c 1,26,-1
 1578 1520 l 1,27,28
 1440 1241 1440 1241 1204 1069 c 0,29,30
 1101 993 1101 993 1001 895 c 0,31,32
 881 777 881 777 806 650 c 0,33,34
 725 515 725 515 725 410 c 0,35,36
 725 352 725 352 750 298 c 0,37,38
 783 227 783 227 783 166 c 0,39,40
 783 94 783 94 731 39 c 0,41,0
 675 -20 675 -20 579.5 -20 c 128,-1,1
EndSplineSet
Validated: 1
EndChar

StartChar: eight
Encoding: 56 56 27
Width: 1265
GlyphClass: 2
Flags: W
HStem: -20 102<479.354 806.515> 1432 98<915.999 1138.93>
VStem: 170 236<160.711 504.201> 494 309<1018.41 1256.66> 1006 319<346.393 589.343> 1170 231<1099.01 1404.98>
LayerCount: 2
Fore
SplineSet
1046 1432 m 0,0,1
 959 1432 959 1432 898 1373 c 0,2,3
 834 1312 834 1312 812 1218 c 0,4,5
 803 1178 803 1178 803 1143 c 0,6,7
 803 1038 803 1038 887 984 c 2,8,-1
 997 914 l 1,9,10
 1115 1031 1115 1031 1157 1188 c 0,11,12
 1170 1237 1170 1237 1170 1279 c 128,-1,13
 1170 1321 1170 1321 1157 1356 c 0,14,15
 1129 1432 1129 1432 1046 1432 c 0,0,1
621 -20 m 0,16,17
 360 -20 360 -20 248 113 c 0,18,19
 171 205 171 205 170 322 c 0,20,21
 170 373 170 373 185 430 c 0,22,23
 259 709 259 709 617 826 c 1,24,25
 494 930 494 930 494 1076 c 0,26,27
 494 1114 494 1114 502 1154 c 0,28,29
 538 1327 538 1327 710 1435 c 0,30,31
 861 1530 861 1530 1057 1530 c 0,32,33
 1252 1530 1252 1530 1336 1439 c 0,34,35
 1401 1369 1401 1369 1401 1273 c 0,36,37
 1401 1231 1401 1231 1388 1183 c 0,38,39
 1332 967 1332 967 1095 859 c 1,40,41
 1325 730 1325 730 1325 528 c 0,42,43
 1325 496 1325 496 1319 462 c 0,44,45
 1285 265 1285 265 1073 120 c 24,46,47
 867 -20 867 -20 621 -20 c 0,16,17
632 82 m 0,48,49
 768 82 768 82 869 171 c 0,50,51
 966 255 966 255 996 381 c 0,52,53
 1006 424 1006 424 1006 461 c 0,54,55
 1006 574 1006 574 912 634 c 2,56,-1
 699 770 l 1,57,58
 492 684 492 684 424 427 c 0,59,60
 406 359 406 359 406 303 c 0,61,62
 406 236 406 236 432 185 c 0,63,64
 485 82 485 82 632 82 c 0,48,49
EndSplineSet
Validated: 1
EndChar

StartChar: nine
Encoding: 57 57 28
Width: 1385
GlyphClass: 2
Flags: W
HStem: -20 105<486.378 762.494> 464 108<725.786 977.02> 1423 107<932.038 1179.53>
VStem: 244 364<146.495 382.834> 347 326<670.675 1031.9> 1236 305<964.304 1307.69>
LayerCount: 2
Fore
SplineSet
485 100 m 1,0,1
 535 85 535 85 604 85 c 0,2,3
 752 85 752 85 887 229 c 0,4,5
 1007 357 1007 357 1076 531 c 1,6,7
 954 464 954 464 805 464 c 0,8,9
 540 464 540 464 422 622 c 0,10,11
 347 723 347 723 347 854 c 0,12,13
 347 921 347 921 367 997 c 0,14,15
 426 1216 426 1216 620 1369 c 0,16,17
 824 1530 824 1530 1080 1530 c 128,-1,18
 1336 1530 1336 1530 1442 1397 c 0,19,20
 1541 1274 1541 1274 1541 1081 c 0,21,22
 1541 957 1541 957 1500 804 c 0,23,24
 1385 376 1385 376 1105 147 c 0,25,26
 901 -20 901 -20 633 -20 c 0,27,28
 407 -20 407 -20 302 108 c 0,29,30
 244 179 244 179 244 261 c 0,31,32
 244 340 244 340 297 393 c 0,33,34
 350 447 350 447 426 447 c 128,-1,35
 502 447 502 447 555 393 c 128,-1,36
 608 339 608 339 608 262 c 0,37,38
 608 186 608 186 553 135 c 0,39,40
 524 108 524 108 485 100 c 1,0,1
840 572 m 128,-1,42
 962 572 962 572 1063 696 c 0,43,44
 1148 800 1148 800 1201 996 c 0,45,46
 1236 1126 1236 1126 1236 1214 c 0,47,48
 1236 1263 1236 1263 1225 1299 c 0,49,50
 1188 1423 1188 1423 1068 1423 c 128,-1,51
 948 1423 948 1423 845 1299 c 0,52,53
 761 1198 761 1198 707 996 c 0,54,55
 673 869 673 869 673 781 c 0,56,57
 673 733 673 733 683 696 c 0,58,41
 718 572 718 572 840 572 c 128,-1,42
EndSplineSet
Validated: 1
EndChar

StartChar: colon
Encoding: 58 58 29
Width: 464
GlyphClass: 2
Flags: W
HStem: -20 370<157.14 394.86> 569 370<315.14 552.86>
VStem: 94 364<42.5779 287.422> 252 364<631.578 876.422>
LayerCount: 2
Fore
SplineSet
276 -20 m 128,-1,1
 200 -20 200 -20 147 34 c 128,-1,2
 94 88 94 88 94 165 c 128,-1,3
 94 242 94 242 147 296 c 128,-1,4
 200 350 200 350 276 350 c 128,-1,5
 352 350 352 350 405 296 c 128,-1,6
 458 242 458 242 458 165 c 128,-1,7
 458 88 458 88 405 34 c 128,-1,0
 352 -20 352 -20 276 -20 c 128,-1,1
434 569 m 128,-1,9
 358 569 358 569 305 623 c 128,-1,10
 252 677 252 677 252 754 c 128,-1,11
 252 831 252 831 305 885 c 128,-1,12
 358 939 358 939 434 939 c 128,-1,13
 510 939 510 939 563 885 c 128,-1,14
 616 831 616 831 616 754 c 128,-1,15
 616 677 616 677 563 623 c 128,-1,8
 510 569 510 569 434 569 c 128,-1,9
EndSplineSet
Validated: 1
EndChar

StartChar: semicolon
Encoding: 59 59 30
Width: 484
GlyphClass: 2
Flags: W
HStem: -172 30<-18 40.2695> 569 370<315.14 552.86>
VStem: 104 386<37.2617 269.944> 252 364<631.578 876.422>
LayerCount: 2
Fore
SplineSet
344 336 m 0,0,1
 423 315 423 315 462 246 c 0,2,3
 490 196 490 196 490 136 c 0,4,5
 490 99 490 99 479 59 c 0,6,7
 447 -59 447 -59 341 -133 c 0,8,9
 251 -195 251 -195 130 -195 c 0,10,11
 58 -195 58 -195 -26 -172 c 1,12,-1
 -18 -142 l 1,13,14
 75 -130 75 -130 147 -96 c 0,15,16
 203 -68 203 -68 240 -19 c 1,17,18
 164 1 164 1 127 65 c 0,19,20
 104 105 104 105 104 150 c 0,21,22
 104 176 104 176 112 205 c 0,23,24
 132 281 132 281 196 320 c 0,25,26
 237 344 237 344 285 344 c 0,27,28
 313 344 313 344 344 336 c 0,0,1
434 569 m 128,-1,30
 358 569 358 569 305 623 c 128,-1,31
 252 677 252 677 252 754 c 128,-1,32
 252 831 252 831 305 885 c 128,-1,33
 358 939 358 939 434 939 c 128,-1,34
 510 939 510 939 563 885 c 128,-1,35
 616 831 616 831 616 754 c 128,-1,36
 616 677 616 677 563 623 c 128,-1,29
 510 569 510 569 434 569 c 128,-1,30
EndSplineSet
Validated: 1
EndChar

StartChar: less
Encoding: 60 60 31
Width: 1142
GlyphClass: 2
Flags: W
DStem2: 593 772 329 669 0.841225 -0.540685<0 564.752> 378 850 593 772 0.895917 0.444221<157.973 966.509>
LayerCount: 2
Fore
SplineSet
1247 1274 m 0,0,1
 1273 1274 1273 1274 1281 1247 c 2,2,-1
 1301 1183 l 2,3,4
 1304 1173 1304 1173 1304 1164 c 0,5,6
 1304 1135 1304 1135 1263 1114 c 2,7,-1
 593 772 l 1,8,-1
 1065 474 l 2,9,10
 1087 460 1087 460 1087 430 c 0,11,12
 1087 408 1087 408 1067 384 c 2,13,-1
 1011 317 l 2,14,15
 982 282 982 282 950 282 c 0,16,17
 931 282 931 282 914 293 c 2,18,-1
 329 669 l 2,19,20
 297 690 297 690 297 725 c 0,21,22
 297 735 297 735 298 739 c 2,23,-1
 309 780 l 2,24,25
 320 821 320 821 378 850 c 2,26,-1
 1217 1266 l 2,27,28
 1233 1274 1233 1274 1247 1274 c 0,0,1
EndSplineSet
Validated: 1
EndChar

StartChar: equal
Encoding: 61 61 32
Width: 1273
GlyphClass: 2
Flags: W
HStem: 444 211<266.328 1301.33> 854 211<376.328 1410.67>
LayerCount: 2
Fore
SplineSet
341 655 m 2,0,-1
 1284 655 l 2,1,2
 1335 655 1335 655 1335 615 c 0,3,4
 1335 604 1335 604 1331 590 c 2,5,-1
 1309 509 l 2,6,7
 1292 444 1292 444 1227 444 c 2,8,-1
 284 444 l 2,9,10
 232 444 232 444 232 485 c 0,11,12
 232 496 232 496 236 509 c 2,13,-1
 258 590 l 2,14,15
 276 655 276 655 341 655 c 2,0,-1
450 1065 m 2,16,-1
 1393 1065 l 2,17,18
 1445 1065 1445 1065 1445 1024 c 0,19,20
 1445 1013 1445 1013 1441 1000 c 2,21,-1
 1419 919 l 2,22,23
 1402 854 1402 854 1337 854 c 2,24,-1
 394 854 l 2,25,26
 342 854 342 854 342 895 c 0,27,28
 342 906 342 906 346 919 c 2,29,-1
 368 1000 l 2,30,31
 385 1065 385 1065 450 1065 c 2,16,-1
EndSplineSet
Validated: 1
EndChar

StartChar: greater
Encoding: 62 62 33
Width: 1142
GlyphClass: 2
Flags: W
DStem2: 1230 887 494 1082 0.841225 -0.540685<-731.145 -166.393> 966 784 342 290 0.895917 0.444221<-808.536 0>
LayerCount: 2
Fore
SplineSet
609 1274 m 0,0,1
 628 1274 628 1274 645 1263 c 2,2,-1
 1230 887 l 2,3,4
 1262 866 1262 866 1262 831 c 0,5,6
 1262 821 1262 821 1261 817 c 2,7,-1
 1250 776 l 2,8,9
 1239 735 1239 735 1181 706 c 2,10,-1
 342 290 l 2,11,12
 326 282 326 282 312 282 c 0,13,14
 286 282 286 282 278 309 c 2,15,-1
 258 373 l 2,16,17
 255 383 255 383 255 392 c 0,18,19
 255 421 255 421 296 442 c 2,20,-1
 966 784 l 1,21,-1
 494 1082 l 2,22,23
 472 1096 472 1096 472 1126 c 0,24,25
 472 1148 472 1148 492 1172 c 2,26,-1
 548 1239 l 2,27,28
 577 1274 577 1274 609 1274 c 0,0,1
EndSplineSet
Validated: 1
EndChar

StartChar: question
Encoding: 63 63 34
Width: 1269
GlyphClass: 2
Flags: W
HStem: -20 370<491.14 728.86> 1404 126<805.078 1083.28>
VStem: 386 364<945.59 1190.61> 428 364<42.5779 287.422> 1138 341<1041.19 1349.86>
LayerCount: 2
Fore
SplineSet
610 -20 m 128,-1,1
 534 -20 534 -20 481 34 c 128,-1,2
 428 88 428 88 428 165 c 128,-1,3
 428 242 428 242 481 296 c 128,-1,4
 534 350 534 350 610 350 c 128,-1,5
 686 350 686 350 739 296 c 128,-1,6
 792 242 792 242 792 165 c 128,-1,7
 792 88 792 88 739 34 c 128,-1,0
 686 -20 686 -20 610 -20 c 128,-1,1
1065 1530 m 0,8,9
 1315 1530 1315 1530 1413 1405 c 0,10,11
 1479 1321 1479 1321 1479 1210 c 0,12,13
 1479 1165 1479 1165 1468 1115 c 0,14,15
 1416 881 1416 881 1163 730 c 2,16,-1
 842 538 l 2,17,18
 766 492 766 492 750 434 c 0,19,20
 741 400 741 400 702 400 c 2,21,-1
 638 400 l 2,22,23
 606 400 606 400 606 422 c 0,24,25
 606 426 606 426 608 434 c 0,26,27
 644 577 644 577 754 669 c 2,28,-1
 878 773 l 2,29,30
 1075 938 1075 938 1124 1120 c 0,31,32
 1138 1172 1138 1172 1138 1215 c 0,33,34
 1138 1268 1138 1268 1118 1313 c 0,35,36
 1077 1404 1077 1404 950 1404 c 0,37,38
 844 1404 844 1404 750 1354 c 0,39,40
 658 1305 658 1305 594 1244 c 1,41,42
 654 1240 654 1240 697 1199 c 0,43,44
 750 1148 750 1148 750 1070 c 0,45,46
 750 991 750 991 697 937 c 128,-1,47
 644 883 644 883 568 883 c 128,-1,48
 492 883 492 883 439 937 c 128,-1,49
 386 991 386 991 386 1068 c 0,50,51
 386 1142 386 1142 432 1207 c 0,52,53
 498 1300 498 1300 602 1377 c 0,54,55
 808 1530 808 1530 1065 1530 c 0,8,9
EndSplineSet
Validated: 1
EndChar

StartChar: at
Encoding: 64 64 35
Width: 1455
GlyphClass: 2
Flags: W
HStem: -430 97<582.908 953.286> -20 97<734 951.484> 0 21G<1014.5 1225.5> 1019 101<882.476 1174.83>
VStem: 121 314<-164.83 340.468> 541 286<87.6396 372.338> 1195 293<692.766 997.757>
DStem2: 850.168 -430 1150.35 -430 0.258819 0.965926<519.899 1079.63 1135.66 1374.5>
LayerCount: 2
Fore
SplineSet
1046 0 m 2,0,1
 983 0 983 0 983 50 c 1,2,3
 908 -20 908 -20 806 -20 c 0,4,5
 662 -20 662 -20 593 62 c 0,6,7
 541 123 541 123 541 206 c 0,8,9
 541 246 541 246 553 290 c 0,10,11
 594 443 594 443 752.5 556 c 128,-1,12
 911 669 911 669 1147 681 c 1,13,-1
 1177 791 l 2,14,15
 1195 857 1195 857 1195 902 c 0,16,17
 1195 943 1195 943 1180 968 c 0,18,19
 1149 1019 1149 1019 1061 1019 c 0,20,21
 884 1019 884 1019 744 864 c 0,22,23
 566 666 566 666 480 343 c 0,24,25
 435 173 435 173 435 43 c 0,26,27
 435 -79 435 -79 475 -166 c 0,28,29
 551 -333 551 -333 763 -333 c 0,30,31
 981 -333 981 -333 1171 -209 c 1,32,-1
 1205 -277 l 1,33,34
 948 -430 948 -430 635 -430 c 0,35,36
 363 -430 363 -430 237 -282 c 0,37,38
 121 -145 121 -145 121 66 c 0,39,40
 121 190 121 190 161 338 c 0,41,42
 269 740 269 740 569 957 c 0,43,44
 795 1120 795 1120 1121 1120 c 0,45,46
 1315 1120 1315 1120 1418 1032 c 0,47,48
 1488 972 1488 972 1488 874 c 0,49,50
 1488 832 1488 832 1474 780 c 2,51,-1
 1287 80 l 2,52,53
 1266 0 1266 0 1185 0 c 2,54,-1
 1046 0 l 2,0,1
1129 613 m 1,55,56
 1056 588 1056 588 993 540 c 0,57,58
 888 460 888 460 845 302 c 0,59,60
 827 236 827 236 827 191 c 0,61,62
 827 173 827 173 830 159 c 0,63,64
 846 77 846 77 912 77 c 0,65,66
 957 77 957 77 990 134 c 0,67,68
 1011 170 1011 170 1038 271 c 2,69,-1
 1129 613 l 1,55,56
EndSplineSet
Validated: 1
EndChar

StartChar: A
Encoding: 65 65 36
Width: 1395
GlyphClass: 2
Flags: W
HStem: 0 21G<24 108 1135 1375> 491 121<551 1001> 1490 20G<903 1142>
DStem2: 16 50 163 50 0.563297 0.826255<-8.20144 618.988 765.719 1416.97> 1194 1430 878 1411 0.152225 -0.988346<-76.1006 50.5816 234.723 779.088 901.57 1400.06>
LayerCount: 2
Fore
SplineSet
41 0 m 2,0,1
 7 0 7 0 7 26 c 0,2,3
 7 37 7 37 16 50 c 2,4,-1
 890 1332 l 1,5,-1
 878 1411 l 2,6,7
 873 1444 873 1444 873 1458 c 0,8,9
 873 1510 873 1510 933 1510 c 2,10,-1
 1102 1510 l 2,11,12
 1182 1510 1182 1510 1194 1430 c 2,13,-1
 1399 99 l 2,14,15
 1406 54 1406 54 1406 43 c 0,16,17
 1406 0 1406 0 1344 0 c 2,18,-1
 1175 0 l 2,19,20
 1095 0 1095 0 1083 80 c 2,21,-1
 1020 491 l 1,22,-1
 468 491 l 1,23,-1
 163 50 l 2,24,25
 128 0 128 0 88 0 c 2,26,-1
 41 0 l 2,0,1
1001 612 m 1,27,-1
 918 1150 l 1,28,-1
 551 612 l 1,29,-1
 1001 612 l 1,27,-1
EndSplineSet
Validated: 1
EndChar

StartChar: C
Encoding: 67 67 37
Width: 1306
GlyphClass: 2
Flags: W
HStem: -20 105<682.024 1029.04> 959 368<1235.16 1377.1> 1425 105<1001.04 1327.69>
VStem: 240 331<231.625 692.796> 1171 387<1045.38 1265.27>
LayerCount: 2
Fore
SplineSet
766.5 -20 m 128,-1,1
 461 -20 461 -20 337 142 c 0,2,3
 240 269 240 269 240 465 c 0,4,5
 240 599 240 599 282 755 c 0,6,7
 390 1156 390 1156 666 1368 c 0,8,9
 876 1529 876 1529 1166 1530 c 0,10,11
 1379 1530 1379 1530 1487 1395 c 0,12,13
 1558 1306 1558 1306 1558 1187 c 0,14,15
 1558 1087 1558 1087 1494 1022 c 0,16,17
 1432 959 1432 959 1356 959 c 0,18,19
 1278 959 1278 959 1225 1013 c 0,20,21
 1171 1067 1171 1067 1171 1144 c 128,-1,22
 1171 1221 1171 1221 1225 1276 c 0,23,24
 1275 1327 1275 1327 1342 1327 c 0,25,26
 1362 1327 1362 1327 1379 1319 c 1,27,28
 1364 1348 1364 1348 1349 1363 c 0,29,30
 1287 1425 1287 1425 1173 1425 c 0,31,32
 1022 1425 1022 1425 904 1305 c 0,33,34
 730 1129 730 1129 631 755 c 0,35,36
 571 529 571 529 571 385 c 0,37,38
 571 271 571 271 608 207 c 0,39,40
 679 85 679 85 836 85 c 0,41,42
 990 85 990 85 1119 181 c 0,43,44
 1232 265 1232 265 1336 390 c 1,45,-1
 1350 390 l 1,46,-1
 1297 189 l 1,47,-1
 1295 188 l 1,48,0
 1072 -20 1072 -20 766.5 -20 c 128,-1,1
EndSplineSet
Validated: 1
EndChar

StartChar: D
Encoding: 68 68 38
Width: 1515
GlyphClass: 2
Flags: W
HStem: 0 110<597.246 898.483> 1410 120<819.554 1172.23>
VStem: 248 349<25 189.609> 1323 350<746.255 1234.24>
DStem2: 231.564 0 551.09 0 0.258819 0.965926<249.464 1254.88>
LayerCount: 2
Fore
SplineSet
311 0 m 2,0,1
 248 0 248 0 248 50 c 0,2,3
 248 61 248 61 253 80 c 2,4,-1
 532 1125 l 2,5,6
 553 1205 553 1205 634 1205 c 2,7,-1
 794 1205 l 2,8,9
 856 1205 856 1205 856 1155 c 0,10,11
 856 1140 856 1140 852 1125 c 2,12,-1
 602 190 l 2,13,14
 597 171 597 171 597 160 c 0,15,16
 597 110 597 110 660 110 c 2,17,-1
 711 110 l 2,18,19
 938 110 938 110 1085 318 c 0,20,21
 1213 498 1213 498 1282 755 c 0,22,23
 1323 906 1323 906 1323 1030 c 0,24,25
 1323 1116 1323 1116 1303 1189 c 0,26,27
 1242 1410 1242 1410 989 1410 c 0,28,29
 602 1410 602 1410 252 1036 c 1,30,-1
 240 1044 l 1,31,32
 578 1530 578 1530 1123 1530 c 0,33,34
 1436 1530 1436 1530 1572 1338 c 0,35,36
 1673 1195 1673 1195 1673 1002 c 0,37,38
 1673 887 1673 887 1637 755 c 0,39,40
 1555 451 1555 451 1335 239 c 0,41,42
 1087 0 1087 0 705 0 c 2,43,-1
 311 0 l 2,0,1
EndSplineSet
Validated: 1
EndChar

StartChar: E
Encoding: 69 69 39
Width: 1232
GlyphClass: 2
Flags: W
HStem: -20 105<614.512 954.606> 1435 95<964.106 1194.35>
VStem: 189 336<178.724 538.193> 520 312<970.494 1274.89> 1030 371<1124.51 1352.53>
LayerCount: 2
Fore
SplineSet
1197 1408 m 1,0,1
 1156 1435 1156 1435 1092 1435 c 0,2,3
 1020 1435 1020 1435 961 1388 c 0,4,5
 882 1325 882 1325 848 1200 c 0,6,7
 832 1140 832 1140 832 1093 c 0,8,9
 832 1032 832 1032 858 990 c 0,10,11
 904 918 904 918 1031 874 c 1,12,-1
 1027 859 l 1,13,14
 882 845 882 845 739 750 c 128,-1,15
 596 655 596 655 548 475 c 0,16,17
 526 392 526 392 525 327 c 0,18,19
 525 250 525 250 556 196 c 0,20,21
 619 85 619 85 762 85 c 0,22,23
 917 85 917 85 1044 181 c 0,24,25
 1154 265 1154 265 1260 390 c 1,26,-1
 1276 390 l 1,27,-1
 1223 189 l 1,28,-1
 1220 188 l 1,29,30
 997 -20 997 -20 692 -20 c 0,31,32
 405 -20 405 -20 282 112 c 0,33,34
 189 212 189 212 189 349 c 0,35,36
 189 409 189 409 207 475 c 0,37,38
 253 646 253 646 382 753 c 128,-1,39
 511 860 511 860 671 889 c 1,40,41
 609 918 609 918 572 961 c 0,42,43
 520 1022 520 1022 520 1108 c 0,44,45
 520 1151 520 1151 533 1199 c 0,46,47
 571 1339 571 1339 728 1437 c 0,48,49
 879 1530 879 1530 1089 1530 c 0,50,51
 1245 1530 1245 1530 1338 1426 c 0,52,53
 1401 1355 1401 1355 1401 1264 c 0,54,55
 1401 1168 1401 1168 1340 1106 c 0,56,57
 1288 1053 1288 1053 1210 1053 c 128,-1,58
 1132 1053 1132 1053 1081 1103 c 128,-1,59
 1030 1153 1030 1153 1030 1232 c 0,60,61
 1030 1320 1030 1320 1090 1368 c 0,62,63
 1133 1403 1133 1403 1197 1408 c 1,0,1
EndSplineSet
Validated: 1
EndChar

StartChar: F
Encoding: 70 70 40
Width: 1157
GlyphClass: 2
Flags: W
HStem: 0 21G<227.5 459> 586 120<176.543 337 689 1097.46> 1425 105<1021.45 1280.16>
VStem: 1125 366<1113.69 1349.51>
DStem2: 179.564 0 499.564 0 0.258819 0.965926<76.2148 606.78 813.795 1270.97>
LayerCount: 2
Fore
SplineSet
259 0 m 2,0,1
 196 0 196 0 196 50 c 0,2,3
 196 61 196 61 201 80 c 2,4,-1
 337 586 l 1,5,-1
 196 586 l 2,6,7
 163 586 163 586 163 608 c 0,8,9
 163 614 163 614 165 621 c 2,10,-1
 179 671 l 2,11,12
 189 706 189 706 228 706 c 2,13,-1
 369 706 l 1,14,-1
 436 956 l 2,15,16
 512 1239 512 1239 705 1380 c 0,17,18
 910 1530 910 1530 1133 1530 c 0,19,20
 1340 1530 1340 1530 1444 1386 c 0,21,22
 1491 1321 1491 1321 1491 1247 c 0,23,24
 1491 1157 1491 1157 1435 1100 c 0,25,26
 1383 1047 1383 1047 1306.5 1047 c 128,-1,27
 1230 1047 1230 1047 1176 1102 c 0,28,29
 1125 1154 1125 1154 1125 1232 c 0,30,31
 1125 1314 1125 1314 1180 1360 c 0,32,33
 1224 1397 1224 1397 1283 1403 c 1,34,35
 1229 1425 1229 1425 1163 1425 c 0,36,37
 1081 1425 1081 1425 1000 1368 c 0,38,39
 836 1253 836 1253 756 955 c 2,40,-1
 689 706 l 1,41,-1
 1078 706 l 2,42,43
 1111 706 1111 706 1111 685 c 0,44,45
 1111 678 1111 678 1109 671 c 2,46,-1
 1095 621 l 2,47,48
 1085 586 1085 586 1046 586 c 2,49,-1
 657 586 l 1,50,-1
 521 80 l 2,51,52
 499 0 499 0 419 0 c 2,53,-1
 259 0 l 2,0,1
EndSplineSet
Validated: 1
EndChar

StartChar: G
Encoding: 71 71 41
Width: 1376
GlyphClass: 2
Flags: W
HStem: -20 105<652.936 925.031> 586 120<909.543 1087.65> 959 368<1235.16 1377.1> 1425 105<1001.04 1327.69>
VStem: 240 336<231.796 713.658> 1171 387<1045.38 1265.27>
LayerCount: 2
Fore
SplineSet
749 -20 m 0,0,1
 461 -20 461 -20 337 142 c 0,2,3
 240 269 240 269 240 465 c 0,4,5
 240 599 240 599 282 755 c 0,6,7
 390 1156 390 1156 666 1368 c 0,8,9
 876 1529 876 1529 1166 1530 c 0,10,11
 1379 1530 1379 1530 1487 1395 c 0,12,13
 1558 1306 1558 1306 1558 1187 c 0,14,15
 1558 1087 1558 1087 1494 1022 c 0,16,17
 1432 959 1432 959 1356 959 c 0,18,19
 1278 959 1278 959 1225 1013 c 0,20,21
 1171 1067 1171 1067 1171 1144 c 128,-1,22
 1171 1221 1171 1221 1225 1276 c 0,23,24
 1275 1327 1275 1327 1342 1327 c 0,25,26
 1362 1327 1362 1327 1379 1319 c 1,27,28
 1364 1348 1364 1348 1349 1363 c 0,29,30
 1287 1425 1287 1425 1173 1425 c 0,31,32
 1022 1425 1022 1425 904 1305 c 0,33,34
 732 1131 732 1131 631 755 c 0,35,36
 576 551 576 551 576 397 c 0,37,38
 576 290 576 290 603 207 c 0,39,40
 642 85 642 85 780 85 c 0,41,42
 900 85 900 85 998 190 c 0,43,44
 1084 282 1084 282 1113 393 c 0,45,46
 1122 428 1122 428 1122 456 c 0,47,48
 1122 586 1122 586 929 586 c 0,49,50
 896 586 896 586 896 608 c 0,51,52
 896 614 896 614 898 621 c 2,53,-1
 912 671 l 2,54,55
 922 706 922 706 961 706 c 2,56,-1
 1206 706 l 2,57,58
 1454 706 1454 706 1454 549 c 0,59,60
 1454 517 1454 517 1444 478 c 0,61,62
 1396 300 1396 300 1232 156 c 0,63,64
 1031 -20 1031 -20 749 -20 c 0,0,1
EndSplineSet
Validated: 1
EndChar

StartChar: H
Encoding: 72 72 42
Width: 1418
GlyphClass: 2
Flags: W
HStem: 0 21G<227.5 459.5 965.5 1197.5> 586 121<689 1075> 1490 20G<624.5 856.5 1362.5 1594.5>
DStem2: 179.564 0 499.564 0 0.258819 0.965926<76.3118 689.602 814.761 1569.85> 917.564 0 1237.56 0 0.258819 0.965926<76.3118 606.78 731.939 1569.85>
LayerCount: 2
Fore
SplineSet
259 0 m 2,0,1
 196 0 196 0 196 50 c 0,2,3
 196 61 196 61 201 80 c 2,4,-1
 563 1430 l 2,5,6
 584 1510 584 1510 665 1510 c 2,7,-1
 825 1510 l 2,8,9
 888 1510 888 1510 888 1460 c 0,10,11
 888 1449 888 1449 883 1430 c 2,12,-1
 689 707 l 1,13,-1
 1107 707 l 1,14,-1
 1301 1430 l 2,15,16
 1322 1510 1322 1510 1403 1510 c 2,17,-1
 1563 1510 l 2,18,19
 1626 1510 1626 1510 1626 1460 c 0,20,21
 1626 1449 1626 1449 1621 1430 c 2,22,-1
 1259 80 l 2,23,24
 1238 0 1238 0 1157 0 c 2,25,-1
 997 0 l 2,26,27
 934 0 934 0 934 50 c 0,28,29
 934 61 934 61 939 80 c 2,30,-1
 1075 586 l 1,31,-1
 657 586 l 1,32,-1
 521 80 l 2,33,34
 500 0 500 0 419 0 c 2,35,-1
 259 0 l 2,0,1
EndSplineSet
Validated: 1
EndChar

StartChar: I
Encoding: 73 73 43
Width: 680
GlyphClass: 2
Flags: W
HStem: 0 21G<227.5 459.5> 1490 20G<624.5 856.5>
DStem2: 179.564 0 499.564 0 0.258819 0.965926<76.3118 1569.85>
LayerCount: 2
Fore
SplineSet
259 0 m 2,0,1
 196 0 196 0 196 50 c 0,2,3
 196 61 196 61 201 80 c 2,4,-1
 563 1430 l 2,5,6
 584 1510 584 1510 665 1510 c 2,7,-1
 825 1510 l 2,8,9
 888 1510 888 1510 888 1460 c 0,10,11
 888 1449 888 1449 883 1430 c 2,12,-1
 521 80 l 2,13,14
 500 0 500 0 419 0 c 2,15,-1
 259 0 l 2,0,1
EndSplineSet
Validated: 1
EndChar

StartChar: J
Encoding: 74 74 44
Width: 1157
GlyphClass: 2
Flags: W
HStem: -20 105<281.844 540.367> 1490 20G<1101.5 1333.5>
VStem: 71 366<160.493 396.314>
DStem2: 651.929 -20 971.197 -20 0.258819 0.965926<393.089 1591.46>
LayerCount: 2
Fore
SplineSet
429 -20 m 0,0,1
 222 -20 222 -20 118 124 c 0,2,3
 71 189 71 189 71 263 c 0,4,5
 71 353 71 353 127 410 c 0,6,7
 179 463 179 463 255.5 463 c 128,-1,8
 332 463 332 463 386 408 c 0,9,10
 437 356 437 356 437 278 c 0,11,12
 437 196 437 196 382 150 c 0,13,14
 338 113 338 113 279 107 c 1,15,16
 333 85 333 85 399 85 c 0,17,18
 481 85 481 85 562 142 c 0,19,20
 726 256 726 256 806 555 c 2,21,-1
 1040 1430 l 2,22,23
 1061 1510 1061 1510 1142 1510 c 2,24,-1
 1302 1510 l 2,25,26
 1365 1510 1365 1510 1365 1460 c 0,27,28
 1365 1449 1365 1449 1360 1430 c 2,29,-1
 1125 554 l 2,30,31
 1049 270 1049 270 857 130 c 0,32,33
 651 -20 651 -20 429 -20 c 0,0,1
EndSplineSet
Validated: 1
EndChar

StartChar: K
Encoding: 75 75 45
Width: 1399
GlyphClass: 2
Flags: W
HStem: 0 21G<227.5 459 1055.5 1330.5> 1490 20G<624.5 856.5 1361 1437>
VStem: 1217 364<1231.39 1466.26>
DStem2: 179.564 0 499.564 0 0.258819 0.965926<76.2148 610.237 740.297 1569.85> 1217 415 887 342 0.385593 -0.922669<-182.129 328.677>
LayerCount: 2
Fore
SplineSet
259 0 m 2,0,1
 196 0 196 0 196 50 c 0,2,3
 196 61 196 61 201 80 c 2,4,-1
 563 1430 l 2,5,6
 584 1510 584 1510 665 1510 c 2,7,-1
 825 1510 l 2,8,9
 888 1510 888 1510 888 1460 c 0,10,11
 888 1449 888 1449 883 1430 c 2,12,-1
 670 635 l 1,13,14
 1147 884 1147 884 1371 1177 c 1,15,16
 1314 1185 1314 1185 1276 1217 c 0,17,18
 1217 1266 1217 1266 1217 1346 c 0,19,20
 1217 1423 1217 1423 1270 1476.5 c 128,-1,21
 1323 1530 1323 1530 1399 1530 c 128,-1,22
 1475 1530 1475 1530 1528 1476 c 128,-1,23
 1581 1422 1581 1422 1581 1345 c 0,24,25
 1581 1307 1581 1307 1568 1271 c 0,26,27
 1551 1224 1551 1224 1520 1181 c 0,28,29
 1292 863 1292 863 891 632 c 1,30,31
 1126 632 1126 632 1217 415 c 2,32,-1
 1357 80 l 2,33,34
 1362 68 1362 68 1362 50 c 0,35,36
 1362 0 1362 0 1299 0 c 2,37,-1
 1091 0 l 2,38,39
 1020 0 1020 0 989 80 c 2,40,-1
 887 342 l 2,41,42
 820 515 820 515 724 515 c 0,43,44
 638 515 638 515 581 303 c 2,45,-1
 521 80 l 2,46,47
 499 0 499 0 419 0 c 2,48,-1
 259 0 l 2,0,1
EndSplineSet
Validated: 1
EndChar

StartChar: L
Encoding: 76 76 46
Width: 1250
GlyphClass: 2
Flags: W
HStem: -20 105<678.755 1045.23> 35 112<540 772.222> 1490 20G<625.5 857.5>
VStem: 945 364<129.566 364.584>
DStem2: 174.785 -20 495.252 -20 0.258819 0.965926<255.834 1590.64>
LayerCount: 2
Fore
SplineSet
184 -20 m 1,0,-1
 178 -8 l 1,1,-1
 564 1430 l 2,2,3
 585 1510 585 1510 666 1510 c 2,4,-1
 826 1510 l 2,5,6
 889 1510 889 1510 889 1460 c 0,7,8
 889 1449 889 1449 884 1430 c 2,9,-1
 540 147 l 17,10,11
 621 147 621 147 733.5 116 c 128,-1,12
 846 85 846 85 929 85 c 0,13,14
 983 85 983 85 1047 98 c 1,15,16
 1020 104 1020 104 999 121 c 0,17,18
 945 165 945 165 945 245 c 0,19,20
 945 320 945 320 997 373 c 0,21,22
 1051 428 1051 428 1127 428 c 128,-1,23
 1203 428 1203 428 1256 374 c 128,-1,24
 1309 320 1309 320 1309 243 c 0,25,26
 1309 209 1309 209 1296 171 c 0,27,28
 1271 98 1271 98 1187 46 c 0,29,30
 1082 -20 1082 -20 903 -20 c 0,31,32
 796 -20 796 -20 688 8 c 0,33,34
 584 35 584 35 499 35 c 0,35,36
 353 35 353 35 184 -20 c 1,0,-1
EndSplineSet
Validated: 1
EndChar

StartChar: M
Encoding: 77 77 47
Width: 1966
GlyphClass: 2
Flags: W
HStem: 0 21G<182.5 257.5 1570 1807> 1490 20G<684 928 1889 1986>
DStem2: 167 50 300 50 0.385841 0.922565<-21.0425 1134.63> 980 1430 660 1411 0.159874 -0.987137<-83.0282 101.255 334.372 983.347> 1123 457 910 -40 0.578679 0.815556<0 729.448> 1539 80 1857 80 0.10521 0.99445<-34.4876 911.388>
LayerCount: 2
Fore
SplineSet
203 0 m 2,0,1
 162 0 162 0 162 29 c 0,2,3
 162 38 162 38 167 50 c 2,4,-1
 681 1279 l 1,5,-1
 660 1411 l 2,6,7
 653 1455 653 1455 653 1467 c 0,8,9
 653 1510 653 1510 715 1510 c 2,10,-1
 888 1510 l 2,11,12
 968 1510 968 1510 980 1430 c 2,13,-1
 1123 457 l 1,14,-1
 1831 1460 l 2,15,16
 1866 1510 1866 1510 1912 1510 c 2,17,-1
 1967 1510 l 2,18,19
 2005 1510 2005 1510 2005 1484 c 0,20,21
 2005 1479 2005 1479 2003 1460 c 2,22,-1
 1857 80 l 2,23,24
 1849 0 1849 0 1765 0 c 2,25,-1
 1603 0 l 2,26,27
 1537 0 1537 0 1537 45 c 0,28,29
 1537 62 1537 62 1539 80 c 2,30,-1
 1638 986 l 1,31,-1
 910 -40 l 1,32,-1
 895 -40 l 1,33,-1
 719 1049 l 1,34,-1
 300 50 l 2,35,36
 279 0 279 0 236 0 c 2,37,-1
 203 0 l 2,0,1
EndSplineSet
Validated: 1
EndChar

StartChar: N
Encoding: 78 78 48
Width: 1527
GlyphClass: 2
Flags: W
HStem: 0 21G<231.5 326.5> 1490 20G<514.5 768 1605.5 1700.5>
DStem2: 190.885 -40 340.885 -40 0.258819 0.965926<73.3522 1250.7> 850 1430 499 1410 0.48354 -0.875322<-112.696 -41.1987 166.464 1007.66> 1165.86 -40 1315 -40 0.258819 0.965926<599.425 1611.36>
LayerCount: 2
Fore
SplineSet
251 0 m 2,0,1
 212 0 212 0 212 30 c 0,2,3
 212 39 212 39 215 50 c 2,4,-1
 553 1313 l 1,5,-1
 499 1410 l 2,6,7
 483 1438 483 1438 483 1460 c 0,8,9
 483 1510 483 1510 546 1510 c 2,10,-1
 728 1510 l 2,11,12
 808 1510 808 1510 850 1430 c 2,13,-1
 1321 539 l 1,14,-1
 1567 1460 l 2,15,16
 1580 1510 1580 1510 1631 1510 c 2,17,-1
 1681 1510 l 2,18,19
 1720 1510 1720 1510 1720 1480 c 0,20,21
 1720 1471 1720 1471 1717 1460 c 2,22,-1
 1315 -40 l 1,23,-1
 1300 -40 l 1,24,-1
 653 1131 l 1,25,-1
 365 50 l 2,26,27
 352 0 352 0 301 0 c 2,28,-1
 251 0 l 2,0,1
EndSplineSet
Validated: 1
EndChar

StartChar: P
Encoding: 80 80 49
Width: 1428
GlyphClass: 2
Flags: W
HStem: 0 21G<281.5 513.5> 446 101<763.986 1015.23> 1410 120<806.918 1179.17>
VStem: 1292 339<921.451 1305.62>
DStem2: 233.564 0 553.564 0 0.258819 0.965926<76.3118 605.15 711.362 1254.62>
LayerCount: 2
Fore
SplineSet
313 0 m 2,0,1
 250 0 250 0 250 50 c 0,2,3
 250 61 250 61 255 80 c 2,4,-1
 533 1125 l 2,5,6
 554 1205 554 1205 635 1205 c 2,7,-1
 795 1205 l 2,8,9
 858 1205 858 1205 858 1156 c 0,10,11
 858 1144 858 1144 853 1125 c 2,12,-1
 729 660 l 1,13,14
 757 547 757 547 876 547 c 0,15,16
 956 547 956 547 1029 601 c 0,17,18
 1200 727 1200 727 1268 988 c 0,19,20
 1292 1079 1292 1079 1292 1149 c 0,21,22
 1292 1231 1292 1231 1260 1287 c 0,23,24
 1190 1410 1190 1410 977 1410 c 0,25,26
 605 1410 605 1410 253 1036 c 1,27,-1
 239 1042 l 1,28,29
 572 1530 572 1530 1113 1530 c 0,30,31
 1424 1530 1424 1530 1550 1373 c 0,32,33
 1631 1272 1631 1272 1631 1129 c 0,34,35
 1631 1070 1631 1070 1617 1003 c 0,36,37
 1576 804 1576 804 1409 649 c 0,38,39
 1191 446 1191 446 900 446 c 0,40,41
 763 446 763 446 687 505 c 1,42,-1
 575 80 l 2,43,44
 554 0 554 0 473 0 c 2,45,-1
 313 0 l 2,0,1
EndSplineSet
Validated: 1
EndChar

StartChar: R
Encoding: 82 82 50
Width: 1473
GlyphClass: 2
Flags: W
HStem: 0 21G<281.5 513.5 1065 1338.5> 1410 120<806.918 1179.17>
VStem: 1292 337<923.444 1305.95>
DStem2: 233.564 0 553.564 0 0.258819 0.965926<76.3118 605.15 708.801 1254.62>
LayerCount: 2
Fore
SplineSet
313 0 m 2,0,1
 250 0 250 0 250 50 c 0,2,3
 250 61 250 61 255 80 c 2,4,-1
 533 1125 l 2,5,6
 554 1205 554 1205 635 1205 c 2,7,-1
 795 1205 l 2,8,9
 858 1205 858 1205 858 1155 c 0,10,11
 858 1144 858 1144 853 1125 c 2,12,-1
 729 660 l 1,13,14
 750 547 750 547 876 547 c 0,15,16
 956 547 956 547 1029 601 c 0,17,18
 1200 727 1200 727 1268 988 c 0,19,20
 1292 1079 1292 1079 1292 1149 c 0,21,22
 1292 1231 1292 1231 1260 1287 c 0,23,24
 1190 1410 1190 1410 977 1410 c 0,25,26
 605 1410 605 1410 253 1036 c 1,27,-1
 239 1042 l 1,28,29
 572 1530 572 1530 1113 1530 c 0,30,31
 1424 1530 1424 1530 1550 1373 c 0,32,33
 1629 1274 1629 1274 1629 1127 c 0,34,35
 1629 1063 1629 1063 1617 1003 c 0,36,37
 1575 798 1575 798 1409 649 c 0,38,39
 1262 517 1262 517 1090 469 c 1,40,41
 1206 429 1206 429 1269 291 c 2,42,-1
 1365 80 l 2,43,44
 1370 69 1370 69 1370 50 c 0,45,46
 1370 0 1370 0 1307 0 c 2,47,-1
 1099 0 l 2,48,49
 1031 0 1031 0 997 80 c 2,50,-1
 896 321 l 2,51,52
 850 431 850 431 776 455 c 0,53,54
 722 472 722 472 687 505 c 1,55,-1
 575 80 l 2,56,57
 554 0 554 0 473 0 c 2,58,-1
 313 0 l 2,0,1
EndSplineSet
Validated: 1
EndChar

StartChar: S
Encoding: 83 83 51
Width: 1283
GlyphClass: 2
Flags: W
HStem: -20 106<371.87 767.349> 172 369<315.034 453.821> 1423 107<892.894 1210.67>
VStem: 146 375<238.372 468.859> 460 288<1059 1235.2> 1020 318<360.639 596.952> 1039 373<1106.09 1332.18>
DStem2: 922 986 672 778 0.902391 -0.430917<-198.903 235.433>
LayerCount: 2
Fore
SplineSet
594.5 -20 m 128,-1,1
 339 -20 339 -20 221 122 c 0,2,3
 146 212 146 212 146 320 c 0,4,5
 146 423 146 423 204 485 c 0,6,7
 257 541 257 541 337 541 c 128,-1,8
 417 541 417 541 469 488 c 128,-1,9
 521 435 521 435 521 355 c 0,10,11
 521 273 521 273 459 220 c 0,12,13
 404 172 404 172 314 172 c 1,14,15
 400 86 400 86 587 86 c 0,16,17
 744 86 744 86 888 209 c 0,18,19
 1002 306 1002 306 1018 443 c 0,20,21
 1020 460 1020 460 1020 475 c 0,22,23
 1020 613 1020 613 830 703 c 2,24,-1
 672 778 l 2,25,26
 460 879 460 879 460 1059 c 0,27,28
 460 1096 460 1096 469 1137 c 0,29,30
 508 1312 508 1312 690 1431 c 0,31,32
 842 1530 842 1530 1043 1530 c 0,33,34
 1260 1530 1260 1530 1364 1381 c 0,35,36
 1412 1312 1412 1312 1412 1232 c 0,37,38
 1412 1148 1412 1148 1353 1089 c 0,39,40
 1297 1032 1297 1032 1218 1032 c 0,41,42
 1142 1032 1142 1032 1091 1086 c 0,43,44
 1039 1141 1039 1141 1039 1215 c 0,45,46
 1039 1291 1039 1291 1091 1340 c 0,47,48
 1139 1385 1139 1385 1212 1388 c 1,49,50
 1151 1423 1151 1423 1073 1423 c 0,51,52
 955 1423 955 1423 867 1362 c 0,53,54
 776 1299 776 1299 752 1199 c 0,55,56
 748 1182 748 1182 748 1165 c 0,57,58
 748 1069 748 1069 922 986 c 2,59,-1
 1100 901 l 2,60,61
 1338 787 1338 787 1338 562 c 0,62,63
 1338 518 1338 518 1329 470 c 0,64,65
 1291 266 1291 266 1069 122 c 0,66,0
 850 -20 850 -20 594.5 -20 c 128,-1,1
EndSplineSet
Validated: 1
EndChar

StartChar: T
Encoding: 84 84 52
Width: 1325
GlyphClass: 2
Flags: W
HStem: 0 21G<558.5 790.5> 1390 120<739.27 1425.52>
VStem: 1292 369<1120.06 1327.95>
DStem2: 510.564 0 830.564 0 0.258819 0.965926<76.3118 1254.88>
LayerCount: 2
Fore
SplineSet
590 0 m 2,0,1
 527 0 527 0 527 50 c 0,2,3
 527 61 527 61 532 80 c 2,4,-1
 811 1125 l 2,5,6
 832 1205 832 1205 913 1205 c 2,7,-1
 1073 1205 l 2,8,9
 1135 1205 1135 1205 1135 1155 c 0,10,11
 1135 1140 1135 1140 1131 1125 c 2,12,-1
 852 80 l 2,13,14
 831 0 831 0 750 0 c 2,15,-1
 590 0 l 2,0,1
1045 1510 m 2,16,-1
 1314 1510 l 2,17,18
 1518 1510 1518 1510 1613 1391 c 0,19,20
 1661 1331 1661 1331 1661 1250 c 0,21,22
 1661 1167 1661 1167 1603 1104 c 0,23,24
 1549 1045 1549 1045 1470 1045 c 0,25,26
 1389 1045 1389 1045 1340 1097 c 0,27,28
 1292 1147 1292 1147 1292 1212 c 0,29,30
 1292 1287 1292 1287 1345 1337 c 0,31,32
 1379 1370 1379 1370 1429 1381 c 1,33,34
 1386 1390 1386 1390 1313 1390 c 2,35,-1
 1004 1390 l 2,36,37
 523 1390 523 1390 236 1015 c 1,38,-1
 224 1023 l 1,39,40
 486 1510 486 1510 1045 1510 c 2,16,-1
EndSplineSet
Validated: 1
EndChar

StartChar: U
Encoding: 85 85 53
Width: 1480
GlyphClass: 2
Flags: W
HStem: -20 142<649.833 863.831> 0 21G<1027.5 1259.5> 1490 20G<624.5 856.5 1424.5 1656>
VStem: 275 321<172.901 516.156>
DStem2: 174.207 -20 494.528 -20 0.258819 0.965926<418.183 1590.55> 974.205 -20 1294.21 -20 0.258819 0.965926<97.0173 157.379 243.29 1590.55>
LayerCount: 2
Fore
SplineSet
1059 0 m 2,0,1
 996 0 996 0 996 50 c 0,2,3
 996 61 996 61 1001 80 c 2,4,-1
 1015 132 l 1,5,6
 864 -20 864 -20 660 -20 c 0,7,8
 397 -20 397 -20 308 144 c 0,9,10
 275 205 275 205 275 288 c 0,11,12
 275 356 275 356 298 442 c 2,13,-1
 563 1430 l 2,14,15
 584 1510 584 1510 665 1510 c 2,16,-1
 825 1510 l 2,17,18
 888 1510 888 1510 888 1460 c 0,19,20
 888 1449 888 1449 883 1430 c 2,21,-1
 621 452 l 2,22,23
 596 359 596 359 596 298 c 0,24,25
 596 271 596 271 601 250 c 0,26,27
 635 122 635 122 771 122 c 0,28,29
 910 122 910 122 1010 245 c 0,30,31
 1062 309 1062 309 1094 428 c 2,32,-1
 1363 1430 l 2,33,34
 1384 1510 1384 1510 1465 1510 c 2,35,-1
 1625 1510 l 2,36,37
 1687 1510 1687 1510 1687 1460 c 0,38,39
 1687 1445 1687 1445 1683 1430 c 2,40,-1
 1321 80 l 2,41,42
 1300 0 1300 0 1219 0 c 2,43,-1
 1059 0 l 2,0,1
EndSplineSet
Validated: 1
EndChar

StartChar: V
Encoding: 86 86 54
Width: 1455
GlyphClass: 2
Flags: W
HStem: -20 149<665.692 949.541> 1490 20G<624.5 856.5 1354.5 1467>
VStem: 284 321<186.989 543.594> 1365 280<841.183 1220.5>
DStem2: 174.647 -20 494.647 -20 0.258819 0.965926<441.05 1590.44>
LayerCount: 2
Fore
SplineSet
698 -20 m 24,0,1
 385 -20 385 -20 305 175 c 0,2,3
 284 226 284 226 284 298 c 0,4,5
 284 388 284 388 318 515 c 2,6,-1
 563 1430 l 2,7,8
 584 1510 584 1510 665 1510 c 2,9,-1
 825 1510 l 2,10,11
 888 1510 888 1510 888 1460 c 0,12,13
 888 1449 888 1449 883 1430 c 2,14,-1
 638 515 l 2,15,16
 605 392 605 392 605 319 c 0,17,18
 605 288 605 288 611 265 c 0,19,20
 647 129 647 129 786 129 c 0,21,22
 916 129 916 129 1021 208 c 0,23,24
 1120 282 1120 282 1216 426 c 0,25,26
 1308 564 1308 564 1346 730 c 0,27,28
 1365 813 1365 813 1365 913 c 0,29,30
 1365 1090 1365 1090 1272 1182 c 0,31,32
 1197 1255 1197 1255 1197 1340 c 0,33,34
 1197 1424 1197 1424 1252 1477 c 128,-1,35
 1307 1530 1307 1530 1402 1530 c 0,36,37
 1532 1530 1532 1530 1595 1397 c 0,38,39
 1645 1292 1645 1292 1645 1149 c 0,40,41
 1645 1007 1645 1007 1596 825 c 0,42,43
 1515 522 1515 522 1349 324 c 0,44,45
 1062 -20 1062 -20 698 -20 c 24,0,1
EndSplineSet
Validated: 1
EndChar

StartChar: W
Encoding: 87 87 55
Width: 2253
GlyphClass: 2
Flags: W
HStem: -20 142<649.833 894.876 1469.6 1749.54> 1490 20G<624.5 856.5 1424.5 1656.5 2154.5 2267>
VStem: 275 321<172.901 516.156> 2165 280<841.183 1220.5>
DStem2: 174.207 -20 494.528 -20 0.258819 0.965926<418.183 1590.55> 974.474 -20 1294.47 -20 0.258819 0.965926<441.095 1590.48>
LayerCount: 2
Fore
SplineSet
660 -20 m 0,0,1
 397 -20 397 -20 308 144 c 0,2,3
 275 205 275 205 275 288 c 0,4,5
 275 356 275 356 298 442 c 2,6,-1
 563 1430 l 2,7,8
 584 1510 584 1510 665 1510 c 2,9,-1
 825 1510 l 2,10,11
 888 1510 888 1510 888 1460 c 0,12,13
 888 1449 888 1449 883 1430 c 2,14,-1
 621 452 l 2,15,16
 596 359 596 359 596 298 c 0,17,18
 596 271 596 271 601 250 c 0,19,20
 635 122 635 122 771 122 c 0,21,22
 909 122 909 122 1010 245 c 0,23,24
 1063 310 1063 310 1101 452 c 2,25,-1
 1363 1430 l 2,26,27
 1384 1510 1384 1510 1465 1510 c 2,28,-1
 1625 1510 l 2,29,30
 1688 1510 1688 1510 1688 1461 c 0,31,32
 1688 1449 1688 1449 1683 1430 c 2,33,-1
 1438 515 l 2,34,35
 1405 392 1405 392 1405 319 c 0,36,37
 1405 288 1405 288 1411 265 c 0,38,39
 1447 129 1447 129 1586 129 c 0,40,41
 1716 129 1716 129 1821 208 c 0,42,43
 1936 294 1936 294 2016 426 c 24,44,45
 2113 586 2113 586 2146 730 c 0,46,47
 2165 813 2165 813 2165 913 c 0,48,49
 2165 1090 2165 1090 2072 1182 c 0,50,51
 1997 1255 1997 1255 1997 1340 c 0,52,53
 1997 1424 1997 1424 2052 1477 c 128,-1,54
 2107 1530 2107 1530 2202 1530 c 0,55,56
 2332 1530 2332 1530 2395 1397 c 0,57,58
 2445 1292 2445 1292 2445 1149 c 0,59,60
 2445 1007 2445 1007 2396 825 c 0,61,62
 2315 522 2315 522 2149 324 c 0,63,64
 1862 -20 1862 -20 1498 -20 c 0,65,66
 1185 -20 1185 -20 1105 175 c 1,67,68
 933 -20 933 -20 660 -20 c 0,0,1
EndSplineSet
Validated: 1
EndChar

StartChar: X
Encoding: 88 88 56
Width: 1239
GlyphClass: 2
Flags: W
HStem: 0 21G<67.5 239 851 1082.5> 1175 355<1279.15 1401.73> 1490 20G<510.5 742>
VStem: 1213 367<1231.71 1464.5>
DStem2: 802 1430 484 1430 0.221746 -0.975104<-86.2596 806.125 917.502 977.802 1096.59 1400.21>
LayerCount: 2
Fore
SplineSet
208 0 m 10,0,-1
 75 0 l 2,1,2
 60 0 60 0 60 11 c 0,3,4
 60 20 60 20 72 28 c 1,5,6
 391 199 391 199 713 426 c 1,7,-1
 484 1430 l 2,8,9
 479 1452 479 1452 479 1460 c 0,10,11
 479 1510 479 1510 542 1510 c 2,12,-1
 700 1510 l 2,13,14
 784 1510 784 1510 802 1430 c 2,15,-1
 981 644 l 1,16,17
 1241 879 1241 879 1404 1175 c 1,18,19
 1318 1175 1318 1175 1265.5 1221 c 128,-1,20
 1213 1267 1213 1267 1213 1344 c 0,21,22
 1213 1420 1213 1420 1267 1475 c 128,-1,23
 1321 1530 1321 1530 1397 1530 c 128,-1,24
 1473 1530 1473 1530 1528 1475 c 0,25,26
 1580 1423 1580 1423 1580 1335 c 0,27,28
 1580 1219 1580 1219 1453 1020 c 0,29,30
 1294 771 1294 771 1010 512 c 1,31,-1
 1109 80 l 2,32,33
 1114 58 1114 58 1114 50 c 0,34,35
 1114 0 1114 0 1051 0 c 2,36,-1
 893 0 l 2,37,38
 809 0 809 0 791 80 c 2,39,-1
 743 292 l 1,40,41
 442 86 442 86 322 26 c 0,42,43
 270 0 270 0 208 0 c 10,0,-1
EndSplineSet
Validated: 1
EndChar

StartChar: Y
Encoding: 89 89 57
Width: 1420
GlyphClass: 2
Flags: W
HStem: -20 105<503.073 803.416> 492 142<758.537 978.238> 1490 20G<624.5 856.5 1364.5 1596.5>
VStem: 292 366<160.493 396.314> 402 324<666.017 994.516>
DStem2: 174.415 -20 494.735 -20 0.258819 0.965926<925.83 1590.5> 914.929 -20 1234.2 -20 0.258819 0.965926<388.425 635.543 748.385 1591.46>
LayerCount: 2
Fore
SplineSet
666 -20 m 0,0,1
 443 -20 443 -20 339 124 c 0,2,3
 292 189 292 189 292 263 c 0,4,5
 292 353 292 353 348 410 c 0,6,7
 400 463 400 463 476.5 463 c 128,-1,8
 553 463 553 463 607 408 c 0,9,10
 658 356 658 356 658 278 c 0,11,12
 658 196 658 196 603 150 c 0,13,14
 559 113 559 113 500 107 c 1,15,16
 554 85 554 85 631 85 c 0,17,18
 744 85 744 85 825 142 c 0,19,20
 993 260 993 260 1069 555 c 2,21,-1
 1079 594 l 1,22,23
 935 492 935 492 767 492 c 0,24,25
 524 492 524 492 438 631 c 0,26,27
 402 689 402 689 402 770 c 0,28,29
 402 829 402 829 422 904 c 2,30,-1
 563 1430 l 2,31,32
 584 1510 584 1510 665 1510 c 2,33,-1
 825 1510 l 2,34,35
 888 1510 888 1510 888 1460 c 0,36,37
 888 1449 888 1449 883 1430 c 2,38,-1
 745 914 l 2,39,40
 726 843 726 843 726 789 c 0,41,42
 726 761 726 761 731 737 c 0,43,44
 751 634 751 634 880 634 c 0,45,46
 1004 634 1004 634 1080 732 c 0,47,48
 1136 805 1136 805 1165 914 c 2,49,-1
 1303 1430 l 2,50,51
 1324 1510 1324 1510 1405 1510 c 2,52,-1
 1565 1510 l 2,53,54
 1628 1510 1628 1510 1628 1460 c 0,55,56
 1628 1449 1628 1449 1623 1430 c 2,57,-1
 1388 554 l 2,58,59
 1312 271 1312 271 1120 130 c 0,60,61
 915 -20 915 -20 666 -20 c 0,0,1
EndSplineSet
Validated: 1
EndChar

StartChar: Z
Encoding: 90 90 58
Width: 1400
GlyphClass: 2
Flags: W
HStem: -20 113<671.722 1134.04> 1354 120<1027.7 1181> 1417 113<677.377 1059.02>
VStem: 413 364<1132.42 1367.43> 1034 364<141.566 376.584>
DStem2: 38 -8 546 156 0.642836 0.766004<452.185 1778.06>
LayerCount: 2
Fore
SplineSet
44 -20 m 1,0,-1
 38 -8 l 1,1,-1
 1181 1354 l 1,2,3
 1093 1356 1093 1356 1016 1388 c 0,4,5
 946 1417 946 1417 856 1417 c 0,6,7
 764 1417 764 1417 675 1399 c 1,8,9
 702 1393 702 1393 723 1376 c 0,10,11
 777 1332 777 1332 777 1252 c 0,12,13
 777 1177 777 1177 725 1124 c 0,14,15
 671 1069 671 1069 595 1069 c 128,-1,16
 519 1069 519 1069 466 1123 c 128,-1,17
 413 1177 413 1177 413 1254 c 0,18,19
 413 1288 413 1288 426 1326 c 0,20,21
 451 1399 451 1399 535 1451 c 0,22,23
 663 1530 663 1530 891 1530 c 0,24,25
 986 1530 986 1530 1117.5 1502 c 128,-1,26
 1249 1474 1249 1474 1344 1474 c 0,27,28
 1504 1474 1504 1474 1680 1530 c 1,29,-1
 1687 1518 l 1,30,-1
 546 156 l 1,31,32
 636 149 636 149 738 122 c 0,33,34
 848 93 848 93 962 93 c 0,35,36
 1052 93 1052 93 1136 110 c 1,37,38
 1109 116 1109 116 1088 133 c 0,39,40
 1034 177 1034 177 1034 257 c 0,41,42
 1034 332 1034 332 1086 385 c 0,43,44
 1140 440 1140 440 1216 440 c 128,-1,45
 1292 440 1292 440 1345 386 c 128,-1,46
 1398 332 1398 332 1398 255 c 0,47,48
 1398 221 1398 221 1385 183 c 0,49,50
 1360 110 1360 110 1276 58 c 0,51,52
 1150 -20 1150 -20 942 -20 c 0,53,54
 779 -20 779 -20 640.5 8 c 128,-1,55
 502 36 502 36 359 36 c 128,-1,56
 216 36 216 36 44 -20 c 1,0,-1
EndSplineSet
Validated: 1
EndChar

StartChar: bracketleft
Encoding: 91 91 59
Width: 785
GlyphClass: 2
Flags: W
HStem: -205 131<460 721.587> 1579 131<903 1199.59>
DStem2: 125.244 -205 424.899 -205 0.258819 0.965926<213.178 1924.51>
LayerCount: 2
Fore
SplineSet
708 1710 m 2,0,1
 1188 1710 l 2,2,3
 1216 1710 1216 1710 1216 1689 c 0,4,5
 1216 1682 1216 1682 1214 1675 c 2,6,-1
 1197 1614 l 2,7,8
 1187 1579 1187 1579 1153 1579 c 2,9,-1
 903 1579 l 1,10,-1
 460 -74 l 1,11,-1
 710 -74 l 2,12,13
 738 -74 738 -74 738 -95 c 0,14,15
 738 -102 738 -102 736 -109 c 2,16,-1
 719 -170 l 2,17,18
 709 -205 709 -205 675 -205 c 2,19,-1
 195 -205 l 2,20,21
 140 -205 140 -205 140 -162 c 0,22,23
 140 -150 140 -150 144 -135 c 2,24,-1
 619 1640 l 2,25,26
 638 1710 638 1710 708 1710 c 2,0,1
EndSplineSet
Validated: 1
EndChar

StartChar: backslash
Encoding: 92 92 60
Width: 1171
GlyphClass: 2
Flags: W
DStem2: 1143 -7 936 -110 0.295569 -0.955321<-1699 34.7309>
LayerCount: 2
Fore
SplineSet
593 1662 m 0,0,1
 628 1662 628 1662 640 1622 c 2,2,-1
 1143 -7 l 2,3,4
 1149 -26 1149 -26 1149 -42 c 0,5,6
 1149 -78 1149 -78 1090 -107 c 2,7,-1
 1028 -137 l 2,8,9
 1001 -150 1001 -150 980 -150 c 0,10,11
 948 -150 948 -150 936 -110 c 2,12,-1
 432 1519 l 2,13,14
 426 1538 426 1538 426 1550 c 0,15,16
 426 1590 426 1590 486 1619 c 2,17,-1
 548 1649 l 2,18,19
 575 1662 575 1662 593 1662 c 0,0,1
EndSplineSet
Validated: 1
EndChar

StartChar: bracketright
Encoding: 93 93 61
Width: 786
GlyphClass: 2
Flags: W
HStem: -205 131<-10.5869 286> 1579 131<467.413 729>
DStem2: 250.899 -205 551.244 -205 0.258819 0.965926<135.621 1846.95>
LayerCount: 2
Fore
SplineSet
994 1710 m 2,0,1
 1049 1710 1049 1710 1049 1667 c 0,2,3
 1049 1655 1049 1655 1045 1640 c 2,4,-1
 570 -135 l 2,5,6
 551 -205 551 -205 481 -205 c 2,7,-1
 1 -205 l 2,8,9
 -27 -205 -27 -205 -27 -184 c 0,10,11
 -27 -177 -27 -177 -25 -170 c 2,12,-1
 -8 -109 l 2,13,14
 2 -74 2 -74 36 -74 c 2,15,-1
 286 -74 l 1,16,-1
 729 1579 l 1,17,-1
 479 1579 l 2,18,19
 451 1579 451 1579 451 1600 c 0,20,21
 451 1607 451 1607 453 1614 c 2,22,-1
 470 1675 l 2,23,24
 480 1710 480 1710 514 1710 c 2,25,-1
 994 1710 l 2,0,1
EndSplineSet
Validated: 1
EndChar

StartChar: asciicircum
Encoding: 94 94 62
Width: 789
GlyphClass: 2
Flags: W
HStem: 1043 487<831.562 944.5>
DStem2: 354 1114 508 1059 0.643878 0.765128<24.6134 458.976> 947 1480 765 1368 0.270831 -0.962627<58.523 362.647>
LayerCount: 2
Fore
SplineSet
745 1530 m 2,0,-1
 890 1530 l 2,1,2
 933 1530 933 1530 947 1480 c 2,3,-1
 1039 1153 l 2,4,5
 1043 1139 1043 1139 1043 1130 c 0,6,7
 1043 1098 1043 1098 1003 1085 c 2,8,-1
 899 1050 l 2,9,10
 884 1045 884 1045 871 1045 c 0,11,12
 841 1045 841 1045 836 1068 c 2,13,-1
 765 1368 l 1,14,-1
 508 1059 l 2,15,16
 495 1043 495 1043 476 1043 c 0,17,18
 472 1043 472 1043 457 1046 c 2,19,-1
 355 1067 l 2,20,21
 341 1070 341 1070 341 1086 c 0,22,23
 341 1099 341 1099 354 1114 c 2,24,-1
 662 1480 l 2,25,26
 704 1530 704 1530 745 1530 c 2,0,-1
EndSplineSet
Validated: 1
EndChar

StartChar: underscore
Encoding: 95 95 63
Width: 1253
GlyphClass: 2
Flags: W
HStem: -216 144<69.1716 1106.83>
LayerCount: 2
Fore
SplineSet
121 -72 m 2,0,-1
 1094 -72 l 2,1,2
 1125 -72 1125 -72 1125 -97 c 0,3,4
 1125 -104 1125 -104 1123 -112 c 2,5,-1
 1106 -176 l 2,6,7
 1095 -216 1095 -216 1055 -216 c 2,8,-1
 82 -216 l 2,9,10
 51 -216 51 -216 51 -193 c 0,11,12
 51 -184 51 -184 53 -176 c 2,13,-1
 70 -112 l 2,14,15
 81 -72 81 -72 121 -72 c 2,0,-1
EndSplineSet
Validated: 1
EndChar

StartChar: grave
Encoding: 96 96 64
Width: 466
GlyphClass: 2
Flags: W
HStem: 1160 348
VStem: 422 311
LayerCount: 2
Fore
SplineSet
548 1508 m 0,0,1
 616 1508 616 1508 644 1430 c 2,2,-1
 733 1184 l 1,3,-1
 707 1160 l 1,4,-1
 478 1290 l 2,5,6
 422 1322 422 1322 422 1388 c 0,7,8
 422 1436 422 1436 453 1471 c 0,9,10
 486 1508 486 1508 548 1508 c 0,0,1
EndSplineSet
Validated: 1
EndChar

StartChar: a
Encoding: 97 97 65
Width: 1220
GlyphClass: 2
Flags: W
HStem: -20 105<551.146 718.125> 0 21G<808.5 1019.5> 1015 105<778.774 969.529> 1080 20G<1094.5 1305.5>
VStem: 188 313<164.527 577.658> 987 350<886.032 1075.5>
DStem2: 755.205 -20 1054.21 -20 0.258819 0.965926<146.832 948.123 1097.33 1167.97>
LayerCount: 2
Fore
SplineSet
840 0 m 2,0,1
 777 0 777 0 777 50 c 0,2,3
 777 61 777 61 782 80 c 1,4,5
 696 -20 696 -20 559 -20 c 0,6,7
 346 -20 346 -20 240 151 c 0,8,9
 188 235 188 235 188 353 c 0,10,11
 188 442 188 442 217 550 c 0,12,13
 281 788 281 788 448 942 c 0,14,15
 641 1120 641 1120 870 1120 c 0,16,17
 983 1120 983 1120 1039 1040 c 1,18,19
 1055 1100 1055 1100 1134 1100 c 2,20,-1
 1274 1100 l 2,21,22
 1337 1100 1337 1100 1337 1051 c 0,23,24
 1337 1039 1337 1039 1332 1020 c 2,25,-1
 1081 80 l 2,26,27
 1060 0 1060 0 979 0 c 2,28,-1
 840 0 l 2,0,1
845 316 m 2,29,30
 966 773 l 2,31,32
 987 852 987 852 987 901 c 0,33,34
 987 932 987 932 979 952 c 0,35,36
 954 1015 954 1015 893 1015 c 0,37,38
 794 1015 794 1015 687 879 c 0,39,40
 594 760 594 760 537 550 c 0,41,42
 501 415 501 415 501 314 c 0,43,44
 501 263 501 263 510 221 c 0,45,46
 539 85 539 85 644 85 c 0,47,48
 708 85 708 85 765 148 c 0,49,50
 812 200 812 200 845 316 c 2,29,30
EndSplineSet
Validated: 1
EndChar

StartChar: c
Encoding: 99 99 66
Width: 1117
GlyphClass: 2
Flags: W
HStem: -20 106<570.51 875.563> 607 358<973.722 1094> 1015 105<790.774 1086.13>
VStem: 190 314<173.441 575.186> 913 366<678.399 907.25>
LayerCount: 2
Fore
SplineSet
618 -20 m 0,0,1
 370 -20 370 -20 264 124 c 0,2,3
 190 225 190 225 190 366 c 0,4,5
 190 451 190 451 217 550 c 0,6,7
 286 808 286 808 493 972 c 0,8,9
 680 1120 680 1120 936 1120 c 0,10,11
 1115 1120 1115 1120 1213 997 c 0,12,13
 1279 914 1279 914 1279 804 c 0,14,15
 1279 727 1279 727 1225.5 667 c 128,-1,16
 1172 607 1172 607 1095 607 c 0,17,18
 1014 607 1014 607 962 662 c 0,19,20
 913 714 913 714 913 793 c 0,21,22
 913 870 913 870 970 922 c 0,23,24
 1014 962 1014 962 1094 965 c 1,25,26
 1033 1015 1033 1015 940 1015 c 0,27,28
 802 1015 802 1015 697 886 c 0,29,30
 598 764 598 764 541 550 c 0,31,32
 504 411 504 411 504 316 c 0,33,34
 504 271 504 271 512 235 c 0,35,36
 546 86 546 86 704 86 c 0,37,38
 811 86 811 86 901 140 c 0,39,40
 1003 201 1003 201 1088 284 c 1,41,-1
 1101 284 l 1,42,-1
 1059 128 l 1,43,44
 872 -20 872 -20 618 -20 c 0,0,1
EndSplineSet
Validated: 1
EndChar

StartChar: d
Encoding: 100 100 67
Width: 1220
GlyphClass: 2
Flags: W
HStem: -20 105<551.638 718.125> 0 21G<808.5 1019.5> 1015 105<778.774 969.925> 1490 20G<1203.5 1415.5>
VStem: 188 313<164.527 577.658>
DStem2: 755.205 -20 1054.21 -20 0.258819 0.965926<146.832 948.064 1097.33 1591.16>
LayerCount: 2
Fore
SplineSet
840 0 m 2,0,1
 777 0 777 0 777 50 c 0,2,3
 777 61 777 61 782 80 c 1,4,5
 696 -20 696 -20 559 -20 c 0,6,7
 346 -20 346 -20 240 151 c 0,8,9
 188 235 188 235 188 353 c 0,10,11
 188 442 188 442 217 550 c 0,12,13
 281 788 281 788 448 942 c 0,14,15
 641 1120 641 1120 870 1120 c 0,16,17
 983 1120 983 1120 1039 1040 c 1,18,-1
 1142 1430 l 2,19,20
 1163 1510 1163 1510 1244 1510 c 2,21,-1
 1384 1510 l 2,22,23
 1447 1510 1447 1510 1447 1460 c 0,24,25
 1447 1449 1447 1449 1442 1430 c 2,26,-1
 1081 80 l 2,27,28
 1060 0 1060 0 979 0 c 2,29,-1
 840 0 l 2,0,1
644 85 m 0,30,31
 708 85 708 85 765 148 c 0,32,33
 813 201 813 201 847 327 c 2,34,-1
 966 773 l 2,35,36
 987 850 987 850 987 901 c 0,37,38
 987 932 987 932 979 952 c 0,39,40
 957 1015 957 1015 893 1015 c 0,41,42
 794 1015 794 1015 687 879 c 0,43,44
 594 760 594 760 537 550 c 0,45,46
 501 415 501 415 501 314 c 0,47,48
 501 263 501 263 510 221 c 0,49,50
 541 85 541 85 644 85 c 0,30,31
EndSplineSet
Validated: 1
EndChar

StartChar: e
Encoding: 101 101 68
Width: 1179
GlyphClass: 2
Flags: W
HStem: -20 106<570.015 875.563> 1025 95<773.752 973.331>
VStem: 190 314<173.541 329> 1006 307<642.464 970.203>
DStem2: 516 446 504 329 0.959715 0.280975<0 461.164>
LayerCount: 2
Fore
SplineSet
618 -20 m 0,0,1
 370 -20 370 -20 264 124 c 0,2,3
 190 225 190 225 190 366 c 0,4,5
 190 451 190 451 217 550 c 0,6,7
 286 808 286 808 493 972 c 0,8,9
 680 1120 680 1120 922 1120 c 128,-1,10
 1164 1120 1164 1120 1255 991 c 0,11,12
 1313 909 1313 909 1313 810 c 0,13,14
 1313 760 1313 760 1298 706 c 0,15,16
 1256 549 1256 549 1071 495 c 2,17,-1
 504 329 l 1,18,19
 504 272 504 272 512 235 c 0,20,21
 544 86 544 86 704 86 c 0,22,23
 811 86 811 86 901 140 c 0,24,25
 1003 201 1003 201 1088 284 c 1,26,-1
 1101 284 l 1,27,-1
 1059 128 l 1,28,29
 872 -20 872 -20 618 -20 c 0,0,1
516 446 m 1,30,-1
 831 539 l 2,31,32
 949 574 949 574 984 700 c 0,33,34
 1006 784 1006 784 1006 851 c 0,35,36
 1006 882 1006 882 1001 909 c 0,37,38
 980 1025 980 1025 886.5 1025 c 128,-1,39
 793 1025 793 1025 704 910 c 0,40,41
 603 778 603 778 541 550 c 0,42,43
 524 485 524 485 516 446 c 1,30,-1
EndSplineSet
Validated: 1
EndChar

StartChar: f
Encoding: 102 102 69
Width: 1009
GlyphClass: 2
Flags: W
HStem: -410 21G<98.5 310> 583 120<175.562 316 648 947.109> 1430 100<915.757 1143.82>
VStem: 976 368<1117.84 1343.25>
DStem2: 49.832 -410 349.564 -410 0.258819 0.965926<70.4251 1028.05 1229.89 1798.03>
LayerCount: 2
Fore
SplineSet
130 -410 m 2,0,1
 67 -410 67 -410 67 -360 c 0,2,3
 67 -346 67 -346 71 -331 c 2,4,-1
 316 583 l 1,5,-1
 195 583 l 2,6,7
 163 583 163 583 163 604 c 0,8,9
 163 610 163 610 165 618 c 2,10,-1
 178 668 l 2,11,12
 187 703 187 703 227 703 c 2,13,-1
 348 703 l 1,14,-1
 461 1123 l 2,15,16
 508 1299 508 1299 659 1416 c 0,17,18
 806 1530 806 1530 1008 1530 c 0,19,20
 1188 1530 1188 1530 1278 1425 c 0,21,22
 1344 1349 1344 1349 1344 1250 c 0,23,24
 1344 1162 1344 1162 1288 1105 c 0,25,26
 1235 1051 1235 1051 1157 1051 c 0,27,28
 1073 1051 1073 1051 1024 1104 c 0,29,30
 976 1156 976 1156 976 1229 c 0,31,32
 976 1310 976 1310 1034 1357 c 0,33,34
 1080 1394 1080 1394 1145 1394 c 1,35,36
 1106 1430 1106 1430 1044 1430 c 0,37,38
 956 1430 956 1430 886 1360 c 0,39,40
 803 1277 803 1277 761 1122 c 2,41,-1
 648 703 l 1,42,-1
 927 703 l 2,43,44
 960 703 960 703 960 682 c 0,45,46
 960 676 960 676 958 668 c 2,47,-1
 945 618 l 2,48,49
 936 583 936 583 895 583 c 2,50,-1
 616 583 l 1,51,-1
 371 -330 l 2,52,53
 350 -410 350 -410 270 -410 c 2,54,-1
 130 -410 l 2,0,1
EndSplineSet
Validated: 1
EndChar

StartChar: h
Encoding: 104 104 70
Width: 1271
GlyphClass: 2
Flags: W
HStem: 0 21G<208.5 420 859.5 1071> 978 142<848.4 1122.5> 1490 20G<604.5 816.5>
VStem: 1019 301<621.547 951.818>
DStem2: 159.564 0 459.564 0 0.258819 0.965926<70.3796 1030.15 1089.28 1569.85> 810.564 0 1110.56 0 0.258819 0.965926<70.3796 861.696>
LayerCount: 2
Fore
SplineSet
240 0 m 2,0,1
 177 0 177 0 177 50 c 0,2,3
 177 65 177 65 181 80 c 2,4,-1
 543 1430 l 2,5,6
 564 1510 564 1510 645 1510 c 2,7,-1
 785 1510 l 2,8,9
 848 1510 848 1510 848 1460 c 0,10,11
 848 1449 848 1449 843 1430 c 2,12,-1
 722 977 l 1,13,14
 849 1120 849 1120 1040 1120 c 0,15,16
 1205 1120 1205 1120 1274 1017 c 0,17,18
 1320 948 1320 948 1320 851 c 0,19,20
 1320 785 1320 785 1299 706 c 2,21,-1
 1132 80 l 2,22,23
 1111 0 1111 0 1031 0 c 2,24,-1
 891 0 l 2,25,26
 828 0 828 0 828 50 c 0,27,28
 828 65 828 65 832 80 c 2,29,-1
 998 703 l 2,30,31
 1019 782 1019 782 1019 838 c 0,32,33
 1019 873 1019 873 1011 897 c 0,34,35
 984 978 984 978 893 978 c 0,36,37
 804 978 804 978 727 884 c 0,38,39
 682 829 682 829 648 703 c 2,40,-1
 481 80 l 2,41,42
 460 0 460 0 380 0 c 2,43,-1
 240 0 l 2,0,1
EndSplineSet
Validated: 1
EndChar

StartChar: i
Encoding: 105 105 71
Width: 620
GlyphClass: 2
Flags: W
HStem: 0 21G<207.5 419.5> 1080 20G<494.5 706.5> 1160 370<561.14 798.86>
VStem: 498 364<1222.58 1467.42>
DStem2: 159.564 0 459.564 0 0.258819 0.965926<71.1354 1145.35>
LayerCount: 2
Fore
SplineSet
680 1160 m 128,-1,1
 604 1160 604 1160 551 1214 c 128,-1,2
 498 1268 498 1268 498 1345 c 128,-1,3
 498 1422 498 1422 551 1476 c 128,-1,4
 604 1530 604 1530 680 1530 c 128,-1,5
 756 1530 756 1530 809 1476 c 128,-1,6
 862 1422 862 1422 862 1345 c 128,-1,7
 862 1268 862 1268 809 1214 c 128,-1,0
 756 1160 756 1160 680 1160 c 128,-1,1
239 0 m 2,8,9
 176 0 176 0 176 50 c 0,10,11
 176 61 176 61 181 80 c 2,12,-1
 433 1020 l 2,13,14
 454 1100 454 1100 535 1100 c 2,15,-1
 675 1100 l 2,16,17
 738 1100 738 1100 738 1050 c 0,18,19
 738 1039 738 1039 733 1020 c 2,20,-1
 481 80 l 2,21,22
 460 0 460 0 379 0 c 2,23,-1
 239 0 l 2,8,9
EndSplineSet
Validated: 1
EndChar

StartChar: j
Encoding: 106 106 72
Width: 620
GlyphClass: 2
Flags: W
HStem: -430 21G<-161 90> 1080 20G<494.5 706.5> 1160 370<561.14 798.86>
VStem: 498 364<1222.58 1467.42>
DStem2: 44.7818 -430 344.782 -430 0.258819 0.965926<286.198 1590.4>
LayerCount: 2
Fore
SplineSet
680 1160 m 128,-1,1
 604 1160 604 1160 551 1214 c 128,-1,2
 498 1268 498 1268 498 1345 c 128,-1,3
 498 1422 498 1422 551 1476 c 128,-1,4
 604 1530 604 1530 680 1530 c 128,-1,5
 756 1530 756 1530 809 1476 c 128,-1,6
 862 1422 862 1422 862 1345 c 128,-1,7
 862 1268 862 1268 809 1214 c 128,-1,0
 756 1160 756 1160 680 1160 c 128,-1,1
-165 -430 m 1,8,-1
 -161 -415 l 1,9,10
 77 -309 77 -309 160 0 c 2,11,-1
 433 1020 l 2,12,13
 454 1100 454 1100 535 1100 c 2,14,-1
 675 1100 l 2,15,16
 738 1100 738 1100 738 1050 c 0,17,18
 738 1039 738 1039 733 1020 c 2,19,-1
 460 0 l 2,20,21
 345 -430 345 -430 -165 -430 c 1,8,-1
EndSplineSet
Validated: 1
EndChar

StartChar: l
Encoding: 108 108 73
Width: 620
GlyphClass: 2
Flags: W
HStem: 0 21G<207.5 419.5> 1490 20G<604.5 816.5>
VStem: 176 672
DStem2: 159.564 0 459.564 0 0.258819 0.965926<71.1354 1569.85>
LayerCount: 2
Fore
SplineSet
239 0 m 2,0,1
 176 0 176 0 176 50 c 0,2,3
 176 61 176 61 181 80 c 2,4,-1
 543 1430 l 2,5,6
 564 1510 564 1510 645 1510 c 2,7,-1
 785 1510 l 2,8,9
 848 1510 848 1510 848 1460 c 0,10,11
 848 1449 848 1449 843 1430 c 2,12,-1
 481 80 l 2,13,14
 460 0 460 0 379 0 c 2,15,-1
 239 0 l 2,0,1
EndSplineSet
Validated: 1
EndChar

StartChar: m
Encoding: 109 109 74
Width: 1921
GlyphClass: 2
Flags: W
HStem: 0 21G<208.5 420 858.5 1070 1509.5 1721> 978 142<844.531 1125 1495.47 1772.5> 1080 20G<494.5 706.5>
VStem: 1669 301<621.547 951.818>
DStem2: 159.564 0 459.564 0 0.258819 0.965926<70.3796 1030.15 1083.93 1145.35> 809.564 0 1109.56 0 0.258819 0.965926<70.3796 861.925> 1460.56 0 1760.56 0 0.258819 0.965926<70.3796 861.696>
LayerCount: 2
Fore
SplineSet
240 0 m 2,0,1
 177 0 177 0 177 50 c 0,2,3
 177 65 177 65 181 80 c 2,4,-1
 433 1020 l 2,5,6
 454 1100 454 1100 535 1100 c 2,7,-1
 675 1100 l 2,8,9
 738 1100 738 1100 738 1050 c 0,10,11
 738 1039 738 1039 733 1020 c 2,12,-1
 720 972 l 1,13,14
 840 1120 840 1120 1040 1120 c 0,15,16
 1210 1120 1210 1120 1274 1002 c 0,17,18
 1295 963 1295 963 1303 912 c 1,19,20
 1461 1120 1461 1120 1690 1120 c 0,21,22
 1855 1120 1855 1120 1924 1017 c 0,23,24
 1970 948 1970 948 1970 851 c 0,25,26
 1970 785 1970 785 1949 706 c 2,27,-1
 1782 80 l 2,28,29
 1761 0 1761 0 1681 0 c 2,30,-1
 1541 0 l 2,31,32
 1478 0 1478 0 1478 50 c 0,33,34
 1478 65 1478 65 1482 80 c 2,35,-1
 1648 703 l 2,36,37
 1669 782 1669 782 1669 838 c 0,38,39
 1669 873 1669 873 1661 897 c 0,40,41
 1634 978 1634 978 1543 978 c 0,42,43
 1454 978 1454 978 1377 884 c 0,44,45
 1332 829 1332 829 1298 703 c 2,46,-1
 1131 80 l 2,47,48
 1110 0 1110 0 1030 0 c 2,49,-1
 890 0 l 2,50,51
 827 0 827 0 827 50 c 0,52,53
 827 65 827 65 831 80 c 2,54,-1
 998 703 l 2,55,56
 1019 781 1019 781 1019 838 c 0,57,58
 1019 873 1019 873 1011 897 c 0,59,60
 984 978 984 978 893 978 c 0,61,62
 804 978 804 978 727 884 c 0,63,64
 682 829 682 829 648 703 c 2,65,-1
 481 80 l 2,66,67
 460 0 460 0 380 0 c 2,68,-1
 240 0 l 2,0,1
EndSplineSet
Validated: 1
EndChar

StartChar: n
Encoding: 110 110 75
Width: 1271
GlyphClass: 2
Flags: W
HStem: 0 21G<208.5 420 859.5 1071> 978 142<844.531 1122.5> 1080 20G<494.5 706.5>
VStem: 1019 301<621.547 951.818>
DStem2: 159.564 0 459.564 0 0.258819 0.965926<70.3796 1030.15 1083.93 1145.35> 810.564 0 1110.56 0 0.258819 0.965926<70.3796 861.696>
LayerCount: 2
Fore
SplineSet
240 0 m 2,0,1
 177 0 177 0 177 50 c 0,2,3
 177 65 177 65 181 80 c 2,4,-1
 433 1020 l 2,5,6
 454 1100 454 1100 535 1100 c 2,7,-1
 675 1100 l 2,8,9
 738 1100 738 1100 738 1050 c 0,10,11
 738 1039 738 1039 733 1020 c 2,12,-1
 720 972 l 1,13,14
 840 1120 840 1120 1040 1120 c 0,15,16
 1205 1120 1205 1120 1274 1017 c 0,17,18
 1320 948 1320 948 1320 851 c 0,19,20
 1320 785 1320 785 1299 706 c 2,21,-1
 1132 80 l 2,22,23
 1111 0 1111 0 1031 0 c 2,24,-1
 891 0 l 2,25,26
 828 0 828 0 828 50 c 0,27,28
 828 65 828 65 832 80 c 2,29,-1
 998 703 l 2,30,31
 1019 782 1019 782 1019 838 c 0,32,33
 1019 873 1019 873 1011 897 c 0,34,35
 984 978 984 978 893 978 c 0,36,37
 804 978 804 978 727 884 c 0,38,39
 682 829 682 829 648 703 c 2,40,-1
 481 80 l 2,41,42
 460 0 460 0 380 0 c 2,43,-1
 240 0 l 2,0,1
EndSplineSet
Validated: 1
EndChar

StartChar: o
Encoding: 111 111 76
Width: 1207
GlyphClass: 2
Flags: W
HStem: -20 95<529.339 738.393> 1025 95<762.94 968.523>
VStem: 191 302<172.518 553.432> 1008 302<550.026 927.482>
LayerCount: 2
Fore
SplineSet
623 75 m 128,-1,1
 728 75 728 75 817 204 c 128,-1,2
 906 333 906 333 964 550 c 0,3,4
 1008 712 1008 712 1008 825 c 0,5,6
 1008 864 1008 864 1003 896 c 0,7,8
 983 1025 983 1025 878 1025 c 128,-1,9
 773 1025 773 1025 684 896 c 0,10,11
 597 771 597 771 536 550 c 0,12,13
 493 394 493 394 493 275 c 0,14,15
 493 236 493 236 498 204 c 0,16,0
 518 75 518 75 623 75 c 128,-1,1
598 -20 m 128,-1,18
 366 -20 366 -20 264 124 c 0,19,20
 191 228 191 228 191 369 c 0,21,22
 191 453 191 453 217 550 c 0,23,24
 287 810 287 810 493 976 c 0,25,26
 672 1120 672 1120 903.5 1120 c 128,-1,27
 1135 1120 1135 1120 1237 976 c 0,28,29
 1310 872 1310 872 1310 731 c 0,30,31
 1310 647 1310 647 1284 550 c 0,32,33
 1214 290 1214 290 1008 124 c 0,34,17
 830 -20 830 -20 598 -20 c 128,-1,18
EndSplineSet
Validated: 1
EndChar

StartChar: p
Encoding: 112 112 77
Width: 1219
GlyphClass: 2
Flags: W
HStem: -410 21G<98.5 310.5> -20 105<544.075 735.205> 1015 105<795.875 962.562> 1080 20G<494.5 705.5>
VStem: 1012 311<519.161 937.768>
DStem2: 50.5641 -410 350.564 -410 0.258819 0.965926<71.1354 563.837 713.106 1517.75>
LayerCount: 2
Fore
SplineSet
644 -20 m 0,0,1
 531 -20 531 -20 475 60 c 1,2,-1
 372 -330 l 2,3,4
 351 -410 351 -410 270 -410 c 2,5,-1
 130 -410 l 2,6,7
 67 -410 67 -410 67 -361 c 0,8,9
 67 -349 67 -349 72 -330 c 2,10,-1
 433 1020 l 2,11,12
 454 1100 454 1100 535 1100 c 2,13,-1
 674 1100 l 2,14,15
 737 1100 737 1100 737 1050 c 0,16,17
 737 1039 737 1039 732 1020 c 1,18,19
 818 1120 818 1120 955 1120 c 0,20,21
 1181 1120 1181 1120 1273 949 c 0,22,23
 1323 854 1323 854 1323 736 c 0,24,25
 1323 649 1323 649 1296 550 c 0,26,27
 1232 312 1232 312 1065 158 c 0,28,29
 873 -20 873 -20 644 -20 c 0,0,1
870 1015 m 0,30,31
 806 1015 806 1015 749 952 c 0,32,33
 701 899 701 899 667 773 c 2,34,-1
 548 327 l 2,35,36
 527 250 527 250 527 199 c 0,37,38
 527 168 527 168 535 148 c 0,39,40
 557 85 557 85 621 85 c 0,41,42
 720 85 720 85 827 221 c 0,43,44
 920 340 920 340 976 550 c 0,45,46
 1012 687 1012 687 1012 789 c 0,47,48
 1012 838 1012 838 1004 879 c 0,49,50
 973 1015 973 1015 870 1015 c 0,30,31
EndSplineSet
Validated: 1
EndChar

StartChar: q
Encoding: 113 113 78
Width: 1219
GlyphClass: 2
Flags: W
HStem: -410 21G<698.5 910> -20 105<551.638 745.12> 1015 105<776.805 969.925> 1080 20G<1094.5 1305.5>
VStem: 188 313<164.527 580.191> 987 350<885.628 1075.5>
DStem2: 649.564 -410 949.564 -410 0.258819 0.965926<70.3796 465.838 548.767 1352.12 1501.39 1571.1>
LayerCount: 2
Fore
SplineSet
559 -20 m 0,0,1
 346 -20 346 -20 240 151 c 0,2,3
 188 235 188 235 188 353 c 0,4,5
 188 442 188 442 217 550 c 0,6,7
 281 788 281 788 448 942 c 0,8,9
 641 1120 641 1120 870 1120 c 0,10,11
 983 1120 983 1120 1039 1040 c 1,12,13
 1055 1100 1055 1100 1134 1100 c 2,14,-1
 1274 1100 l 2,15,16
 1337 1100 1337 1100 1337 1051 c 0,17,18
 1337 1039 1337 1039 1332 1020 c 2,19,-1
 971 -330 l 2,20,21
 950 -410 950 -410 870 -410 c 2,22,-1
 730 -410 l 2,23,24
 667 -410 667 -410 667 -360 c 0,25,26
 667 -345 667 -345 671 -330 c 2,27,-1
 770 40 l 1,28,29
 684 -20 684 -20 559 -20 c 0,0,1
644 85 m 0,30,31
 708 85 708 85 765 148 c 0,32,33
 813 201 813 201 847 327 c 2,34,-1
 966 773 l 2,35,36
 987 850 987 850 987 901 c 0,37,38
 987 932 987 932 979 952 c 0,39,40
 957 1015 957 1015 893 1015 c 0,41,42
 786 1015 786 1015 687 879 c 0,43,44
 592 751 592 751 537 550 c 0,45,46
 501 415 501 415 501 314 c 0,47,48
 501 263 501 263 510 221 c 0,49,50
 541 85 541 85 644 85 c 0,30,31
EndSplineSet
Validated: 1
EndChar

StartChar: r
Encoding: 114 114 79
Width: 1010
GlyphClass: 2
Flags: W
HStem: 0 21G<208.5 420> 1022 98<814.036 1034.26> 1080 20G<494.5 705.5>
VStem: 867 368<706.84 931.75>
DStem2: 159.564 0 459.564 0 0.258819 0.965926<70.3796 1039.24>
LayerCount: 2
Fore
SplineSet
240 0 m 2,0,1
 177 0 177 0 177 50 c 0,2,3
 177 65 177 65 181 80 c 2,4,-1
 433 1020 l 2,5,6
 454 1100 454 1100 535 1100 c 2,7,-1
 674 1100 l 2,8,9
 737 1100 737 1100 737 1050 c 1,10,11
 811 1120 811 1120 931 1120 c 0,12,13
 1079 1119 1079 1119 1169 1014 c 0,14,15
 1235 937 1235 937 1235 839 c 0,16,17
 1235 751 1235 751 1179 694 c 0,18,19
 1126 640 1126 640 1048 640 c 0,20,21
 964 640 964 640 915 693 c 0,22,23
 867 745 867 745 867 818 c 0,24,25
 867 899 867 899 925 946 c 0,26,27
 971 983 971 983 1036 983 c 1,28,29
 994 1022 994 1022 933.5 1022 c 128,-1,30
 873 1022 873 1022 822 985 c 0,31,32
 702 901 702 901 648 703 c 2,33,-1
 481 80 l 2,34,35
 460 0 460 0 380 0 c 2,36,-1
 240 0 l 2,0,1
EndSplineSet
Validated: 1
EndChar

StartChar: s
Encoding: 115 115 80
Width: 1056
GlyphClass: 2
Flags: W
HStem: -20 113<352.139 656.748> 1017 103<748.587 912.399>
VStem: 143 364<171.686 410.551> 379 290<746.732 923.992> 781 299<225.368 434.674> 830 310<775.443 991.713>
LayerCount: 2
Fore
SplineSet
529 -20 m 0,0,1
 301 -20 301 -20 198 114 c 0,2,3
 143 187 143 187 143 274 c 0,4,5
 143 366 143 366 188 412 c 0,6,7
 249 473 249 473 325 473 c 128,-1,8
 401 473 401 473 454 419.5 c 128,-1,9
 507 366 507 366 507 290 c 0,10,11
 507 212 507 212 452 160 c 0,12,13
 413 124 413 124 349 116 c 1,14,15
 408 93 408 93 499 93 c 128,-1,16
 590 93 590 93 659 139 c 0,17,18
 749 199 749 199 775 294 c 0,19,20
 781 317 781 317 781 338 c 0,21,22
 781 420 781 420 684 471 c 2,23,-1
 535 549 l 2,24,25
 379 630 379 630 379 773 c 0,26,27
 379 799 379 799 384 826 c 0,28,29
 409 961 409 961 559 1047 c 0,30,31
 687 1120 687 1120 837 1120 c 0,32,33
 1015 1120 1015 1120 1098 1014 c 0,34,35
 1140 961 1140 961 1140 890 c 0,36,37
 1140 820 1140 820 1095 774 c 128,-1,38
 1050 728 1050 728 985 728 c 128,-1,39
 920 728 920 728 875 774 c 128,-1,40
 830 820 830 820 830 887 c 0,41,42
 830 952 830 952 876 993 c 0,43,44
 893 1008 893 1008 915 1014 c 1,45,46
 898 1017 898 1017 879 1017 c 0,47,48
 814 1017 814 1017 762 983 c 0,49,50
 692 937 692 937 673 864 c 0,51,52
 669 848 669 848 669 832 c 0,53,54
 669 759 669 759 767 709 c 2,55,-1
 903 639 l 2,56,57
 1080 549 1080 549 1080 386 c 0,58,59
 1080 360 1080 360 1075 332 c 0,60,61
 1050 175 1050 175 865 68 c 0,62,63
 712 -20 712 -20 529 -20 c 0,0,1
EndSplineSet
Validated: 1
EndChar

StartChar: t
Encoding: 116 116 81
Width: 780
GlyphClass: 2
Flags: W
HStem: 0 21G<288.5 500.5> 980 120<282.891 503 836 1054.44> 1490 20G<685.5 897.5>
DStem2: 240.564 0 540.564 0 0.258819 0.965926<71.1354 1014.53 1216.63 1569.85>
LayerCount: 2
Fore
SplineSet
320 0 m 2,0,1
 257 0 257 0 257 50 c 0,2,3
 257 61 257 61 262 80 c 2,4,-1
 503 980 l 1,5,-1
 303 980 l 2,6,7
 270 980 270 980 270 1001 c 0,8,9
 270 1007 270 1007 272 1015 c 2,10,-1
 285 1065 l 2,11,12
 294 1100 294 1100 335 1100 c 2,13,-1
 536 1100 l 1,14,-1
 624 1430 l 2,15,16
 645 1510 645 1510 726 1510 c 2,17,-1
 866 1510 l 2,18,19
 929 1510 929 1510 929 1460 c 0,20,21
 929 1449 929 1449 924 1430 c 2,22,-1
 836 1100 l 1,23,-1
 1035 1100 l 2,24,25
 1067 1100 1067 1100 1067 1079 c 0,26,27
 1067 1073 1067 1073 1065 1065 c 2,28,-1
 1052 1015 l 2,29,30
 1043 980 1043 980 1003 980 c 2,31,-1
 803 980 l 1,32,-1
 562 80 l 2,33,34
 541 0 541 0 460 0 c 2,35,-1
 320 0 l 2,0,1
EndSplineSet
Validated: 1
EndChar

StartChar: u
Encoding: 117 117 82
Width: 1271
GlyphClass: 2
Flags: W
HStem: -20 142<442.5 720.469> 0 21G<858.5 1070.5> 1080 20G<494 705.5 1145 1356.5>
VStem: 245 301<148.182 478.453>
DStem2: 155.069 -20 455.265 -20 0.258819 0.965926<375.269 1166.8> 805.205 -20 1105.21 -20 0.258819 0.965926<91.841 153.257 207.039 1166.81>
LayerCount: 2
Fore
SplineSet
890 0 m 2,0,1
 827 0 827 0 827 50 c 0,2,3
 827 61 827 61 832 80 c 2,4,-1
 845 128 l 1,5,6
 725 -20 725 -20 525 -20 c 0,7,8
 360 -20 360 -20 291 83 c 0,9,10
 245 152 245 152 245 249 c 0,11,12
 245 315 245 315 266 394 c 2,13,-1
 433 1020 l 2,14,15
 454 1100 454 1100 534 1100 c 2,16,-1
 674 1100 l 2,17,18
 737 1100 737 1100 737 1050 c 0,19,20
 737 1035 737 1035 733 1020 c 2,21,-1
 567 397 l 2,22,23
 546 318 546 318 546 262 c 0,24,25
 546 227 546 227 554 203 c 0,26,27
 581 122 581 122 672 122 c 0,28,29
 761 122 761 122 838 216 c 0,30,31
 883 271 883 271 917 397 c 2,32,-1
 1084 1020 l 2,33,34
 1105 1100 1105 1100 1185 1100 c 2,35,-1
 1325 1100 l 2,36,37
 1388 1100 1388 1100 1388 1050 c 0,38,39
 1388 1035 1388 1035 1384 1020 c 2,40,-1
 1132 80 l 2,41,42
 1111 0 1111 0 1030 0 c 2,43,-1
 890 0 l 2,0,1
EndSplineSet
Validated: 1
EndChar

StartChar: braceleft
Encoding: 123 123 83
Width: 793
GlyphClass: 2
Flags: W
HStem: -200 82<596.652 730.355> 1628 82<1037.45 1219.95>
VStem: 256 292<-70.8905 270.781> 362 298<363.938 680.168>
DStem2: 166.069 -200 466.409 -200 0.258819 0.965926<329.838 796.131 1174.87 1786.02>
LayerCount: 2
Fore
SplineSet
1206 1710 m 0,0,1
 1225 1710 1225 1710 1225 1693 c 0,2,3
 1225 1689 1225 1689 1224 1685 c 2,4,-1
 1216 1653 l 2,5,6
 1210 1628 1210 1628 1184 1628 c 16,7,8
 1091 1628 1091 1628 1016 1574 c 0,9,10
 926 1510 926 1510 869 1301 c 2,11,-1
 795 1027 l 2,12,13
 733 796 733 796 459 755 c 1,14,15
 660 715 660 715 660 562 c 0,16,17
 660 526 660 526 649 483 c 2,18,-1
 576 209 l 2,19,20
 548 105 548 105 548 37 c 0,21,22
 548 -32 548 -32 577 -64 c 0,23,24
 624 -118 624 -118 716 -118 c 0,25,26
 736 -118 736 -118 736 -136 c 0,27,28
 736 -139 736 -139 735 -143 c 2,29,-1
 726 -175 l 2,30,31
 719 -200 719 -200 694 -200 c 16,32,33
 418 -200 418 -200 317 -99 c 0,34,35
 256 -38 256 -38 256 70 c 0,36,37
 256 134 256 134 277 214 c 2,38,-1
 349 482 l 2,39,40
 362 532 362 532 362 573 c 0,41,42
 362 707 362 707 222 755 c 1,43,44
 438 815 438 815 495 1028 c 2,45,-1
 567 1296 l 2,46,47
 624 1509 624 1509 775 1609 c 0,48,49
 927 1710 927 1710 1206 1710 c 0,0,1
EndSplineSet
Validated: 1
EndChar

StartChar: bar
Encoding: 124 124 84
Width: 636
GlyphClass: 2
Flags: W
DStem2: 140.244 -150 415.244 -150 0.258819 0.965926<61.8193 1883.2>
LayerCount: 2
Fore
SplineSet
695 1660 m 2,0,-1
 830 1660 l 2,1,2
 885 1660 885 1660 885 1617 c 0,3,4
 885 1605 885 1605 881 1590 c 2,5,-1
 434 -80 l 2,6,7
 415 -150 415 -150 345 -150 c 2,8,-1
 210 -150 l 2,9,10
 155 -150 155 -150 155 -107 c 0,11,12
 155 -95 155 -95 159 -80 c 2,13,-1
 606 1590 l 2,14,15
 625 1660 625 1660 695 1660 c 2,0,-1
EndSplineSet
Validated: 1
EndChar

StartChar: braceright
Encoding: 125 125 85
Width: 794
GlyphClass: 2
Flags: W
HStem: -200 82<-21.3176 160.097> 1628 82<468.052 602.262>
VStem: 537 299<825.297 1146.06> 651 291<1241.31 1580.6>
DStem2: 220.409 -200 520.069 -200 0.258819 0.965926<269.246 880.471 1257.95 1725.38>
LayerCount: 2
Fore
SplineSet
504 1710 m 16,0,1
 783 1710 783 1710 881 1609 c 0,2,3
 942 1546 942 1546 942 1438 c 0,4,5
 942 1374 942 1374 921 1296 c 2,6,-1
 849 1028 l 2,7,8
 836 980 836 980 836 936 c 0,9,10
 836 801 836 801 976 755 c 1,11,12
 760 693 760 693 703 482 c 2,13,-1
 631 214 l 2,14,15
 573 -1 573 -1 423 -99 c 0,16,17
 268 -200 268 -200 -8 -200 c 0,18,19
 -27 -200 -27 -200 -27 -183 c 0,20,21
 -27 -179 -27 -179 -26 -175 c 2,22,-1
 -17 -143 l 2,23,24
 -10 -118 -10 -118 14 -118 c 16,25,26
 107 -118 107 -118 183 -64 c 0,27,28
 274 0 274 0 330 209 c 2,29,-1
 403 483 l 2,30,31
 462 705 462 705 739 755 c 1,32,33
 537 788 537 788 537 943 c 0,34,35
 537 983 537 983 549 1027 c 2,36,-1
 623 1301 l 2,37,38
 651 1405 651 1405 651 1473 c 0,39,40
 651 1542 651 1542 622 1574 c 0,41,42
 575 1628 575 1628 482 1628 c 0,43,44
 463 1628 463 1628 463 1646 c 0,45,46
 463 1649 463 1649 464 1653 c 2,47,-1
 472 1685 l 2,48,49
 478 1710 478 1710 504 1710 c 16,0,1
EndSplineSet
Validated: 1
EndChar

StartChar: asciitilde
Encoding: 126 126 86
Width: 1213
GlyphClass: 2
Flags: W
HStem: 583 181<944.008 1146.55> 745 181<466.513 675.164>
DStem2: 987 787 631 722 0.89608 -0.443892<-370.762 80.6102>
LayerCount: 2
Fore
SplineSet
640 926 m 0,0,1
 707 926 707 926 772 894 c 2,2,-1
 987 787 l 2,3,4
 1033 764 1033 764 1086 764 c 0,5,6
 1241 764 1241 764 1335 900 c 1,7,-1
 1354 900 l 1,8,9
 1225 583 1225 583 978 583 c 0,10,11
 911 583 911 583 847 615 c 2,12,-1
 631 722 l 2,13,14
 585 745 585 745 532 745 c 0,15,16
 378 745 378 745 283 609 c 1,17,-1
 263 609 l 1,18,19
 381 926 381 926 640 926 c 0,0,1
EndSplineSet
Validated: 1
EndChar

StartChar: exclamdown
Encoding: 161 161 88
Width: 666
VWidth: 1638
GlyphClass: 2
Flags: W
HStem: -430 21G<228.5 306> 750 370<464.14 701.86>
VStem: 92 358<-368.36 -137.354> 401 364<812.578 1057.42>
LayerCount: 2
Fore
SplineSet
267 -430 m 0,0,1
 190 -430 190 -430 138 -376 c 0,2,3
 92 -328 92 -328 92 -257 c 0,4,5
 92 -218 92 -218 112 -169 c 2,6,-1
 453 671 l 2,7,8
 465 700 465 700 498 700 c 2,9,-1
 542 700 l 2,10,11
 572 700 572 700 572 684 c 0,12,13
 572 679 572 679 571 671 c 2,14,-1
 450 -246 l 2,15,16
 438 -337 438 -337 393 -382 c 0,17,18
 345 -430 345 -430 267 -430 c 0,0,1
583 1120 m 128,-1,20
 659 1120 659 1120 712 1066 c 128,-1,21
 765 1012 765 1012 765 935 c 128,-1,22
 765 858 765 858 712 804 c 128,-1,23
 659 750 659 750 583 750 c 128,-1,24
 507 750 507 750 454 804 c 128,-1,25
 401 858 401 858 401 935 c 128,-1,26
 401 1012 401 1012 454 1066 c 128,-1,19
 507 1120 507 1120 583 1120 c 128,-1,20
EndSplineSet
Validated: 1
EndChar

StartChar: cent
Encoding: 162 162 89
Width: 1117
GlyphClass: 2
Flags: W
HStem: -19 105<689 879.97> 607 358<973.722 1094>
VStem: 190 314<172.13 575.186> 913 366<678.399 907.25>
DStem2: 495.282 -150 625.282 -150 0.258819 0.965926<23.4604 139.644 288.832 1164.5 1347.33 1459.39>
LayerCount: 2
Fore
SplineSet
531 -15 m 1,0,1
 350 7 350 7 264 124 c 0,2,3
 190 225 190 225 190 366 c 0,4,5
 190 451 190 451 217 550 c 0,6,7
 286 808 286 808 493 972 c 0,8,9
 641 1089 641 1089 833 1114 c 1,10,-1
 859 1210 l 2,11,12
 870 1250 870 1250 910 1250 c 2,13,-1
 960 1250 l 2,14,15
 992 1250 992 1250 992 1228 c 0,16,17
 992 1221 992 1221 989 1210 c 2,18,-1
 965 1119 l 1,19,20
 1123 1110 1123 1110 1213 997 c 0,21,22
 1279 914 1279 914 1279 804 c 0,23,24
 1279 727 1279 727 1225.5 667 c 128,-1,25
 1172 607 1172 607 1095 607 c 0,26,27
 1014 607 1014 607 962 662 c 0,28,29
 913 714 913 714 913 793 c 0,30,31
 913 870 913 870 970 922 c 0,32,33
 1014 962 1014 962 1094 965 c 1,34,35
 1033 1015 1033 1015 937 1015 c 1,36,-1
 689 86 l 1,37,38
 811 86 811 86 901 140 c 0,39,40
 1003 201 1003 201 1088 284 c 1,41,-1
 1101 284 l 1,42,-1
 1059 128 l 1,43,44
 888 -8 888 -8 660 -19 c 1,45,-1
 636 -110 l 2,46,47
 625 -150 625 -150 585 -150 c 2,48,-1
 535 -150 l 2,49,50
 503 -150 503 -150 503 -128 c 0,51,52
 503 -121 503 -121 506 -110 c 2,53,-1
 531 -15 l 1,0,1
570 129 m 1,54,-1
 796 975 l 1,55,56
 743 943 743 943 697 886 c 0,57,58
 598 764 598 764 541 550 c 0,59,60
 504 411 504 411 504 316 c 0,61,62
 504 271 504 271 512 235 c 0,63,64
 528 166 528 166 570 129 c 1,54,-1
EndSplineSet
Validated: 1
EndChar

StartChar: sterling
Encoding: 163 163 90
Width: 1338
GlyphClass: 2
Flags: W
HStem: -20 105<737.755 1104.23> 35 112<599 831.222> 586 120<236.543 397 749 1007.46> 1425 105<1081.45 1340.16>
VStem: 1004 364<129.566 364.584> 1185 366<1113.69 1349.51>
DStem2: 233.785 -20 554.252 -20 0.258819 0.965926<255.834 627.594 834.61 1291.79>
LayerCount: 2
Fore
SplineSet
243 -20 m 1,0,-1
 237 -8 l 1,1,-1
 397 586 l 1,2,-1
 256 586 l 2,3,4
 223 586 223 586 223 609 c 0,5,6
 223 614 223 614 225 621 c 2,7,-1
 239 671 l 2,8,9
 249 706 249 706 288 706 c 2,10,-1
 429 706 l 1,11,-1
 496 956 l 2,12,13
 572 1239 572 1239 765 1380 c 0,14,15
 970 1530 970 1530 1193 1530 c 0,16,17
 1400 1530 1400 1530 1504 1386 c 0,18,19
 1551 1321 1551 1321 1551 1247 c 0,20,21
 1551 1157 1551 1157 1495 1100 c 0,22,23
 1443 1047 1443 1047 1366.5 1047 c 128,-1,24
 1290 1047 1290 1047 1236 1102 c 0,25,26
 1185 1154 1185 1154 1185 1232 c 0,27,28
 1185 1314 1185 1314 1240 1360 c 0,29,30
 1284 1397 1284 1397 1343 1403 c 1,31,32
 1289 1425 1289 1425 1223 1425 c 0,33,34
 1141 1425 1141 1425 1060 1368 c 0,35,36
 896 1253 896 1253 816 955 c 2,37,-1
 749 706 l 1,38,-1
 988 706 l 2,39,40
 1021 706 1021 706 1021 683 c 0,41,42
 1021 678 1021 678 1019 671 c 2,43,-1
 1005 621 l 2,44,45
 995 586 995 586 956 586 c 2,46,-1
 717 586 l 1,47,-1
 599 147 l 17,48,49
 680 147 680 147 792.5 116 c 128,-1,50
 905 85 905 85 988 85 c 0,51,52
 1042 85 1042 85 1106 98 c 1,53,54
 1079 104 1079 104 1058 121 c 0,55,56
 1004 165 1004 165 1004 245 c 0,57,58
 1004 320 1004 320 1056 373 c 0,59,60
 1110 428 1110 428 1186 428 c 128,-1,61
 1262 428 1262 428 1315 374 c 128,-1,62
 1368 320 1368 320 1368 243 c 0,63,64
 1368 209 1368 209 1355 171 c 0,65,66
 1330 98 1330 98 1246 46 c 0,67,68
 1141 -20 1141 -20 962 -20 c 0,69,70
 855 -20 855 -20 747 8 c 0,71,72
 643 35 643 35 558 35 c 0,73,74
 412 35 412 35 243 -20 c 1,0,-1
EndSplineSet
Validated: 1
EndChar

StartChar: currency
Encoding: 164 164 91
Width: 1525
GlyphClass: 2
Flags: W
HStem: 190 121<738.011 983.906> 1209 121<956.512 1201.87>
VStem: 364 320<396.277 793.149> 1256 320<727.916 1098.87>
DStem2: 215 282 338 114 0.784942 0.61957<0 243.937 1534.32 1733.99>
LayerCount: 2
Fore
SplineSet
1122 1330 m 0,0,1
 1313 1330 1313 1330 1431 1241 c 1,2,-1
 1582 1361 l 1,3,-1
 1705 1193 l 1,4,-1
 1554 1074 l 1,5,6
 1576 1011 1576 1011 1576 935 c 0,7,8
 1576 854 1576 854 1551 760 c 0,9,10
 1497 558 1497 558 1361 420 c 1,11,-1
 1461 283 l 1,12,-1
 1249 114 l 1,13,-1
 1140 262 l 1,14,15
 989 190 989 190 817 190 c 0,16,17
 642 190 642 190 528 265 c 1,18,-1
 338 114 l 1,19,-1
 215 282 l 1,20,-1
 394 424 l 1,21,22
 364 496 364 496 364 584 c 0,23,24
 364 665 364 665 389 760 c 0,25,26
 437 940 437 940 549 1069 c 1,27,-1
 459 1193 l 1,28,-1
 672 1361 l 1,29,-1
 762 1238 l 1,30,31
 928 1330 928 1330 1122 1330 c 0,0,1
849 311 m 128,-1,33
 965 311 965 311 1064 428 c 128,-1,34
 1163 545 1163 545 1221 760 c 0,35,36
 1256 892 1256 892 1256 987 c 0,37,38
 1256 1047 1256 1047 1242 1092 c 0,39,40
 1206 1209 1206 1209 1090 1209 c 0,41,42
 975 1209 975 1209 875 1092 c 0,43,44
 777 975 777 975 719 760 c 0,45,46
 684 630 684 630 684 535 c 0,47,48
 684 474 684 474 698 428 c 0,49,32
 733 311 733 311 849 311 c 128,-1,33
EndSplineSet
Validated: 1
EndChar

StartChar: brokenbar
Encoding: 166 166 92
Width: 635
GlyphClass: 2
Flags: W
DStem2: 140.244 -150 415.244 -150 0.258819 0.965926<61.8193 847.911 1097.11 1883.2>
LayerCount: 2
Fore
SplineSet
427 660 m 2,0,-1
 562 660 l 2,1,2
 617 660 617 660 617 617 c 0,3,4
 617 605 617 605 613 590 c 2,5,-1
 434 -80 l 2,6,7
 415 -150 415 -150 345 -150 c 2,8,-1
 210 -150 l 2,9,10
 155 -150 155 -150 155 -107 c 0,11,12
 155 -95 155 -95 159 -80 c 2,13,-1
 338 590 l 2,14,15
 357 660 357 660 427 660 c 2,0,-1
695 1660 m 2,16,-1
 830 1660 l 2,17,18
 885 1660 885 1660 885 1617 c 0,19,20
 885 1605 885 1605 881 1590 c 2,21,-1
 702 920 l 2,22,23
 683 850 683 850 613 850 c 2,24,-1
 478 850 l 2,25,26
 423 850 423 850 423 893 c 0,27,28
 423 905 423 905 427 920 c 2,29,-1
 606 1590 l 2,30,31
 625 1660 625 1660 695 1660 c 2,16,-1
EndSplineSet
Validated: 1
EndChar

StartChar: section
Encoding: 167 167 93
Width: 1162
GlyphClass: 2
Flags: W
HStem: -20 103<491.901 708.115> 1427 103<857.885 1074.1>
VStem: 256 311<127.775 321.589> 299 264<680.643 861.797> 552 253<1188.14 1347.08> 761 253<162.917 321.856> 999 311<1188.41 1382.23> 1003 264<648.203 829.357>
DStem2: 710 611 495 447 0.888385 -0.459098<-180.816 199.457> 934 1132 707 976 0.888385 -0.459098<-161.781 218.492>
LayerCount: 2
Fore
SplineSet
572 -20 m 0,0,1
 429 -20 429 -20 339 57 c 0,2,3
 256 129 256 129 256 214 c 0,4,5
 256 278 256 278 295 323 c 0,6,7
 341 375 341 375 412 375 c 0,8,9
 486 375 486 375 528 330 c 0,10,11
 567 286 567 286 567 228 c 0,12,13
 567 148 567 148 491 106 c 1,14,15
 524 83 524 83 584 83 c 0,16,17
 647 83 647 83 691 114 c 0,18,19
 740 149 740 149 757 210 c 0,20,21
 761 223 761 223 761 236 c 0,22,23
 761 313 761 313 632 378 c 2,24,-1
 495 447 l 2,25,26
 299 546 299 546 299 711 c 0,27,28
 299 735 299 735 303 759 c 0,29,30
 327 900 327 900 503 1020 c 1,31,-1
 677 919 l 1,32,33
 590 874 590 874 566 785 c 0,34,35
 563 774 563 774 563 764 c 0,36,37
 563 687 563 687 710 611 c 2,38,-1
 859 534 l 2,39,40
 1014 454 1014 454 1014 314 c 0,41,42
 1014 289 1014 289 1009 262 c 0,43,44
 985 135 985 135 853 52 c 0,45,46
 739 -20 739 -20 572 -20 c 0,0,1
994 1530 m 0,47,48
 1137 1530 1137 1530 1227 1453 c 0,49,50
 1310 1381 1310 1381 1310 1296 c 0,51,52
 1310 1232 1310 1232 1271 1187 c 0,53,54
 1225 1135 1225 1135 1154 1135 c 0,55,56
 1079 1135 1079 1135 1038 1180 c 0,57,58
 999 1224 999 1224 999 1282 c 0,59,60
 999 1362 999 1362 1075 1404 c 1,61,62
 1042 1427 1042 1427 982 1427 c 0,63,64
 919 1427 919 1427 875 1396 c 0,65,66
 826 1361 826 1361 809 1300 c 0,67,68
 805 1287 805 1287 805 1274 c 0,69,70
 805 1197 805 1197 934 1132 c 2,71,-1
 1071 1063 l 2,72,73
 1267 964 1267 964 1267 799 c 0,74,75
 1267 775 1267 775 1263 751 c 0,76,77
 1239 610 1239 610 1063 490 c 1,78,-1
 889 591 l 1,79,80
 976 636 976 636 1000 725 c 0,81,82
 1003 736 1003 736 1003 746 c 0,83,84
 1003 823 1003 823 856 899 c 2,85,-1
 707 976 l 2,86,87
 552 1056 552 1056 552 1196 c 0,88,89
 552 1221 552 1221 557 1248 c 0,90,91
 581 1375 581 1375 713 1458 c 0,92,93
 827 1530 827 1530 994 1530 c 0,47,48
EndSplineSet
Validated: 1
EndChar

StartChar: dieresis
Encoding: 168 168 94
Width: 758
GlyphClass: 2
Flags: W
HStem: 1170 314<451.411 668.589 799.411 1016.59>
VStem: 405 310<1217.44 1436.56> 753 310<1217.44 1436.56>
LayerCount: 2
Fore
SplineSet
908 1484 m 128,-1,1
 973 1484 973 1484 1018 1438 c 128,-1,2
 1063 1392 1063 1392 1063 1327 c 128,-1,3
 1063 1262 1063 1262 1018 1216 c 128,-1,4
 973 1170 973 1170 908 1170 c 128,-1,5
 843 1170 843 1170 798 1216 c 128,-1,6
 753 1262 753 1262 753 1327 c 128,-1,7
 753 1392 753 1392 798 1438 c 128,-1,0
 843 1484 843 1484 908 1484 c 128,-1,1
560 1484 m 128,-1,9
 625 1484 625 1484 670 1438 c 128,-1,10
 715 1392 715 1392 715 1327 c 128,-1,11
 715 1262 715 1262 670 1216 c 128,-1,12
 625 1170 625 1170 560 1170 c 128,-1,13
 495 1170 495 1170 450 1216 c 128,-1,14
 405 1262 405 1262 405 1327 c 128,-1,15
 405 1392 405 1392 450 1438 c 128,-1,8
 495 1484 495 1484 560 1484 c 128,-1,9
EndSplineSet
Validated: 1
EndChar

StartChar: guillemotleft
Encoding: 171 171 95
Width: 1218
GlyphClass: 2
Flags: W
DStem2: 507 778 296 730 0.402618 -0.915368<0 508.127> 296 730 507 778 0.681741 0.731594<178.964 840.414> 946 778 735 730 0.402618 -0.915368<0 508.127> 735 730 946 778 0.681741 0.731594<178.964 840.414>
LayerCount: 2
Fore
SplineSet
1318 1336 m 0,0,1
 1331 1336 1331 1336 1341 1328 c 2,2,-1
 1380 1298 l 2,3,4
 1392 1289 1392 1289 1392 1275 c 0,5,6
 1392 1258 1392 1258 1377 1242 c 2,7,-1
 946 778 l 1,8,-1
 1145 344 l 2,9,10
 1152 329 1152 329 1152 313 c 0,11,12
 1152 286 1152 286 1110 258 c 2,13,-1
 1040 212 l 2,14,15
 1016 196 1016 196 996 196 c 0,16,17
 970 196 970 196 958 223 c 2,18,-1
 735 730 l 1,19,-1
 1282 1317 l 2,20,21
 1300 1336 1300 1336 1318 1336 c 0,0,1
879 1336 m 0,22,23
 892 1336 892 1336 902 1328 c 2,24,-1
 941 1298 l 2,25,26
 953 1289 953 1289 953 1275 c 0,27,28
 953 1258 953 1258 938 1242 c 2,29,-1
 507 778 l 1,30,-1
 706 344 l 2,31,32
 713 329 713 329 713 313 c 0,33,34
 713 286 713 286 671 258 c 2,35,-1
 601 212 l 2,36,37
 577 196 577 196 557 196 c 0,38,39
 531 196 531 196 519 223 c 2,40,-1
 296 730 l 1,41,-1
 843 1317 l 2,42,43
 861 1336 861 1336 879 1336 c 0,22,23
EndSplineSet
Validated: 1
EndChar

StartChar: logicalnot
Encoding: 172 172 96
Width: 1271
GlyphClass: 2
Flags: W
HStem: 649 211<322.661 1082>
DStem2: 866 393 1049 390 0.643099 0.765783<24.707 334.95>
LayerCount: 2
Fore
SplineSet
396 860 m 2,0,-1
 1345 860 l 2,1,2
 1390 860 1390 860 1390 817 c 0,3,4
 1390 796 1390 796 1374 777 c 2,5,-1
 1049 390 l 2,6,7
 1015 349 1015 349 974 349 c 2,8,-1
 874 349 l 2,9,10
 854 349 854 349 854 366 c 0,11,12
 854 379 854 379 866 393 c 2,13,-1
 1082 649 l 1,14,-1
 339 649 l 2,15,16
 287 649 287 649 287 689 c 0,17,18
 287 701 287 701 291 714 c 2,19,-1
 314 795 l 2,20,21
 333 860 333 860 396 860 c 2,0,-1
EndSplineSet
Validated: 1
EndChar

StartChar: uni00AD
Encoding: 173 173 97
Width: 1273
GlyphClass: 2
Flags: W
HStem: 649 211<321.328 1355.67>
LayerCount: 2
Fore
SplineSet
395 860 m 2,0,-1
 1338 860 l 2,1,2
 1390 860 1390 860 1390 819 c 0,3,4
 1390 808 1390 808 1386 795 c 2,5,-1
 1364 714 l 2,6,7
 1347 649 1347 649 1282 649 c 2,8,-1
 339 649 l 2,9,10
 287 649 287 649 287 690 c 0,11,12
 287 701 287 701 291 714 c 2,13,-1
 313 795 l 2,14,15
 330 860 330 860 395 860 c 2,0,-1
EndSplineSet
Validated: 1
EndChar

StartChar: registered
Encoding: 174 174 98
Width: 1318
GlyphClass: 2
Flags: W
HStem: 382 77<630.415 1001.31> 1116 21G<558 655.5> 1304 71<819.229 1050.4> 1449 77<827.688 1202.37>
VStem: 345 82<655.426 1051.31> 1084 211<1006.1 1279.92> 1402 82<856.688 1252.57>
DStem2: 497.529 382 697.529 382 0.258819 0.965926<266.307 521.474 584.776 870.201>
LayerCount: 2
Fore
SplineSet
503 598 m 1,0,1
 612 459 612 459 810 459 c 0,2,3
 1000 459 1000 459 1172 600 c 0,4,5
 1350 746 1350 746 1391 959 c 0,6,7
 1402 1016 1402 1016 1402 1063 c 0,8,9
 1402 1209 1402 1209 1326 1310 c 0,10,11
 1220 1449 1220 1449 1019 1449 c 0,12,13
 829 1449 829 1449 657 1308 c 0,14,15
 479 1162 479 1162 438 949 c 0,16,17
 427 892 427 892 427 845 c 0,18,19
 427 697 427 697 503 598 c 1,0,1
1020 1526 m 0,20,21
 1262 1526 1262 1526 1389 1364 c 0,22,23
 1484 1243 1484 1243 1484 1093 c 0,24,25
 1484 1015 1484 1015 1475 960 c 0,26,27
 1435 714 1435 714 1236 549 c 0,28,29
 1034 382 1034 382 809 382 c 0,30,31
 567 382 567 382 440 544 c 0,32,33
 345 665 345 665 345 815 c 0,34,35
 345 893 345 893 354 948 c 0,36,37
 394 1195 394 1195 593 1359 c 0,38,39
 795 1526 795 1526 1020 1526 c 0,20,21
616 600 m 2,40,41
 566 600 566 600 566 631 c 0,42,43
 566 637 566 637 568 645 c 2,44,-1
 707 1167 l 2,45,46
 719 1212 719 1212 779 1212 c 2,47,-1
 859 1212 l 2,48,49
 909 1212 909 1212 909 1181 c 0,50,51
 909 1174 909 1174 907 1167 c 2,52,-1
 844 934 l 1,53,54
 844 884 844 884 893 884 c 0,55,56
 926 884 926 884 956 906 c 0,57,58
 1038 967 1038 967 1069 1081 c 0,59,60
 1084 1136 1084 1136 1084 1178 c 0,61,62
 1084 1304 1084 1304 947 1304 c 0,63,64
 735 1304 735 1304 576 1116 c 1,65,-1
 558 1124 l 1,66,67
 731 1375 731 1375 1018 1375 c 0,68,69
 1188 1375 1188 1375 1253 1292 c 0,70,71
 1295 1238 1295 1238 1295 1165 c 0,72,73
 1295 1136 1295 1136 1288 1104 c 0,74,75
 1263 992 1263 992 1187 926 c 0,76,77
 1109 859 1109 859 1014 835 c 1,78,79
 1076 829 1076 829 1107 754 c 2,80,-1
 1152 645 l 2,81,82
 1154 640 1154 640 1154 631 c 0,83,84
 1154 600 1154 600 1104 600 c 2,85,-1
 1024 600 l 2,86,87
 970 600 970 600 952 645 c 2,88,-1
 915 739 l 2,89,90
 887 811 887 811 834 831 c 0,91,92
 826 834 826 834 818 836 c 1,93,-1
 768 645 l 2,94,95
 756 600 756 600 696 600 c 2,96,-1
 616 600 l 2,40,41
EndSplineSet
Validated: 1
EndChar

StartChar: macron
Encoding: 175 175 99
Width: 770
GlyphClass: 2
Flags: W
HStem: 1230 161<410.969 1061.03>
LayerCount: 2
Fore
SplineSet
463 1391 m 2,0,-1
 1053 1391 l 2,1,2
 1084 1391 1084 1391 1084 1367 c 0,3,4
 1084 1358 1084 1358 1082 1351 c 2,5,-1
 1060 1270 l 2,6,7
 1049 1230 1049 1230 1010 1230 c 2,8,-1
 420 1230 l 2,9,10
 388 1230 388 1230 388 1255 c 0,11,12
 388 1263 388 1263 390 1270 c 2,13,-1
 412 1351 l 2,14,15
 423 1391 423 1391 463 1391 c 2,0,-1
EndSplineSet
Validated: 1
EndChar

StartChar: degree
Encoding: 176 176 100
Width: 680
GlyphClass: 2
Flags: W
HStem: 1019 52<568.107 699.95> 1542 52<682.765 812.051>
VStem: 388 164<1096.48 1371.32> 827 165<1242.42 1501.33>
LayerCount: 2
Fore
SplineSet
767 1594 m 0,0,1
 875 1594 875 1594 940 1524 c 0,2,3
 992 1468 992 1468 992 1388 c 0,4,5
 992 1350 992 1350 980 1306 c 0,6,7
 942 1166 942 1166 824 1088 c 0,8,9
 721 1019 721 1019 614 1019 c 0,10,11
 504 1019 504 1019 440 1088 c 0,12,13
 388 1144 388 1144 388 1225 c 0,14,15
 388 1263 388 1263 400 1307 c 0,16,17
 436 1442 436 1442 556 1524 c 0,18,19
 658 1594 658 1594 767 1594 c 0,0,1
753 1542 m 0,20,21
 697 1542 697 1542 655 1488 c 0,22,23
 610 1431 610 1431 576 1307 c 0,24,25
 552 1218 552 1218 552 1162 c 0,26,27
 552 1140 552 1140 556 1124 c 0,28,29
 568 1071 568 1071 627.5 1071 c 128,-1,30
 687 1071 687 1071 726 1124 c 0,31,32
 768 1181 768 1181 802 1306 c 0,33,34
 827 1401 827 1401 827 1455 c 0,35,36
 827 1474 827 1474 824 1488 c 0,37,38
 812 1542 812 1542 753 1542 c 0,20,21
EndSplineSet
Validated: 1
EndChar

StartChar: plusminus
Encoding: 177 177 101
Width: 1274
GlyphClass: 2
Flags: W
HStem: 130 211<183.328 1217.67> 801 211<362.328 746 1013 1396.67>
DStem2: 566.275 130 777.275 130 0.258819 0.965926<292.947 694.652 967.567 1369.6>
LayerCount: 2
Fore
SplineSet
983 1443 m 2,0,-1
 1064 1443 l 2,1,2
 1116 1443 1116 1443 1116 1402 c 0,3,4
 1116 1391 1116 1391 1112 1378 c 2,5,-1
 1013 1012 l 1,6,-1
 1379 1012 l 2,7,8
 1431 1012 1431 1012 1431 971 c 0,9,10
 1431 960 1431 960 1427 947 c 2,11,-1
 1405 866 l 2,12,13
 1388 801 1388 801 1323 801 c 2,14,-1
 957 801 l 1,15,-1
 859 435 l 2,16,17
 842 370 842 370 776 370 c 2,18,-1
 695 370 l 2,19,20
 644 370 644 370 644 410 c 0,21,22
 644 421 644 421 648 435 c 2,23,-1
 746 801 l 1,24,-1
 380 801 l 2,25,26
 328 801 328 801 328 842 c 0,27,28
 328 853 328 853 332 866 c 2,29,-1
 354 947 l 2,30,31
 371 1012 371 1012 436 1012 c 2,32,-1
 802 1012 l 1,33,-1
 901 1378 l 2,34,35
 918 1443 918 1443 983 1443 c 2,0,-1
257 341 m 2,36,-1
 1200 341 l 2,37,38
 1252 341 1252 341 1252 300 c 0,39,40
 1252 289 1252 289 1248 276 c 2,41,-1
 1226 195 l 2,42,43
 1209 130 1209 130 1144 130 c 2,44,-1
 201 130 l 2,45,46
 149 130 149 130 149 171 c 0,47,48
 149 182 149 182 153 195 c 2,49,-1
 175 276 l 2,50,51
 192 341 192 341 257 341 c 2,36,-1
EndSplineSet
Validated: 1
EndChar

StartChar: acute
Encoding: 180 180 102
Width: 464
GlyphClass: 2
Flags: W
HStem: 1160 348
VStem: 367 422
LayerCount: 2
Fore
SplineSet
682 1508 m 0,0,1
 747 1508 747 1508 775 1458 c 0,2,3
 789 1433 789 1433 789 1398 c 0,4,5
 789 1306 789 1306 680 1267 c 2,6,-1
 381 1160 l 1,7,-1
 367 1184 l 1,8,-1
 578 1450 l 2,9,10
 624 1508 624 1508 682 1508 c 0,0,1
EndSplineSet
Validated: 1
EndChar

StartChar: uni00B5
Encoding: 181 181 103
Width: 1271
GlyphClass: 2
Flags: W
HStem: -430 21G<347 559> -20 142<508.5 720.469> 0 21G<858.5 1070.5> 1080 20G<494 705.5 1145 1356.5>
VStem: 139 293<-299.792 -15.6483>
DStem2: 44.7818 -430 344.533 -430 0.258819 0.965926<348.709 514.829 799.843 1591.37> 695.346 -430 995.346 -430 0.258819 0.965926<516.304 577.72 631.502 1591.27>
LayerCount: 2
Fore
SplineSet
890 0 m 2,0,1
 827 0 827 0 827 50 c 0,2,3
 827 62 827 62 832 80 c 2,4,-1
 845 128 l 1,5,6
 725 -20 725 -20 525 -20 c 0,7,8
 492 -20 492 -20 456 -14 c 1,9,10
 432 -103 432 -103 432 -175 c 0,11,12
 432 -341 432 -341 559 -415 c 1,13,-1
 555 -430 l 1,14,15
 139 -430 139 -430 139 -144 c 0,16,17
 139 -78 139 -78 160 0 c 2,18,-1
 433 1020 l 2,19,20
 454 1100 454 1100 534 1100 c 2,21,-1
 674 1100 l 2,22,23
 737 1100 737 1100 737 1050 c 0,24,25
 737 1035 737 1035 733 1020 c 2,26,-1
 567 397 l 2,27,28
 546 318 546 318 546 262 c 0,29,30
 546 227 546 227 554 203 c 0,31,32
 581 122 581 122 672 122 c 0,33,34
 761 122 761 122 838 216 c 0,35,36
 883 271 883 271 917 397 c 2,37,-1
 1084 1020 l 2,38,39
 1105 1100 1105 1100 1185 1100 c 2,40,-1
 1325 1100 l 2,41,42
 1388 1100 1388 1100 1388 1050 c 0,43,44
 1388 1035 1388 1035 1384 1020 c 2,45,-1
 1132 80 l 2,46,47
 1111 0 1111 0 1030 0 c 2,48,-1
 890 0 l 2,0,1
EndSplineSet
Validated: 1
EndChar

StartChar: paragraph
Encoding: 182 182 104
Width: 1102
GlyphClass: 2
Flags: W
HStem: 0 85<736 836> 1510 20G<896 1130>
DStem2: 601.564 0 713.224 0 0.258819 0.965926<116.898 755.967> 813.224 0 921.564 0 0.258819 0.965926<87.9985 1287.74>
LayerCount: 2
Fore
SplineSet
682 0 m 2,0,1
 619 0 619 0 619 50 c 0,2,3
 619 63 619 63 623 80 c 2,4,-1
 798 730 l 1,5,6
 566 730 566 730 472 818 c 0,7,8
 387 898 387 898 387 1020 c 0,9,10
 387 1074 387 1074 404 1136 c 0,11,12
 459 1342 459 1342 654 1449 c 0,13,14
 801 1530 801 1530 991 1530 c 0,15,16
 1269 1530 1269 1530 1269 1340 c 0,17,18
 1269 1297 1269 1297 1255 1244 c 2,19,-1
 943 80 l 2,20,21
 922 0 922 0 842 0 c 2,22,-1
 682 0 l 2,0,1
836 85 m 1,23,-1
 1146 1244 l 1,24,-1
 1046 1244 l 1,25,-1
 736 85 l 1,26,-1
 836 85 l 1,23,-1
EndSplineSet
Validated: 1
EndChar

StartChar: periodcentered
Encoding: 183 183 105
Width: 464
GlyphClass: 2
Flags: W
HStem: 569 370<315.14 552.86>
VStem: 252 364<631.578 876.422>
LayerCount: 2
Fore
SplineSet
434 569 m 128,-1,1
 358 569 358 569 305 623 c 128,-1,2
 252 677 252 677 252 754 c 128,-1,3
 252 831 252 831 305 885 c 128,-1,4
 358 939 358 939 434 939 c 128,-1,5
 510 939 510 939 563 885 c 128,-1,6
 616 831 616 831 616 754 c 128,-1,7
 616 677 616 677 563 623 c 128,-1,0
 510 569 510 569 434 569 c 128,-1,1
EndSplineSet
Validated: 1
EndChar

StartChar: cedilla
Encoding: 184 184 106
Width: 435
GlyphClass: 2
Flags: W
HStem: -430 138<-40.2197 105.86> -107 107<59 114.21>
VStem: 137 195<-260.566 -129.627>
LayerCount: 2
Fore
SplineSet
59 0 m 1,0,-1
 209 0 l 1,1,-1
 199 -39 l 1,2,3
 253 -49 253 -49 289 -82 c 0,4,5
 332 -121 332 -121 332 -176 c 0,6,7
 332 -197 332 -197 326 -221 c 0,8,9
 305 -298 305 -298 231 -356 c 0,10,11
 136 -430 136 -430 -30 -430 c 0,12,13
 -58 -430 -58 -430 -58 -408 c 0,14,15
 -58 -403 -58 -403 -56 -395 c 2,16,-1
 -38 -327 l 2,17,18
 -29 -292 -29 -292 10 -292 c 0,19,20
 55 -292 55 -292 89 -265 c 0,21,22
 124 -237 124 -237 134 -197 c 0,23,24
 137 -186 137 -186 137 -176 c 0,25,26
 137 -149 137 -149 115 -129 c 0,27,28
 90 -107 90 -107 30 -107 c 1,29,-1
 59 0 l 1,0,-1
EndSplineSet
Validated: 1
EndChar

StartChar: guillemotright
Encoding: 187 187 107
Width: 1218
GlyphClass: 2
Flags: W
DStem2: 252 290 347 215 0.681741 0.731594<-28.1602 633.29> 894 802 683 754 0.402618 -0.915368<-549.142 -41.0146> 691 290 786 215 0.681741 0.731594<-28.1602 633.29> 1333 802 1122 754 0.402618 -0.915368<-549.142 -41.0146>
LayerCount: 2
Fore
SplineSet
633 1336 m 0,0,1
 659 1336 659 1336 671 1309 c 2,2,-1
 894 802 l 1,3,-1
 347 215 l 2,4,5
 329 196 329 196 311 196 c 0,6,7
 298 196 298 196 288 204 c 2,8,-1
 249 234 l 2,9,10
 237 243 237 243 237 257 c 0,11,12
 237 274 237 274 252 290 c 2,13,-1
 683 754 l 1,14,-1
 484 1188 l 2,15,16
 477 1203 477 1203 477 1219 c 0,17,18
 477 1246 477 1246 519 1274 c 2,19,-1
 589 1320 l 2,20,21
 613 1336 613 1336 633 1336 c 0,0,1
1072 1336 m 0,22,23
 1098 1336 1098 1336 1110 1309 c 2,24,-1
 1333 802 l 1,25,-1
 786 215 l 2,26,27
 768 196 768 196 750 196 c 0,28,29
 737 196 737 196 727 204 c 2,30,-1
 688 234 l 2,31,32
 676 243 676 243 676 257 c 0,33,34
 676 274 676 274 691 290 c 2,35,-1
 1122 754 l 1,36,-1
 923 1188 l 2,37,38
 916 1203 916 1203 916 1219 c 0,39,40
 916 1246 916 1246 958 1274 c 2,41,-1
 1028 1320 l 2,42,43
 1052 1336 1052 1336 1072 1336 c 0,22,23
EndSplineSet
Validated: 1
EndChar

StartChar: questiondown
Encoding: 191 191 108
Width: 1269
VWidth: 1638
GlyphClass: 2
Flags: W
HStem: -428 126<480.723 758.922> 752 370<835.14 1072.86>
VStem: 85 341<-247.863 60.8115> 772 364<814.578 1059.42> 814 364<-88.6094 156.41>
LayerCount: 2
Fore
SplineSet
954 1122 m 128,-1,1
 1030 1122 1030 1122 1083 1068 c 128,-1,2
 1136 1014 1136 1014 1136 937 c 128,-1,3
 1136 860 1136 860 1083 806 c 128,-1,4
 1030 752 1030 752 954 752 c 128,-1,5
 878 752 878 752 825 806 c 128,-1,6
 772 860 772 860 772 937 c 128,-1,7
 772 1014 772 1014 825 1068 c 128,-1,0
 878 1122 878 1122 954 1122 c 128,-1,1
499 -428 m 0,8,9
 249 -428 249 -428 151 -303 c 0,10,11
 85 -219 85 -219 85 -108 c 0,12,13
 85 -63 85 -63 96 -13 c 0,14,15
 148 221 148 221 401 372 c 2,16,-1
 722 564 l 2,17,18
 798 610 798 610 814 668 c 0,19,20
 823 702 823 702 862 702 c 2,21,-1
 926 702 l 2,22,23
 958 702 958 702 958 680 c 0,24,25
 958 676 958 676 956 668 c 0,26,27
 920 525 920 525 810 433 c 2,28,-1
 686 329 l 2,29,30
 489 164 489 164 440 -18 c 0,31,32
 426 -70 426 -70 426 -113 c 0,33,34
 426 -166 426 -166 446 -211 c 0,35,36
 487 -302 487 -302 614 -302 c 0,37,38
 720 -302 720 -302 814 -252 c 0,39,40
 906 -203 906 -203 970 -142 c 1,41,42
 910 -138 910 -138 867 -97 c 0,43,44
 814 -46 814 -46 814 32 c 0,45,46
 814 111 814 111 867 165 c 128,-1,47
 920 219 920 219 996 219 c 128,-1,48
 1072 219 1072 219 1125 165 c 128,-1,49
 1178 111 1178 111 1178 34 c 0,50,51
 1178 -40 1178 -40 1132 -105 c 0,52,53
 1066 -198 1066 -198 962 -275 c 0,54,55
 756 -428 756 -428 499 -428 c 0,8,9
EndSplineSet
Validated: 1
EndChar

StartChar: endash
Encoding: 8211 8211 109
Width: 1274
GlyphClass: 2
Flags: W
HStem: 649 211<322.328 1356.67>
LayerCount: 2
Fore
SplineSet
396 860 m 2,0,-1
 1339 860 l 2,1,2
 1391 860 1391 860 1391 819 c 0,3,4
 1391 808 1391 808 1387 795 c 2,5,-1
 1365 714 l 2,6,7
 1348 649 1348 649 1283 649 c 2,8,-1
 340 649 l 2,9,10
 288 649 288 649 288 690 c 0,11,12
 288 701 288 701 292 714 c 2,13,-1
 314 795 l 2,14,15
 331 860 331 860 396 860 c 2,0,-1
EndSplineSet
Validated: 1
EndChar

StartChar: emdash
Encoding: 8212 8212 110
Width: 1553
GlyphClass: 2
Flags: W
HStem: 649 211<321.328 1635.67>
LayerCount: 2
Fore
SplineSet
395 860 m 2,0,-1
 1618 860 l 2,1,2
 1670 860 1670 860 1670 819 c 0,3,4
 1670 810 1670 810 1666 795 c 2,5,-1
 1644 714 l 2,6,7
 1626 649 1626 649 1562 649 c 2,8,-1
 339 649 l 2,9,10
 287 649 287 649 287 690 c 0,11,12
 287 699 287 699 291 714 c 2,13,-1
 313 795 l 2,14,15
 331 860 331 860 395 860 c 2,0,-1
EndSplineSet
Validated: 1
EndChar

StartChar: afii00208
Encoding: 8213 8213 111
Width: 1553
GlyphClass: 2
Flags: W
HStem: 649 211<321.328 1635.67>
LayerCount: 2
Fore
SplineSet
395 860 m 2,0,-1
 1618 860 l 2,1,2
 1670 860 1670 860 1670 819 c 0,3,4
 1670 810 1670 810 1666 795 c 2,5,-1
 1644 714 l 2,6,7
 1626 649 1626 649 1562 649 c 2,8,-1
 339 649 l 2,9,10
 287 649 287 649 287 690 c 0,11,12
 287 699 287 699 291 714 c 2,13,-1
 313 795 l 2,14,15
 331 860 331 860 395 860 c 2,0,-1
EndSplineSet
Validated: 1
EndChar

StartChar: quoteleft
Encoding: 8216 8216 112
Width: 513
GlyphClass: 2
Flags: W
HStem: 1486 30<832.73 891>
VStem: 383 386<1074.06 1306.74>
LayerCount: 2
Fore
SplineSet
529 1008 m 0,0,1
 450 1029 450 1029 411 1098 c 0,2,3
 383 1148 383 1148 383 1208 c 0,4,5
 383 1245 383 1245 394 1285 c 0,6,7
 426 1403 426 1403 532 1477 c 0,8,9
 622 1539 622 1539 743 1539 c 0,10,11
 815 1539 815 1539 899 1516 c 1,12,-1
 891 1486 l 1,13,14
 798 1474 798 1474 726 1440 c 0,15,16
 670 1412 670 1412 633 1363 c 1,17,18
 709 1343 709 1343 746 1279 c 0,19,20
 769 1239 769 1239 769 1194 c 0,21,22
 769 1168 769 1168 761 1139 c 0,23,24
 741 1063 741 1063 677 1024 c 0,25,26
 636 1000 636 1000 588 1000 c 0,27,28
 560 1000 560 1000 529 1008 c 0,0,1
EndSplineSet
Validated: 1
EndChar

StartChar: quoteright
Encoding: 8217 8217 113
Width: 513
GlyphClass: 2
Flags: W
HStem: 1057 30<311 369.27>
VStem: 433 386<1266.26 1498.94>
LayerCount: 2
Fore
SplineSet
673 1565 m 0,0,1
 752 1544 752 1544 791 1475 c 0,2,3
 819 1425 819 1425 819 1365 c 0,4,5
 819 1328 819 1328 808 1288 c 0,6,7
 776 1170 776 1170 670 1096 c 0,8,9
 580 1034 580 1034 459 1034 c 0,10,11
 387 1034 387 1034 303 1057 c 1,12,-1
 311 1087 l 1,13,14
 404 1099 404 1099 476 1133 c 0,15,16
 532 1161 532 1161 569 1210 c 1,17,18
 493 1230 493 1230 456 1294 c 0,19,20
 433 1334 433 1334 433 1379 c 0,21,22
 433 1405 433 1405 441 1434 c 0,23,24
 461 1510 461 1510 525 1549 c 0,25,26
 566 1573 566 1573 614 1573 c 0,27,28
 642 1573 642 1573 673 1565 c 0,0,1
EndSplineSet
Validated: 1
EndChar

StartChar: quotesinglbase
Encoding: 8218 8218 114
Width: 513
GlyphClass: 2
Flags: W
HStem: -172 30<-18 40.2695>
VStem: 104 386<37.2617 269.944>
LayerCount: 2
Fore
SplineSet
344 336 m 0,0,1
 423 315 423 315 462 246 c 0,2,3
 490 196 490 196 490 136 c 0,4,5
 490 99 490 99 479 59 c 0,6,7
 447 -59 447 -59 341 -133 c 0,8,9
 251 -195 251 -195 130 -195 c 0,10,11
 58 -195 58 -195 -26 -172 c 1,12,-1
 -18 -142 l 1,13,14
 75 -130 75 -130 147 -96 c 0,15,16
 203 -68 203 -68 240 -19 c 1,17,18
 164 1 164 1 127 65 c 0,19,20
 104 105 104 105 104 150 c 0,21,22
 104 176 104 176 112 205 c 0,23,24
 132 281 132 281 196 320 c 0,25,26
 237 344 237 344 285 344 c 0,27,28
 313 344 313 344 344 336 c 0,0,1
EndSplineSet
Validated: 1
EndChar

StartChar: quotereversed
Encoding: 8219 8219 115
Width: 543
GlyphClass: 2
Flags: W
HStem: 941 30<739.098 749.823> 1199 374<593.216 756.819>
VStem: 413 410<1263.47 1473.09>
LayerCount: 2
Fore
SplineSet
679 1566 m 0,0,1
 763 1543 763 1543 800 1478 c 0,2,3
 823 1436 823 1436 823 1390 c 0,4,5
 823 1364 823 1364 815 1336 c 0,6,7
 794 1259 794 1259 732 1223 c 0,8,9
 691 1199 691 1199 645 1199 c 0,10,11
 619 1199 619 1199 592 1206 c 1,12,13
 600 1146 600 1146 635 1094 c 0,14,15
 679 1028 679 1028 754 971 c 1,16,-1
 746 941 l 1,17,18
 524 1001 524 1001 448 1158 c 0,19,20
 413 1233 413 1233 413 1308 c 0,21,22
 413 1351 413 1351 424 1393 c 0,23,24
 453 1501 453 1501 532 1547 c 0,25,26
 577 1573 577 1573 627 1573 c 0,27,28
 652 1573 652 1573 679 1566 c 0,0,1
EndSplineSet
Validated: 1
EndChar

StartChar: quotedblleft
Encoding: 8220 8220 116
Width: 971
GlyphClass: 2
Flags: W
HStem: 1486 30<832.73 891 1290.73 1349>
VStem: 383 386<1074.06 1306.74> 841 386<1074.06 1306.74>
LayerCount: 2
Fore
SplineSet
987 1008 m 0,0,1
 908 1029 908 1029 869 1098 c 0,2,3
 841 1148 841 1148 841 1208 c 0,4,5
 841 1245 841 1245 852 1285 c 0,6,7
 884 1403 884 1403 990 1477 c 0,8,9
 1080 1539 1080 1539 1201 1539 c 0,10,11
 1273 1539 1273 1539 1357 1516 c 1,12,-1
 1349 1486 l 1,13,14
 1256 1474 1256 1474 1184 1440 c 0,15,16
 1128 1412 1128 1412 1091 1363 c 1,17,18
 1167 1343 1167 1343 1204 1279 c 0,19,20
 1227 1239 1227 1239 1227 1194 c 0,21,22
 1227 1168 1227 1168 1219 1139 c 0,23,24
 1199 1063 1199 1063 1135 1024 c 0,25,26
 1094 1000 1094 1000 1046 1000 c 0,27,28
 1018 1000 1018 1000 987 1008 c 0,0,1
529 1008 m 0,29,30
 450 1029 450 1029 411 1098 c 0,31,32
 383 1148 383 1148 383 1208 c 0,33,34
 383 1245 383 1245 394 1285 c 0,35,36
 426 1403 426 1403 532 1477 c 0,37,38
 622 1539 622 1539 743 1539 c 0,39,40
 815 1539 815 1539 899 1516 c 1,41,-1
 891 1486 l 1,42,43
 798 1474 798 1474 726 1440 c 0,44,45
 670 1412 670 1412 633 1363 c 1,46,47
 709 1343 709 1343 746 1279 c 0,48,49
 769 1239 769 1239 769 1194 c 0,50,51
 769 1168 769 1168 761 1139 c 0,52,53
 741 1063 741 1063 677 1024 c 0,54,55
 636 1000 636 1000 588 1000 c 0,56,57
 560 1000 560 1000 529 1008 c 0,29,30
EndSplineSet
Validated: 1
EndChar

StartChar: quotedblright
Encoding: 8221 8221 117
Width: 956
GlyphClass: 2
Flags: W
HStem: 1057 30<311 369.27 754 812.27>
VStem: 433 386<1266.26 1498.94> 876 386<1266.26 1498.94>
LayerCount: 2
Fore
SplineSet
1116 1565 m 0,0,1
 1195 1544 1195 1544 1234 1475 c 0,2,3
 1262 1425 1262 1425 1262 1365 c 0,4,5
 1262 1328 1262 1328 1251 1288 c 0,6,7
 1219 1170 1219 1170 1113 1096 c 0,8,9
 1023 1034 1023 1034 902 1034 c 0,10,11
 830 1034 830 1034 746 1057 c 1,12,-1
 754 1087 l 1,13,14
 847 1099 847 1099 919 1133 c 0,15,16
 975 1161 975 1161 1012 1210 c 1,17,18
 936 1230 936 1230 899 1294 c 0,19,20
 876 1334 876 1334 876 1379 c 0,21,22
 876 1405 876 1405 884 1434 c 0,23,24
 904 1510 904 1510 968 1549 c 0,25,26
 1009 1573 1009 1573 1057 1573 c 0,27,28
 1085 1573 1085 1573 1116 1565 c 0,0,1
673 1565 m 0,29,30
 752 1544 752 1544 791 1475 c 0,31,32
 819 1425 819 1425 819 1365 c 0,33,34
 819 1328 819 1328 808 1288 c 0,35,36
 776 1170 776 1170 670 1096 c 0,37,38
 580 1034 580 1034 459 1034 c 0,39,40
 387 1034 387 1034 303 1057 c 1,41,-1
 311 1087 l 1,42,43
 404 1099 404 1099 476 1133 c 0,44,45
 532 1161 532 1161 569 1210 c 1,46,47
 493 1230 493 1230 456 1294 c 0,48,49
 433 1334 433 1334 433 1379 c 0,50,51
 433 1405 433 1405 441 1434 c 0,52,53
 461 1510 461 1510 525 1549 c 0,54,55
 566 1573 566 1573 614 1573 c 0,56,57
 642 1573 642 1573 673 1565 c 0,29,30
EndSplineSet
Validated: 1
EndChar

StartChar: quotedblbase
Encoding: 8222 8222 118
Width: 956
GlyphClass: 2
Flags: W
HStem: -172 30<-18 40.2695 425 483.27>
VStem: 104 386<37.2617 269.944> 547 386<37.2617 269.944>
LayerCount: 2
Fore
SplineSet
787 336 m 0,0,1
 866 315 866 315 905 246 c 0,2,3
 933 196 933 196 933 136 c 0,4,5
 933 99 933 99 922 59 c 0,6,7
 890 -59 890 -59 784 -133 c 0,8,9
 694 -195 694 -195 573 -195 c 0,10,11
 501 -195 501 -195 417 -172 c 1,12,-1
 425 -142 l 1,13,14
 518 -130 518 -130 590 -96 c 0,15,16
 646 -68 646 -68 683 -19 c 1,17,18
 607 1 607 1 570 65 c 0,19,20
 547 105 547 105 547 150 c 0,21,22
 547 176 547 176 555 205 c 0,23,24
 575 281 575 281 639 320 c 0,25,26
 680 344 680 344 728 344 c 0,27,28
 756 344 756 344 787 336 c 0,0,1
344 336 m 0,29,30
 423 315 423 315 462 246 c 0,31,32
 490 196 490 196 490 136 c 0,33,34
 490 99 490 99 479 59 c 0,35,36
 447 -59 447 -59 341 -133 c 0,37,38
 251 -195 251 -195 130 -195 c 0,39,40
 58 -195 58 -195 -26 -172 c 1,41,-1
 -18 -142 l 1,42,43
 75 -130 75 -130 147 -96 c 0,44,45
 203 -68 203 -68 240 -19 c 1,46,47
 164 1 164 1 127 65 c 0,48,49
 104 105 104 105 104 150 c 0,50,51
 104 176 104 176 112 205 c 0,52,53
 132 281 132 281 196 320 c 0,54,55
 237 344 237 344 285 344 c 0,56,57
 313 344 313 344 344 336 c 0,29,30
EndSplineSet
Validated: 1
EndChar

StartChar: dagger
Encoding: 8224 8224 119
Width: 1290
VWidth: 0
GlyphClass: 2
Flags: W
HStem: 885 200<659.668 782 1036 1158.76>
DStem2: 534.147 -40 734.147 -40 0.258819 0.965926<394.037 957.63 1216.56 1303.02>
LayerCount: 2
Fore
SplineSet
629 -40 m 1,0,1
 615 105 615 105 484 159 c 1,2,-1
 486 169 l 1,3,4
 604 221 604 221 644 368 c 2,5,-1
 782 885 l 1,6,-1
 745 885 l 2,7,8
 598 885 598 885 518 781 c 1,9,-1
 508 781 l 1,10,11
 493 927 493 927 363 980 c 1,12,-1
 365 990 l 1,13,14
 524 1043 524 1043 618 1189 c 1,15,-1
 628 1189 l 1,16,17
 651 1085 651 1085 799 1085 c 2,18,-1
 836 1085 l 1,19,-1
 851 1142 l 2,20,21
 863 1186 863 1186 863 1222 c 0,22,23
 863 1305 863 1305 800 1341 c 1,24,-1
 803 1351 l 1,25,26
 963 1405 963 1405 1055 1550 c 1,27,-1
 1065 1550 l 1,28,29
 1079 1405 1079 1405 1211 1351 c 1,30,-1
 1208 1341 l 1,31,32
 1090 1287 1090 1287 1051 1142 c 2,33,-1
 1036 1085 l 1,34,-1
 1073 1085 l 2,35,36
 1221 1085 1221 1085 1300 1189 c 1,37,-1
 1310 1189 l 1,38,39
 1325 1043 1325 1043 1455 990 c 1,40,-1
 1453 980 l 1,41,42
 1294 927 1294 927 1200 781 c 1,43,-1
 1190 781 l 1,44,45
 1166 885 1166 885 1019 885 c 2,46,-1
 982 885 l 1,47,-1
 844 368 l 2,48,49
 832 323 832 323 832 287 c 0,50,51
 832 205 832 205 894 169 c 1,52,-1
 892 159 l 1,53,54
 732 105 732 105 639 -40 c 1,55,-1
 629 -40 l 1,0,1
EndSplineSet
Validated: 1
EndChar

StartChar: daggerdbl
Encoding: 8225 8225 120
Width: 1290
VWidth: 0
GlyphClass: 2
Flags: W
HStem: 425 200<536.238 659 912 1034.33> 885 200<659.668 782 1036 1158.76>
DStem2: 534.404 -40 734.404 -40 0.258819 0.965926<393.971 481.403 740.07 957.564 1216.49 1302.96>
LayerCount: 2
Fore
SplineSet
629 -40 m 1,0,1
 615 105 615 105 484 159 c 1,2,-1
 486 169 l 1,3,4
 604 223 604 223 644 368 c 2,5,-1
 659 425 l 1,6,-1
 622 425 l 2,7,8
 474 425 474 425 395 321 c 1,9,-1
 385 321 l 1,10,11
 370 467 370 467 239 520 c 1,12,-1
 242 530 l 1,13,14
 401 583 401 583 494 729 c 1,15,-1
 504 729 l 1,16,17
 528 625 528 625 675 625 c 2,18,-1
 712 625 l 1,19,-1
 782 885 l 1,20,-1
 745 885 l 2,21,22
 598 885 598 885 518 781 c 1,23,-1
 508 781 l 1,24,25
 493 927 493 927 363 980 c 1,26,-1
 365 990 l 1,27,28
 524 1043 524 1043 618 1189 c 1,29,-1
 628 1189 l 1,30,31
 651 1085 651 1085 799 1085 c 2,32,-1
 836 1085 l 1,33,-1
 851 1142 l 2,34,35
 863 1186 863 1186 863 1222 c 0,36,37
 863 1305 863 1305 800 1341 c 1,38,-1
 803 1351 l 1,39,40
 963 1405 963 1405 1055 1550 c 1,41,-1
 1065 1550 l 1,42,43
 1079 1405 1079 1405 1211 1351 c 1,44,-1
 1208 1341 l 1,45,46
 1090 1287 1090 1287 1051 1142 c 2,47,-1
 1036 1085 l 1,48,-1
 1073 1085 l 2,49,50
 1221 1085 1221 1085 1300 1189 c 1,51,-1
 1310 1189 l 1,52,53
 1325 1043 1325 1043 1455 990 c 1,54,-1
 1453 980 l 1,55,56
 1294 927 1294 927 1200 781 c 1,57,-1
 1190 781 l 1,58,59
 1166 885 1166 885 1019 885 c 2,60,-1
 982 885 l 1,61,-1
 912 625 l 1,62,-1
 949 625 l 2,63,64
 1096 625 1096 625 1176 729 c 1,65,-1
 1186 729 l 1,66,67
 1201 583 1201 583 1332 530 c 1,68,-1
 1329 520 l 1,69,70
 1170 467 1170 467 1077 321 c 1,71,-1
 1067 321 l 1,72,73
 1044 425 1044 425 896 425 c 2,74,-1
 859 425 l 1,75,-1
 844 368 l 2,76,77
 832 323 832 323 832 287 c 0,78,79
 832 205 832 205 894 169 c 1,80,-1
 892 159 l 1,81,82
 732 105 732 105 639 -40 c 1,83,-1
 629 -40 l 1,0,1
EndSplineSet
Validated: 1
EndChar

StartChar: bullet
Encoding: 8226 8226 121
Width: 928
GlyphClass: 2
Flags: W
HStem: 384 740<490.128 841.872>
VStem: 302 728<575.566 932.434>
LayerCount: 2
Fore
SplineSet
666 1124 m 128,-1,1
 818 1124 818 1124 924 1016 c 128,-1,2
 1030 908 1030 908 1030 754 c 128,-1,3
 1030 600 1030 600 924 492 c 128,-1,4
 818 384 818 384 666 384 c 128,-1,5
 514 384 514 384 408 492 c 128,-1,6
 302 600 302 600 302 754 c 128,-1,7
 302 908 302 908 408 1016 c 128,-1,0
 514 1124 514 1124 666 1124 c 128,-1,1
EndSplineSet
Validated: 1
EndChar

StartChar: ellipsis
Encoding: 8230 8230 122
Width: 1294
GlyphClass: 2
Flags: W
HStem: -20 370<158.14 395.86 574.14 811.86 988.14 1225.86>
VStem: 95 364<42.5779 287.422> 511 364<42.5779 287.422> 925 364<42.5779 287.422>
LayerCount: 2
Fore
SplineSet
1107 -20 m 128,-1,1
 1031 -20 1031 -20 978 34 c 128,-1,2
 925 88 925 88 925 165 c 128,-1,3
 925 242 925 242 978 296 c 128,-1,4
 1031 350 1031 350 1107 350 c 128,-1,5
 1183 350 1183 350 1236 296 c 128,-1,6
 1289 242 1289 242 1289 165 c 128,-1,7
 1289 88 1289 88 1236 34 c 128,-1,0
 1183 -20 1183 -20 1107 -20 c 128,-1,1
693 -20 m 128,-1,9
 617 -20 617 -20 564 34 c 128,-1,10
 511 88 511 88 511 165 c 128,-1,11
 511 242 511 242 564 296 c 128,-1,12
 617 350 617 350 693 350 c 128,-1,13
 769 350 769 350 822 296 c 128,-1,14
 875 242 875 242 875 165 c 128,-1,15
 875 88 875 88 822 34 c 128,-1,8
 769 -20 769 -20 693 -20 c 128,-1,9
277 -20 m 128,-1,17
 201 -20 201 -20 148 34 c 128,-1,18
 95 88 95 88 95 165 c 128,-1,19
 95 242 95 242 148 296 c 128,-1,20
 201 350 201 350 277 350 c 128,-1,21
 353 350 353 350 406 296 c 128,-1,22
 459 242 459 242 459 165 c 128,-1,23
 459 88 459 88 406 34 c 128,-1,16
 353 -20 353 -20 277 -20 c 128,-1,17
EndSplineSet
Validated: 1
EndChar

StartChar: perthousand
Encoding: 8240 8240 123
Width: 2493
GlyphClass: 2
Flags: W
HStem: -20 75<1210.53 1373.91 1975.53 2138.91> 623 75<1342.66 1503.16 2107.66 2268.16> 812 75<627.731 793.237> 1455 75<761.99 922.328>
VStem: 399 210<921.966 1229.83> 943 210<1111.86 1420.18> 980 210<89.824 398.313> 1524 210<280.343 588.034> 1745 210<89.824 398.313> 2289 210<280.343 588.034>
DStem2: 374 129 563 0 0.654033 0.756466<-46.755 1899.01>
LayerCount: 2
Fore
SplineSet
2198 623 m 128,-1,1
 2132 623 2132 623 2077 556 c 0,2,3
 2021 486 2021 486 1982 339 c 0,4,5
 1955 239 1955 239 1955 175 c 0,6,7
 1955 145 1955 145 1961 122 c 0,8,9
 1979 55 1979 55 2047.5 55 c 128,-1,10
 2116 55 2116 55 2167 122 c 0,11,12
 2223 193 2223 193 2262 339 c 0,13,14
 2289 441 2289 441 2289 504 c 0,15,16
 2289 534 2289 534 2283 556 c 0,17,0
 2264 623 2264 623 2198 623 c 128,-1,1
2026 -20 m 128,-1,19
 1890 -20 1890 -20 1809 66 c 0,20,21
 1745 133 1745 133 1745 234 c 0,22,23
 1745 283 1745 283 1760 340 c 0,24,25
 1806 512 1806 512 1955 612 c 0,26,27
 2081 698 2081 698 2217.5 698 c 128,-1,28
 2354 698 2354 698 2435 612 c 0,29,30
 2499 544 2499 544 2499 444 c 0,31,32
 2499 395 2499 395 2484 339 c 0,33,34
 2438 167 2438 167 2289 66 c 0,35,18
 2162 -20 2162 -20 2026 -20 c 128,-1,19
1635 1550 m 0,36,37
 1655 1550 1655 1550 1674 1537 c 2,38,-1
 1757 1481 l 2,39,40
 1780 1465 1780 1465 1780 1438 c 0,41,42
 1780 1408 1780 1408 1757 1381 c 2,43,-1
 563 0 l 2,44,45
 528 -40 528 -40 497 -40 c 0,46,47
 475 -40 475 -40 456 -27 c 2,48,-1
 373 29 l 2,49,50
 347 47 347 47 347 73 c 0,51,52
 347 98 347 98 374 129 c 2,53,-1
 1568 1510 l 2,54,55
 1603 1550 1603 1550 1635 1550 c 0,36,37
1433 623 m 128,-1,57
 1367 623 1367 623 1312 556 c 0,58,59
 1256 486 1256 486 1217 339 c 0,60,61
 1190 239 1190 239 1190 175 c 0,62,63
 1190 145 1190 145 1196 122 c 0,64,65
 1214 55 1214 55 1282.5 55 c 128,-1,66
 1351 55 1351 55 1402 122 c 0,67,68
 1458 193 1458 193 1497 339 c 0,69,70
 1524 441 1524 441 1524 504 c 0,71,72
 1524 534 1524 534 1518 556 c 0,73,56
 1499 623 1499 623 1433 623 c 128,-1,57
1261 -20 m 128,-1,75
 1125 -20 1125 -20 1044 66 c 0,76,77
 980 133 980 133 980 234 c 0,78,79
 980 283 980 283 995 340 c 0,80,81
 1041 512 1041 512 1190 612 c 0,82,83
 1316 698 1316 698 1452.5 698 c 128,-1,84
 1589 698 1589 698 1670 612 c 0,85,86
 1734 544 1734 544 1734 444 c 0,87,88
 1734 395 1734 395 1719 339 c 0,89,90
 1673 167 1673 167 1524 66 c 0,91,74
 1397 -20 1397 -20 1261 -20 c 128,-1,75
872 1530 m 128,-1,93
 1008 1530 1008 1530 1089 1444 c 0,94,95
 1153 1377 1153 1377 1153 1276 c 0,96,97
 1153 1227 1153 1227 1138 1170 c 0,98,99
 1092 998 1092 998 943 898 c 0,100,101
 817 812 817 812 680.5 812 c 128,-1,102
 544 812 544 812 463 898 c 0,103,104
 399 966 399 966 399 1066 c 0,105,106
 399 1115 399 1115 414 1171 c 0,107,108
 460 1343 460 1343 609 1444 c 0,109,92
 736 1530 736 1530 872 1530 c 128,-1,93
852 1455 m 128,-1,111
 786 1455 786 1455 731 1388 c 0,112,113
 675 1318 675 1318 636 1171 c 0,114,115
 609 1071 609 1071 609 1007 c 0,116,117
 609 977 609 977 615 954 c 0,118,119
 633 887 633 887 701.5 887 c 128,-1,120
 770 887 770 887 821 954 c 0,121,122
 877 1025 877 1025 916 1171 c 0,123,124
 943 1273 943 1273 943 1336 c 0,125,126
 943 1366 943 1366 937 1388 c 0,127,110
 918 1455 918 1455 852 1455 c 128,-1,111
EndSplineSet
Validated: 1
EndChar

StartChar: minute
Encoding: 8242 8242 124
Width: 416
GlyphClass: 2
Flags: W
HStem: 1150 420
VStem: 378 385
LayerCount: 2
Fore
SplineSet
600 1570 m 0,0,1
 607 1570 607 1570 617 1566 c 2,2,-1
 743 1516 l 2,3,4
 763 1508 763 1508 763 1486 c 0,5,6
 763 1475 763 1475 751 1459 c 2,7,-1
 546 1178 l 2,8,9
 526 1150 526 1150 502 1150 c 0,10,11
 495 1150 495 1150 485 1154 c 2,12,-1
 398 1190 l 2,13,14
 378 1198 378 1198 378 1219 c 0,15,16
 378 1228 378 1228 385 1240 c 2,17,-1
 560 1540 l 2,18,19
 578 1570 578 1570 600 1570 c 0,0,1
EndSplineSet
Validated: 1
EndChar

StartChar: second
Encoding: 8243 8243 125
Width: 736
GlyphClass: 2
Flags: W
HStem: 1150 420
LayerCount: 2
Fore
SplineSet
920 1570 m 0,0,1
 927 1570 927 1570 937 1566 c 2,2,-1
 1063 1516 l 2,3,4
 1083 1508 1083 1508 1083 1486 c 0,5,6
 1083 1475 1083 1475 1071 1459 c 2,7,-1
 866 1178 l 2,8,9
 846 1150 846 1150 822 1150 c 0,10,11
 815 1150 815 1150 805 1154 c 2,12,-1
 718 1190 l 2,13,14
 698 1198 698 1198 698 1219 c 0,15,16
 698 1228 698 1228 705 1240 c 2,17,-1
 880 1540 l 2,18,19
 898 1570 898 1570 920 1570 c 0,0,1
600 1570 m 0,20,21
 607 1570 607 1570 617 1566 c 2,22,-1
 743 1516 l 2,23,24
 763 1508 763 1508 763 1486 c 0,25,26
 763 1475 763 1475 751 1459 c 2,27,-1
 546 1178 l 2,28,29
 526 1150 526 1150 502 1150 c 0,30,31
 495 1150 495 1150 485 1154 c 2,32,-1
 398 1190 l 2,33,34
 378 1198 378 1198 378 1219 c 0,35,36
 378 1228 378 1228 385 1240 c 2,37,-1
 560 1540 l 2,38,39
 578 1570 578 1570 600 1570 c 0,20,21
EndSplineSet
Validated: 1
EndChar

StartChar: guilsinglleft
Encoding: 8249 8249 126
Width: 779
GlyphClass: 2
Flags: W
VStem: 296 657
DStem2: 507 778 296 730 0.402618 -0.915368<0 508.127> 296 730 507 778 0.681741 0.731594<178.964 840.414>
LayerCount: 2
Fore
SplineSet
879 1336 m 0,0,1
 892 1336 892 1336 902 1328 c 2,2,-1
 941 1298 l 2,3,4
 953 1289 953 1289 953 1275 c 0,5,6
 953 1258 953 1258 938 1242 c 2,7,-1
 507 778 l 1,8,-1
 706 344 l 2,9,10
 713 329 713 329 713 313 c 0,11,12
 713 286 713 286 671 258 c 2,13,-1
 601 212 l 2,14,15
 577 196 577 196 557 196 c 0,16,17
 531 196 531 196 519 223 c 2,18,-1
 296 730 l 1,19,-1
 843 1317 l 2,20,21
 861 1336 861 1336 879 1336 c 0,0,1
EndSplineSet
Validated: 1
EndChar

StartChar: guilsinglright
Encoding: 8250 8250 127
Width: 779
GlyphClass: 2
Flags: W
VStem: 237 657
DStem2: 252 290 347 215 0.681741 0.731594<-28.1602 633.29> 894 802 683 754 0.402618 -0.915368<-549.142 -41.0146>
LayerCount: 2
Fore
SplineSet
633 1336 m 0,0,1
 659 1336 659 1336 671 1309 c 2,2,-1
 894 802 l 1,3,-1
 347 215 l 2,4,5
 329 196 329 196 311 196 c 0,6,7
 298 196 298 196 288 204 c 2,8,-1
 249 234 l 2,9,10
 237 243 237 243 237 257 c 0,11,12
 237 274 237 274 252 290 c 2,13,-1
 683 754 l 1,14,-1
 484 1188 l 2,15,16
 477 1203 477 1203 477 1219 c 0,17,18
 477 1246 477 1246 519 1274 c 2,19,-1
 589 1320 l 2,20,21
 613 1336 613 1336 633 1336 c 0,0,1
EndSplineSet
Validated: 1
EndChar

StartChar: fraction
Encoding: 8260 8260 128
Width: 1088
GlyphClass: 2
Flags: W
DStem2: 57 129 246 0 0.654033 0.756466<-46.755 1899.01>
LayerCount: 2
Fore
SplineSet
1318 1550 m 0,0,1
 1338 1550 1338 1550 1357 1537 c 2,2,-1
 1440 1481 l 2,3,4
 1463 1465 1463 1465 1463 1438 c 0,5,6
 1463 1408 1463 1408 1440 1381 c 2,7,-1
 246 0 l 2,8,9
 211 -40 211 -40 180 -40 c 0,10,11
 158 -40 158 -40 139 -27 c 2,12,-1
 56 29 l 2,13,14
 30 47 30 47 30 73 c 0,15,16
 30 98 30 98 57 129 c 2,17,-1
 1251 1510 l 2,18,19
 1286 1550 1286 1550 1318 1550 c 0,0,1
EndSplineSet
Validated: 1
EndChar

StartChar: Euro
Encoding: 8364 8364 129
Width: 1546
GlyphClass: 2
Flags: W
HStem: -20 105<832.024 1179.04> 586 120<277.543 398 768 1186.46> 801 120<334.891 446 833 1244.44> 959 368<1385.16 1527.1> 1425 105<1151.04 1477.69>
VStem: 390 330<231.845 583.208> 1321 387<1045.38 1265.27>
LayerCount: 2
Fore
SplineSet
916.5 -20 m 128,-1,1
 611 -20 611 -20 487 142 c 0,2,3
 390 270 390 270 390 465 c 0,4,5
 390 522 390 522 398 586 c 1,6,-1
 297 586 l 2,7,8
 264 586 264 586 264 607 c 0,9,10
 264 614 264 614 266 621 c 2,11,-1
 280 671 l 2,12,13
 290 706 290 706 329 706 c 2,14,-1
 420 706 l 1,15,16
 425 730 425 730 432 755 c 0,17,18
 438 778 438 778 446 801 c 1,19,-1
 355 801 l 2,20,21
 322 801 322 801 322 823 c 0,22,23
 322 828 322 828 324 836 c 2,24,-1
 337 886 l 2,25,26
 346 921 346 921 387 921 c 2,27,-1
 487 921 l 1,28,29
 599 1202 599 1202 816 1368 c 0,30,31
 1026 1529 1026 1529 1316 1530 c 0,32,33
 1529 1530 1529 1530 1637 1395 c 0,34,35
 1708 1306 1708 1306 1708 1187 c 0,36,37
 1708 1087 1708 1087 1644 1022 c 0,38,39
 1582 959 1582 959 1506 959 c 0,40,41
 1428 959 1428 959 1375 1013 c 0,42,43
 1321 1067 1321 1067 1321 1144 c 128,-1,44
 1321 1221 1321 1221 1375 1276 c 0,45,46
 1425 1327 1425 1327 1492 1327 c 0,47,48
 1512 1327 1512 1327 1529 1319 c 1,49,50
 1514 1348 1514 1348 1499 1363 c 0,51,52
 1437 1425 1437 1425 1323 1425 c 0,53,54
 1172 1425 1172 1425 1054 1305 c 0,55,56
 922 1172 922 1172 833 921 c 1,57,-1
 1225 921 l 2,58,59
 1257 921 1257 921 1257 898 c 0,60,61
 1257 894 1257 894 1255 886 c 2,62,-1
 1242 836 l 2,63,64
 1233 801 1233 801 1193 801 c 2,65,-1
 794 801 l 1,66,67
 788 778 788 778 781 755 c 0,68,69
 774 730 774 730 768 706 c 1,70,-1
 1167 706 l 2,71,72
 1200 706 1200 706 1200 681 c 0,73,74
 1200 678 1200 678 1198 671 c 2,75,-1
 1184 621 l 2,76,77
 1174 586 1174 586 1135 586 c 2,78,-1
 742 586 l 1,79,80
 720 471 720 471 720 385 c 0,81,82
 720 271 720 271 758 207 c 0,83,84
 829 85 829 85 986 85 c 0,85,86
 1140 85 1140 85 1269 181 c 0,87,88
 1382 265 1382 265 1486 390 c 1,89,-1
 1500 390 l 1,90,-1
 1447 189 l 1,91,-1
 1445 188 l 1,92,0
 1222 -20 1222 -20 916.5 -20 c 128,-1,1
EndSplineSet
Validated: 1
EndChar

StartChar: afii61248
Encoding: 8453 8453 130
Width: 1705
GlyphClass: 2
Flags: W
HStem: -20 63<1226.01 1341.52> 697 67<1381.67 1502.23> 745 63<624.549 821.216> 1465 65<780.682 951.055>
VStem: 383 208<835.126 1186.59> 860 225<1258.88 1398.18> 1002 201<70.5031 423.802> 1524 200<320.627 675.102>
DStem2: 370 129 559 0 0.654033 0.756466<-46.755 1899.01>
LayerCount: 2
Fore
SplineSet
1631 1550 m 0,0,1
 1651 1550 1651 1550 1670 1537 c 2,2,-1
 1753 1481 l 2,3,4
 1776 1465 1776 1465 1776 1438 c 0,5,6
 1776 1408 1776 1408 1753 1381 c 2,7,-1
 559 0 l 2,8,9
 524 -40 524 -40 493 -40 c 0,10,11
 471 -40 471 -40 452 -27 c 2,12,-1
 369 29 l 2,13,14
 343 47 343 47 343 73 c 0,15,16
 343 98 343 98 370 129 c 2,17,-1
 1564 1510 l 2,18,19
 1599 1550 1599 1550 1631 1550 c 0,0,1
849 1530 m 0,20,21
 973 1530 973 1530 1044 1447 c 0,22,23
 1085 1399 1085 1399 1085 1344 c 0,24,25
 1084 1289 1084 1289 1050 1253 c 0,26,27
 1020 1222 1020 1222 970.5 1222 c 128,-1,28
 921 1222 921 1222 887 1258 c 0,29,30
 860 1286 860 1286 860 1331 c 0,31,32
 860 1373 860 1373 893 1399 c 0,33,34
 920 1418 920 1418 965 1418 c 1,35,36
 928 1465 928 1465 868.5 1465 c 128,-1,37
 809 1465 809 1465 755 1410 c 0,38,39
 669 1322 669 1322 618 1129 c 0,40,41
 591 1030 591 1030 591 959 c 0,42,43
 591 910 591 910 604 874 c 0,44,45
 627 808 627 808 707 808 c 0,46,47
 775 808 775 808 846 852.5 c 128,-1,48
 917 897 917 897 968 959 c 1,49,-1
 981 959 l 1,50,-1
 953 854 l 1,51,52
 832 745 832 745 666 745 c 0,53,54
 496 745 496 745 432 829 c 0,55,56
 383 894 383 894 383 992 c 0,57,58
 383 1057 383 1057 405 1137 c 0,59,60
 460 1341 460 1341 597 1445 c 0,61,62
 709 1530 709 1530 849 1530 c 0,20,21
1451 697 m 128,-1,64
 1410 697 1410 697 1363 647 c 0,65,66
 1282 559 1282 559 1232 371 c 0,67,68
 1203 261 1203 261 1203 184 c 0,69,70
 1203 132 1203 132 1216 96 c 0,71,72
 1235 43 1235 43 1276 43 c 128,-1,73
 1317 43 1317 43 1363 94 c 0,74,75
 1444 182 1444 182 1494 369 c 0,76,77
 1524 480 1524 480 1524 558 c 0,78,79
 1524 609 1524 609 1511 645 c 0,80,63
 1492 697 1492 697 1451 697 c 128,-1,64
1471 764 m 128,-1,82
 1618 764 1618 764 1676 680 c 0,83,84
 1724 610 1724 610 1724 512 c 0,85,86
 1724 448 1724 448 1704 371 c 0,87,88
 1651 173 1651 173 1511 64 c 0,89,90
 1402 -20 1402 -20 1257 -20 c 0,91,92
 1110 -20 1110 -20 1051 64 c 0,93,94
 1002 134 1002 134 1002 233 c 0,95,96
 1002 297 1002 297 1022 372 c 0,97,98
 1075 569 1075 569 1216 680 c 0,99,81
 1324 764 1324 764 1471 764 c 128,-1,82
EndSplineSet
Validated: 1
EndChar

StartChar: afii61289
Encoding: 8467 8467 131
Width: 1227
GlyphClass: 2
Flags: W
HStem: -20 236<621 805.358> 0 21G<100 481.727> 1510 20G<1204.5 1302>
LayerCount: 2
Fore
SplineSet
675 -20 m 0,0,1
 567 -20 567 -20 503 44 c 1,2,-1
 464 0 l 1,3,-1
 100 0 l 1,4,5
 305 162 305 162 452 325 c 1,6,7
 466 420 466 420 494 524 c 0,8,9
 535 680 535 680 633 865 c 0,10,11
 832 1241 832 1241 1032 1423 c 0,12,13
 1149 1530 1149 1530 1260 1530 c 0,14,15
 1344 1530 1344 1530 1381 1480 c 0,16,17
 1407 1444 1407 1444 1407 1386 c 0,18,19
 1407 1340 1407 1340 1391 1281 c 0,20,21
 1366 1186 1366 1186 1298 1041 c 0,22,23
 1133 688 1133 688 739 272 c 1,24,25
 734 250 734 250 734 237 c 0,26,27
 734 216 734 216 747 216 c 0,28,29
 768 216 768 216 805 260 c 0,30,31
 827 286 827 286 846 319 c 1,32,-1
 1162 319 l 1,33,34
 1022 144 1022 144 903.5 62 c 128,-1,35
 785 -20 785 -20 675 -20 c 0,0,1
EndSplineSet
Validated: 1
EndChar

StartChar: trademark
Encoding: 8482 8482 132
Width: 1949
VWidth: 1396
GlyphClass: 2
Flags: W
HStem: 1459 71<627.641 973.359> 1490 20G<1300 1435.5 1892.5 1994.5>
VStem: 932 222<1314.97 1457.37>
DStem2: 530.851 747 730.851 747 0.258819 0.965926<59.3364 663.459> 1048 791 1155 791 0.386989 0.922084<-5.65771 491.022> 1480 1444 1279 1447 0.198985 -0.980002<-70.6949 34.912 202.995 402.04> 1560 1050 1782 1202 0.595185 0.803588<0 254.277> 1740 811 1936 811 0.103454 0.994634<-18.6909 393.247>
LayerCount: 2
Fore
SplineSet
1404 1510 m 2,0,1
 1467 1510 1467 1510 1480 1444 c 2,2,-1
 1560 1050 l 1,3,-1
 1859 1484 l 2,4,5
 1877 1510 1877 1510 1908 1510 c 2,6,-1
 1982 1510 l 2,7,8
 2007 1510 2007 1510 2007 1497 c 0,9,10
 2007 1494 2007 1494 2006 1484 c 2,11,-1
 1936 811 l 2,12,13
 1931 765 1931 765 1879 765 c 2,14,-1
 1788 765 l 2,15,16
 1739 765 1739 765 1739 792 c 0,17,18
 1739 802 1739 802 1740 811 c 2,19,-1
 1782 1202 l 1,20,-1
 1445 747 l 1,21,-1
 1426 747 l 1,22,-1
 1328 1206 l 1,23,-1
 1155 791 l 2,24,25
 1144 765 1144 765 1120 765 c 2,26,-1
 1072 765 l 2,27,28
 1046 765 1046 765 1046 781 c 0,29,30
 1046 786 1046 786 1048 791 c 2,31,-1
 1291 1370 l 1,32,-1
 1279 1447 l 2,33,34
 1276 1466 1276 1466 1276 1475 c 0,35,36
 1276 1510 1276 1510 1324 1510 c 2,37,-1
 1404 1510 l 2,0,1
596 765 m 2,38,39
 546 765 546 765 546 797 c 0,40,41
 546 804 546 804 548 811 c 2,42,-1
 688 1331 l 2,43,44
 700 1377 700 1377 760 1377 c 2,45,-1
 840 1377 l 2,46,47
 890 1377 890 1377 890 1345 c 0,48,49
 890 1338 890 1338 888 1331 c 2,50,-1
 748 811 l 2,51,52
 736 765 736 765 676 765 c 2,53,-1
 596 765 l 2,38,39
826 1530 m 2,54,-1
 940 1530 l 2,55,56
 1079 1530 1079 1530 1129 1464 c 0,57,58
 1154 1431 1154 1431 1154 1388 c 128,-1,59
 1154 1345 1154 1345 1126 1314 c 0,60,61
 1094 1277 1094 1277 1041 1277 c 0,62,63
 992 1277 992 1277 959 1315 c 0,64,65
 932 1345 932 1345 932 1384 c 0,66,67
 932 1438 932 1438 977 1458 c 1,68,69
 958 1459 958 1459 941 1459 c 2,70,-1
 803 1459 l 2,71,72
 548 1459 548 1459 406 1272 c 1,73,-1
 393 1280 l 1,74,75
 528 1530 528 1530 826 1530 c 2,54,-1
EndSplineSet
Validated: 1
EndChar

StartChar: uni2126
Encoding: 8486 8486 133
Width: 1462
GlyphClass: 2
Flags: W
HStem: 0 175<123.474 517 1039 1387.89> 1425 105<974.625 1226.9>
VStem: 270 310<416.549 729.741> 1295 320<816.755 1277.87>
LayerCount: 2
Fore
SplineSet
152 0 m 2,0,1
 100 0 100 0 100 41 c 0,2,3
 100 50 100 50 104 65 c 2,4,-1
 116 110 l 2,5,6
 133 175 133 175 198 175 c 2,7,-1
 517 175 l 1,8,-1
 525 206 l 1,9,10
 383 287 383 287 314 417 c 0,11,12
 270 500 270 500 270 601 c 0,13,14
 270 673 270 673 292 755 c 0,15,16
 395 1141 395 1141 676 1368 c 0,17,18
 876 1530 876 1530 1141 1530 c 0,19,20
 1405 1530 1405 1530 1520 1368 c 0,21,22
 1615 1234 1615 1234 1615 1038 c 0,23,24
 1615 910 1615 910 1574 755 c 0,25,26
 1525 571 1525 571 1372 417 c 0,27,28
 1238 282 1238 282 1047 206 c 1,29,-1
 1039 175 l 1,30,-1
 1361 175 l 2,31,32
 1412 175 1412 175 1412 134 c 0,33,34
 1412 125 1412 125 1408 110 c 2,35,-1
 1396 65 l 2,36,37
 1379 0 1379 0 1314 0 c 2,38,-1
 936 0 l 2,39,40
 881 0 881 0 881 42 c 0,41,42
 881 55 881 55 885 70 c 2,43,-1
 928 232 l 1,44,45
 1037 303 1037 303 1118 440 c 0,46,47
 1178 542 1178 542 1235 755 c 0,48,49
 1295 979 1295 979 1295 1135 c 0,50,51
 1295 1236 1295 1236 1270 1308 c 0,52,53
 1229 1425 1229 1425 1112.5 1425 c 128,-1,54
 996 1425 996 1425 892 1308 c 0,55,56
 722 1117 722 1117 631 755 c 0,57,58
 580 551 580 551 580 440 c 0,59,60
 580 310 580 310 658 232 c 1,61,-1
 615 70 l 2,62,63
 596 0 596 0 526 0 c 2,64,-1
 152 0 l 2,0,1
EndSplineSet
Validated: 1
EndChar

StartChar: estimated
Encoding: 8494 8494 134
Width: 1261
GlyphClass: 2
Flags: W
HStem: -20 183<506.272 861.518> 491 189<585 1037> 935 185<687.468 1047.51>
LayerCount: 2
Fore
SplineSet
624 -20 m 0,0,1
 373 -20 373 -20 263 145 c 0,2,3
 194 249 194 249 194 383 c 0,4,5
 194 462 194 462 218 553 c 0,6,7
 285 802 285 802 483 960 c 0,8,9
 684 1120 684 1120 926 1120 c 0,10,11
 1169 1120 1169 1120 1278 974 c 0,12,13
 1356 870 1356 870 1356 714 c 0,14,15
 1356 613 1356 613 1323 491 c 1,16,-1
 535 491 l 1,17,-1
 467 239 l 1,18,19
 542 163 542 163 673 163 c 0,20,21
 881 163 881 163 1049 351 c 1,22,-1
 1187 255 l 1,23,24
 1017 85 1017 85 884.5 32.5 c 128,-1,25
 752 -20 752 -20 624 -20 c 0,0,1
1037 680 m 1,26,-1
 1086 862 l 1,27,28
 1008 935 1008 935 878 935 c 0,29,30
 746 935 746 935 634 861 c 1,31,-1
 585 680 l 1,32,-1
 1037 680 l 1,26,-1
EndSplineSet
Validated: 1
EndChar

StartChar: partialdiff
Encoding: 8706 8706 135
Width: 1306
GlyphClass: 2
Flags: W
HStem: -20 273<383 738.911> 823 260<776.765 1020.25> 1257 273<856.041 1143.73>
VStem: 189 321<236.5 482.906> 1181 315<1024.79 1220.63>
LayerCount: 2
Fore
SplineSet
518 -20 m 0,0,1
 248 -20 248 -20 200 171 c 0,2,3
 189 212 189 212 189 261 c 0,4,5
 189 331 189 331 212 416 c 0,6,7
 281 673 281 673 490 878 c 128,-1,8
 699 1083 699 1083 971 1083 c 0,9,10
 1090 1083 1090 1083 1171 1024 c 1,11,12
 1181 1068 1181 1068 1181 1105 c 0,13,14
 1181 1143 1181 1143 1170 1173 c 0,15,16
 1136 1257 1136 1257 1014 1257 c 0,17,18
 859 1257 859 1257 674 1132 c 1,19,-1
 758 1443 l 1,20,21
 927 1530 927 1530 1124 1530 c 0,22,23
 1441 1530 1441 1530 1488 1271 c 0,24,25
 1496 1229 1496 1229 1496 1181 c 0,26,27
 1496 1079 1496 1079 1461 950 c 0,28,29
 1357 563 1357 563 1096 272 c 0,30,31
 837 -20 837 -20 518 -20 c 0,0,1
1057 699 m 1,32,33
 1051 756 1051 756 1017 788 c 0,34,35
 979 823 979 823 912 823 c 0,36,37
 803 823 803 823 690 706 c 0,38,39
 558 567 558 567 521 431 c 0,40,41
 510 389 510 389 510 356 c 0,42,43
 510 320 510 320 523 295 c 0,44,45
 544 253 544 253 604 253 c 0,46,47
 711 253 711 253 838.5 376 c 128,-1,48
 966 499 966 499 1057 699 c 1,32,33
EndSplineSet
Validated: 1
EndChar

StartChar: uni2206
Encoding: 8710 8710 136
Width: 1552
GlyphClass: 2
Flags: W
HStem: 0 120<246 1187>
DStem2: 5 0 246 120 0.61209 0.790788<242.408 1438.72> 1207 1540 977 1067 0.215587 -0.976485<412.292 1382.3>
LayerCount: 2
Fore
SplineSet
246 120 m 1,0,-1
 1187 120 l 1,1,-1
 977 1067 l 1,2,-1
 246 120 l 1,0,-1
1547 0 m 1,3,-1
 5 0 l 1,4,-1
 1197 1540 l 1,5,-1
 1207 1540 l 1,6,-1
 1547 0 l 1,3,-1
EndSplineSet
Validated: 1
EndChar

StartChar: product
Encoding: 8719 8719 137
Width: 1527
GlyphClass: 2
Flags: W
HStem: -410 21G<118.5 350.5 965.5 1197.5> 1380 130<870 1397>
DStem2: 70.5641 -410 390.564 -410 0.258819 0.965926<76.3118 1935.92> 917.564 -410 1237.56 -410 0.258819 0.965926<76.3118 1853.09>
LayerCount: 2
Fore
SplineSet
150 -410 m 2,0,1
 87 -410 87 -410 87 -360 c 0,2,3
 87 -349 87 -349 92 -330 c 2,4,-1
 566 1440 l 2,5,6
 585 1510 585 1510 655 1510 c 2,7,-1
 1682 1510 l 2,8,9
 1737 1510 1737 1510 1737 1466 c 0,10,11
 1737 1455 1737 1455 1733 1440 c 2,12,-1
 1259 -330 l 2,13,14
 1238 -410 1238 -410 1157 -410 c 2,15,-1
 997 -410 l 2,16,17
 934 -410 934 -410 934 -360 c 0,18,19
 934 -349 934 -349 939 -330 c 2,20,-1
 1397 1380 l 1,21,-1
 870 1380 l 1,22,-1
 412 -330 l 2,23,24
 391 -410 391 -410 310 -410 c 2,25,-1
 150 -410 l 2,0,1
EndSplineSet
Validated: 1
EndChar

StartChar: summation
Encoding: 8721 8721 138
Width: 1488
GlyphClass: 2
Flags: W
HStem: -410 121<351 1182.52> 1389 121<757 1435.52>
VStem: 1049 369<-227.948 -20.0625> 1302 369<1120.06 1327.95>
DStem2: -77 -400 351 -289 0.636112 0.771597<357.903 1224.73> 757 1389 432 1500 0.267748 -0.963489<0 792.034>
LayerCount: 2
Fore
SplineSet
-80 -410 m 1,0,-1
 -77 -400 l 1,1,-1
 696 550 l 1,2,-1
 432 1500 l 1,3,-1
 435 1510 l 1,4,-1
 1324 1510 l 2,5,6
 1528 1510 1528 1510 1623 1391 c 0,7,8
 1671 1331 1671 1331 1671 1250 c 0,9,10
 1671 1167 1671 1167 1613 1104 c 0,11,12
 1559 1045 1559 1045 1480 1045 c 0,13,14
 1399 1045 1399 1045 1350 1097 c 0,15,16
 1302 1147 1302 1147 1302 1212 c 0,17,18
 1302 1287 1302 1287 1355 1337 c 0,19,20
 1389 1370 1389 1370 1439 1381 c 1,21,22
 1416 1389 1416 1389 1324 1389 c 2,23,-1
 757 1389 l 1,24,-1
 1001 511 l 1,25,-1
 351 -289 l 1,26,-1
 1069 -289 l 2,27,28
 1148 -289 1148 -289 1186 -281 c 1,29,30
 1136 -270 1136 -270 1102 -237 c 0,31,32
 1049 -187 1049 -187 1049 -112 c 0,33,34
 1049 -47 1049 -47 1097 3 c 0,35,36
 1146 55 1146 55 1227 55 c 0,37,38
 1306 55 1306 55 1360 -4 c 0,39,40
 1418 -67 1418 -67 1418 -150 c 0,41,42
 1418 -231 1418 -231 1370 -291 c 0,43,44
 1275 -410 1275 -410 1071 -410 c 2,45,-1
 -80 -410 l 1,0,-1
EndSplineSet
Validated: 1
EndChar

StartChar: minus
Encoding: 8722 8722 139
Width: 1273
GlyphClass: 2
Flags: W
HStem: 649 211<321.328 1355.67>
LayerCount: 2
Fore
SplineSet
395 860 m 2,0,-1
 1338 860 l 2,1,2
 1390 860 1390 860 1390 819 c 0,3,4
 1390 808 1390 808 1386 795 c 2,5,-1
 1364 714 l 2,6,7
 1347 649 1347 649 1282 649 c 2,8,-1
 339 649 l 2,9,10
 287 649 287 649 287 690 c 0,11,12
 287 701 287 701 291 714 c 2,13,-1
 313 795 l 2,14,15
 330 860 330 860 395 860 c 2,0,-1
EndSplineSet
Validated: 1
EndChar

StartChar: uni2215
Encoding: 8725 8725 140
Width: 1088
GlyphClass: 2
Flags: W
DStem2: 57 129 246 0 0.654033 0.756466<-46.755 1899.01>
LayerCount: 2
Fore
SplineSet
1318 1550 m 0,0,1
 1338 1550 1338 1550 1357 1537 c 2,2,-1
 1440 1481 l 2,3,4
 1463 1465 1463 1465 1463 1438 c 0,5,6
 1463 1408 1463 1408 1440 1381 c 2,7,-1
 246 0 l 2,8,9
 211 -40 211 -40 180 -40 c 0,10,11
 158 -40 158 -40 139 -27 c 2,12,-1
 56 29 l 2,13,14
 30 47 30 47 30 73 c 0,15,16
 30 98 30 98 57 129 c 2,17,-1
 1251 1510 l 2,18,19
 1286 1550 1286 1550 1318 1550 c 0,0,1
EndSplineSet
Validated: 1
EndChar

StartChar: uni2219
Encoding: 8729 8729 141
Width: 464
GlyphClass: 2
Flags: W
HStem: 569 370<315.14 552.86>
VStem: 252 364<631.578 876.422>
LayerCount: 2
Fore
SplineSet
434 569 m 128,-1,1
 358 569 358 569 305 623 c 128,-1,2
 252 677 252 677 252 754 c 128,-1,3
 252 831 252 831 305 885 c 128,-1,4
 358 939 358 939 434 939 c 128,-1,5
 510 939 510 939 563 885 c 128,-1,6
 616 831 616 831 616 754 c 128,-1,7
 616 677 616 677 563 623 c 128,-1,0
 510 569 510 569 434 569 c 128,-1,1
EndSplineSet
Validated: 1
EndChar

StartChar: radical
Encoding: 8730 8730 142
Width: 1425
GlyphClass: 2
Flags: W
HStem: 725 121<225.109 392> 1550 121<1665 1841.89>
DStem2: 711 474 501 -40 0.590703 0.806889<0 1431.74>
LayerCount: 2
Fore
SplineSet
491 -40 m 1,0,-1
 392 725 l 1,1,-1
 244 725 l 2,2,3
 213 725 213 725 213 750 c 0,4,5
 213 758 213 758 215 765 c 2,6,-1
 226 806 l 2,7,8
 237 846 237 846 277 846 c 2,9,-1
 600 846 l 2,10,11
 659 846 659 846 666 796 c 2,12,-1
 711 474 l 1,13,-1
 1570 1631 l 2,14,15
 1600 1671 1600 1671 1641 1671 c 2,16,-1
 1823 1671 l 2,17,18
 1854 1671 1854 1671 1854 1644 c 0,19,20
 1854 1638 1854 1638 1852 1631 c 2,21,-1
 1841 1590 l 2,22,23
 1830 1550 1830 1550 1790 1550 c 2,24,-1
 1665 1550 l 1,25,-1
 501 -40 l 1,26,-1
 491 -40 l 1,0,-1
EndSplineSet
Validated: 1
EndChar

StartChar: infinity
Encoding: 8734 8734 143
Width: 1678
GlyphClass: 2
Flags: W
HStem: 346 205<497.244 726.47> 346 116<1140.89 1433.46> 960 203<1356.49 1584.39> 1047 116<648.701 942.106>
VStem: 286 177<582.457 834.933> 1619 177<674.287 927.07>
DStem2: 841 711 1128 643 0.59249 0.805578<-167.884 483.455>
LayerCount: 2
Fore
SplineSet
827 1163 m 0,0,1
 973 1163 973 1163 1028 1102 c 0,2,3
 1037 1092 1037 1092 1037 1079 c 0,4,5
 1037 1064 1037 1064 1022 1049 c 2,6,-1
 990 1016 l 2,7,8
 974 999 974 999 958 999 c 0,9,10
 944 999 944 999 933 1009 c 0,11,12
 891 1047 891 1047 808 1047 c 0,13,14
 691 1047 691 1047 602 968 c 0,15,16
 507 885 507 885 473 758 c 0,17,18
 463 721 463 721 463 690 c 0,19,20
 463 649 463 649 480 618 c 0,21,22
 516 551 516 551 599 551 c 0,23,24
 724 551 724 551 841 711 c 2,25,-1
 954 866 l 2,26,27
 1171 1163 1171 1163 1449 1163 c 0,28,29
 1658 1163 1658 1163 1742 1045 c 0,30,31
 1795 969 1795 969 1796 870 c 0,32,33
 1796 814 1796 814 1779 751 c 0,34,35
 1734 584 1734 584 1600 472 c 0,36,37
 1449 346 1449 346 1256 346 c 0,38,39
 1110 346 1110 346 1055 407 c 0,40,41
 1046 417 1046 417 1046 430 c 0,42,43
 1046 445 1046 445 1061 460 c 2,44,-1
 1093 493 l 2,45,46
 1109 510 1109 510 1125 510 c 0,47,48
 1139 510 1139 510 1150 500 c 0,49,50
 1192 462 1192 462 1275 462 c 0,51,52
 1391 462 1391 462 1480 541 c 0,53,54
 1576 625 1576 625 1609 751 c 0,55,56
 1619 789 1619 789 1619 821 c 0,57,58
 1619 861 1619 861 1603 891 c 0,59,60
 1565 960 1565 960 1482 960 c 0,61,62
 1361 960 1361 960 1242 798 c 2,63,-1
 1128 643 l 2,64,65
 910 346 910 346 634 346 c 0,66,67
 424 346 424 346 340 464 c 0,68,69
 286 540 286 540 286 639 c 0,70,71
 286 695 286 695 303 758 c 0,72,73
 348 925 348 925 482 1037 c 0,74,75
 633 1163 633 1163 827 1163 c 0,0,1
EndSplineSet
Validated: 1
EndChar

StartChar: approxequal
Encoding: 8776 8776 144
Width: 1215
GlyphClass: 2
Flags: W
HStem: 376 181<889.438 1093.07> 538 181<413.037 620.992> 774 181<995.008 1197.55> 936 181<517.513 726.562>
DStem2: 933 580 578 515 0.895258 -0.445547<-369.813 81.8521> 1038 978 683 913 0.895258 -0.445547<-370.708 80.957>
LayerCount: 2
Fore
SplineSet
587 719 m 0,0,1
 654 719 654 719 718 687 c 2,2,-1
 933 580 l 2,3,4
 979 557 979 557 1032 557 c 0,5,6
 1187 557 1187 557 1282 693 c 1,7,-1
 1301 693 l 1,8,9
 1172 376 1172 376 925 376 c 0,10,11
 858 376 858 376 793 408 c 2,12,-1
 578 515 l 2,13,14
 532 538 532 538 478 538 c 0,15,16
 324 538 324 538 230 402 c 1,17,-1
 210 402 l 1,18,19
 328 719 328 719 587 719 c 0,0,1
691 1117 m 0,20,21
 758 1117 758 1117 823 1085 c 2,22,-1
 1038 978 l 2,23,24
 1084 955 1084 955 1137 955 c 0,25,26
 1292 955 1292 955 1386 1091 c 1,27,-1
 1405 1091 l 1,28,29
 1276 774 1276 774 1029 774 c 0,30,31
 962 774 962 774 898 806 c 2,32,-1
 683 913 l 2,33,34
 637 936 637 936 583 936 c 0,35,36
 429 936 429 936 334 800 c 1,37,-1
 314 800 l 1,38,39
 432 1117 432 1117 691 1117 c 0,20,21
EndSplineSet
Validated: 1
EndChar

StartChar: notequal
Encoding: 8800 8800 145
Width: 1273
GlyphClass: 2
Flags: W
HStem: 444 211<266.328 499 656 678 835 1301.33> 854 211<376.328 846 1003 1024 1181 1410.67>
DStem2: 344 260 442 192 0.645877 0.763441<-28.3178 240.584 618.685 777.714 1155.17 1416.55>
LayerCount: 2
Fore
SplineSet
450 1065 m 2,0,-1
 1024 1065 l 1,1,-1
 1234 1312 l 2,2,3
 1253 1334 1253 1334 1270 1334 c 0,4,5
 1283 1334 1283 1334 1293 1327 c 2,6,-1
 1333 1298 l 2,7,8
 1346 1289 1346 1289 1346 1268 c 0,9,10
 1346 1261 1346 1261 1332 1244 c 2,11,-1
 1181 1065 l 1,12,-1
 1393 1065 l 2,13,14
 1445 1065 1445 1065 1445 1024 c 0,15,16
 1445 1015 1445 1015 1441 1000 c 2,17,-1
 1419 919 l 2,18,19
 1401 854 1401 854 1337 854 c 2,20,-1
 1003 854 l 1,21,-1
 835 655 l 1,22,-1
 1284 655 l 2,23,24
 1335 655 1335 655 1335 615 c 0,25,26
 1335 605 1335 605 1331 590 c 2,27,-1
 1309 509 l 2,28,29
 1291 444 1291 444 1227 444 c 2,30,-1
 656 444 l 1,31,-1
 442 192 l 2,32,33
 423 170 423 170 406 170 c 0,34,35
 393 170 393 170 383 177 c 2,36,-1
 343 206 l 2,37,38
 330 215 330 215 330 230 c 0,39,40
 330 243 330 243 344 260 c 2,41,-1
 499 444 l 1,42,-1
 284 444 l 2,43,44
 232 444 232 444 232 485 c 0,45,46
 232 494 232 494 236 509 c 2,47,-1
 258 590 l 2,48,49
 276 655 276 655 341 655 c 2,50,-1
 678 655 l 1,51,-1
 846 854 l 1,52,-1
 394 854 l 2,53,54
 342 854 342 854 342 895 c 0,55,56
 342 904 342 904 346 919 c 2,57,-1
 368 1000 l 2,58,59
 386 1065 386 1065 450 1065 c 2,0,-1
EndSplineSet
Validated: 1
EndChar

StartChar: lessequal
Encoding: 8804 8804 146
Width: 1192
GlyphClass: 2
Flags: W
HStem: 144 211<236.328 1089.67>
DStem2: 675 891 411 788 0.841225 -0.540685<0 564.752> 460 969 675 891 0.895917 0.444221<157.973 966.509>
LayerCount: 2
Fore
SplineSet
1329 1393 m 0,0,1
 1355 1393 1355 1393 1363 1366 c 2,2,-1
 1383 1302 l 2,3,4
 1386 1292 1386 1292 1386 1283 c 0,5,6
 1386 1254 1386 1254 1345 1233 c 2,7,-1
 675 891 l 1,8,-1
 1147 593 l 2,9,10
 1169 579 1169 579 1169 549 c 0,11,12
 1169 527 1169 527 1149 503 c 2,13,-1
 1093 436 l 2,14,15
 1064 401 1064 401 1032 401 c 0,16,17
 1013 401 1013 401 996 412 c 2,18,-1
 411 788 l 2,19,20
 379 809 379 809 379 844 c 0,21,22
 379 854 379 854 380 858 c 2,23,-1
 391 899 l 2,24,25
 402 940 402 940 460 969 c 2,26,-1
 1299 1385 l 2,27,28
 1315 1393 1315 1393 1329 1393 c 0,0,1
310 355 m 2,29,-1
 1072 355 l 2,30,31
 1124 355 1124 355 1124 314 c 0,32,33
 1124 305 1124 305 1120 290 c 2,34,-1
 1098 209 l 2,35,36
 1080 144 1080 144 1016 144 c 2,37,-1
 254 144 l 2,38,39
 202 144 202 144 202 185 c 0,40,41
 202 194 202 194 206 209 c 2,42,-1
 228 290 l 2,43,44
 246 355 246 355 310 355 c 2,29,-1
EndSplineSet
Validated: 1
EndChar

StartChar: greaterequal
Encoding: 8805 8805 147
Width: 1192
GlyphClass: 2
Flags: W
HStem: 144 211<236.328 1089.67>
DStem2: 1262 1006 526 1201 0.841225 -0.540685<-731.145 -166.393> 998 903 374 409 0.895917 0.444221<-808.536 0>
LayerCount: 2
Fore
SplineSet
641 1393 m 0,0,1
 660 1393 660 1393 677 1382 c 2,2,-1
 1262 1006 l 2,3,4
 1294 985 1294 985 1294 950 c 0,5,6
 1294 940 1294 940 1293 936 c 2,7,-1
 1282 895 l 2,8,9
 1271 854 1271 854 1213 825 c 2,10,-1
 374 409 l 2,11,12
 358 401 358 401 344 401 c 0,13,14
 318 401 318 401 310 428 c 2,15,-1
 290 492 l 2,16,17
 287 502 287 502 287 511 c 0,18,19
 287 540 287 540 328 561 c 2,20,-1
 998 903 l 1,21,-1
 526 1201 l 2,22,23
 504 1215 504 1215 504 1245 c 0,24,25
 504 1267 504 1267 524 1291 c 2,26,-1
 580 1358 l 2,27,28
 609 1393 609 1393 641 1393 c 0,0,1
310 355 m 2,29,-1
 1072 355 l 2,30,31
 1124 355 1124 355 1124 314 c 0,32,33
 1124 305 1124 305 1120 290 c 2,34,-1
 1098 209 l 2,35,36
 1080 144 1080 144 1016 144 c 2,37,-1
 254 144 l 2,38,39
 202 144 202 144 202 185 c 0,40,41
 202 194 202 194 206 209 c 2,42,-1
 228 290 l 2,43,44
 246 355 246 355 310 355 c 2,29,-1
EndSplineSet
Validated: 1
EndChar

StartChar: lozenge
Encoding: 9674 9674 148
Width: 1199
GlyphClass: 2
Flags: W
HStem: -20 21G<585.398 613.264> 1510 20G<990.288 1017.06>
DStem2: 268 738 519 843 0.683205 0.730227<248.158 720.762> 519 843 268 738 0.395089 -0.918643<0 585.891> 751 305 594 -20 0.693733 0.720233<0 464.766> 1009 1530 842 1188 0.373822 -0.927501<254.777 844.195>
LayerCount: 2
Fore
SplineSet
751 305 m 1,0,-1
 1069 644 l 1,1,-1
 842 1188 l 1,2,-1
 519 843 l 1,3,-1
 751 305 l 1,0,-1
594 -20 m 1,4,-1
 268 738 l 1,5,-1
 1009 1530 l 1,6,-1
 1327 741 l 1,7,-1
 594 -20 l 1,4,-1
EndSplineSet
Validated: 1
EndChar

StartChar: multiply
Encoding: 215 215 149
Width: 1142
Flags: W
DStem2: 625 754 734 605 0.785287 0.619133<-478.447 -6.65451 241.289 713.738> 814 904 625 754 0.591259 -0.806482<-361.573 0 193.837 541.454>
LayerCount: 2
Fore
SplineSet
625 1163 m 2,0,-1
 814 904 l 1,1,-1
 1143 1163 l 2,2,3
 1171 1185 1171 1185 1195 1185 c 128,-1,4
 1219 1185 1219 1185 1235 1163 c 2,5,-1
 1276 1105 l 2,6,7
 1287 1089 1287 1089 1287 1068 c 0,8,9
 1287 1041 1287 1041 1251 1013 c 2,10,-1
 923 754 l 1,11,-1
 1113 496 l 2,12,13
 1125 480 1125 480 1125 460 c 0,14,15
 1125 434 1125 434 1088 404 c 2,16,-1
 1016 346 l 2,17,18
 989 324 989 324 964 324 c 0,19,20
 940 324 940 324 924 346 c 2,21,-1
 734 605 l 1,22,-1
 406 346 l 2,23,24
 378 324 378 324 354 324 c 128,-1,25
 330 324 330 324 314 346 c 2,26,-1
 272 404 l 2,27,28
 259 422 259 422 259 443 c 0,29,30
 259 466 259 466 297 496 c 2,31,-1
 625 754 l 1,32,-1
 435 1013 l 2,33,34
 418 1036 418 1036 419 1041 c 0,35,36
 419 1072 419 1072 460 1105 c 2,37,-1
 533 1163 l 2,38,39
 561 1185 561 1185 585 1185 c 128,-1,40
 609 1185 609 1185 625 1163 c 2,0,-1
EndSplineSet
Validated: 1
EndChar

StartChar: divide
Encoding: 247 247 150
Width: 1273
Flags: W
HStem: 179 370<614.14 851.86> 649 211<321.328 1355.67> 960 370<822.14 1059.86>
VStem: 551 364<241.578 486.422> 759 364<1022.58 1267.42>
CounterMasks: 1 e0
LayerCount: 2
Fore
SplineSet
395 860 m 2,0,-1
 1338 860 l 2,1,2
 1390 860 1390 860 1390 819 c 0,3,4
 1390 808 1390 808 1386 795 c 2,5,-1
 1364 714 l 2,6,7
 1347 649 1347 649 1282 649 c 2,8,-1
 339 649 l 2,9,10
 287 649 287 649 287 690 c 0,11,12
 287 701 287 701 291 714 c 2,13,-1
 313 795 l 2,14,15
 330 860 330 860 395 860 c 2,0,-1
941 960 m 128,-1,17
 865 960 865 960 812 1014 c 128,-1,18
 759 1068 759 1068 759 1145 c 128,-1,19
 759 1222 759 1222 812 1276 c 128,-1,20
 865 1330 865 1330 941 1330 c 128,-1,21
 1017 1330 1017 1330 1070 1276 c 128,-1,22
 1123 1222 1123 1222 1123 1145 c 128,-1,23
 1123 1068 1123 1068 1070 1014 c 128,-1,16
 1017 960 1017 960 941 960 c 128,-1,17
733 179 m 128,-1,25
 657 179 657 179 604 233 c 128,-1,26
 551 287 551 287 551 364 c 128,-1,27
 551 441 551 441 604 495 c 128,-1,28
 657 549 657 549 733 549 c 128,-1,29
 809 549 809 549 862 495 c 128,-1,30
 915 441 915 441 915 364 c 128,-1,31
 915 287 915 287 862 233 c 128,-1,24
 809 179 809 179 733 179 c 128,-1,25
EndSplineSet
Validated: 1
EndChar

StartChar: g
Encoding: 103 103 151
Width: 1219
Flags: W
HStem: -430 92<280.399 548.769> -20 105<551.638 743.727> 1015 105<778.774 969.925> 1080 20G<1094.5 1305.5>
VStem: 67 315<-296.327 -92.4609> 188 313<164.527 577.658> 987 350<886.536 1075.5>
DStem2: 643.763 -430 943.379 -430 0.258819 0.965926<371.243 487.624 569.587 1372.94 1522.21 1591.92>
LayerCount: 2
Fore
SplineSet
644 85 m 0,0,1
 708 85 708 85 765 148 c 0,2,3
 813 201 813 201 847 327 c 2,4,-1
 966 773 l 2,5,6
 987 850 987 850 987 901 c 0,7,8
 987 932 987 932 979 952 c 0,9,10
 957 1015 957 1015 893 1015 c 0,11,12
 794 1015 794 1015 687 879 c 0,13,14
 594 760 594 760 537 550 c 0,15,16
 501 415 501 415 501 314 c 0,17,18
 501 263 501 263 510 221 c 0,19,20
 541 85 541 85 644 85 c 0,0,1
559 -20 m 0,21,22
 346 -20 346 -20 240 151 c 0,23,24
 188 235 188 235 188 353 c 0,25,26
 188 442 188 442 217 550 c 0,27,28
 281 788 281 788 448 942 c 0,29,30
 641 1120 641 1120 870 1120 c 0,31,32
 983 1120 983 1120 1039 1040 c 1,33,34
 1055 1100 1055 1100 1134 1100 c 2,35,-1
 1274 1100 l 2,36,37
 1337 1100 1337 1100 1337 1051 c 0,38,39
 1337 1039 1337 1039 1332 1020 c 2,40,-1
 1087 106 l 2,41,42
 1021 -141 1021 -141 831 -291 c 0,43,44
 655 -430 655 -430 409 -430 c 0,45,46
 264 -430 264 -430 173 -377 c 0,47,48
 67 -315 67 -315 67 -210 c 0,49,50
 67 -137 67 -137 117 -86 c 0,51,52
 163 -40 163 -40 228 -40 c 0,53,54
 292 -40 292 -40 337 -86 c 128,-1,55
 382 -132 382 -132 382 -195 c 0,56,57
 382 -259 382 -259 337 -297 c 0,58,59
 313 -318 313 -318 278 -324 c 1,60,61
 329 -338 329 -338 394 -338 c 0,62,63
 513 -338 513 -338 613 -246 c 0,64,65
 719 -148 719 -148 763 15 c 2,66,-1
 770 41 l 1,67,68
 680 -20 680 -20 559 -20 c 0,21,22
EndSplineSet
Validated: 1
EndChar

StartChar: k
Encoding: 107 107 152
Width: 1158
Flags: W
HStem: 0 21G<208 409 796.5 1008> 750 370<1072.9 1302.27> 1490 20G<604.5 816.5>
VStem: 833 292<233.716 440.972>
DStem2: 159.564 0 459.705 0 0.258819 0.965926<584.967 1569.85>
LayerCount: 2
Fore
SplineSet
240 0 m 2,0,1
 176 0 176 0 176 50 c 0,2,3
 176 61 176 61 181 80 c 2,4,-1
 543 1430 l 2,5,6
 564 1510 564 1510 645 1510 c 2,7,-1
 785 1510 l 2,8,9
 848 1510 848 1510 848 1460 c 0,10,11
 848 1449 848 1449 843 1430 c 2,12,-1
 591 490 l 1,13,14
 855 916 855 916 1041 1066 c 0,15,16
 1108 1120 1108 1120 1184 1120 c 128,-1,17
 1260 1120 1260 1120 1313 1066 c 128,-1,18
 1366 1012 1366 1012 1366 935 c 128,-1,19
 1366 858 1366 858 1312.5 804 c 128,-1,20
 1259 750 1259 750 1183 750 c 0,21,22
 1112 750 1112 750 1058 808 c 0,23,24
 1028 841 1028 841 1018 890 c 1,25,26
 892 742 892 742 789 586 c 1,27,28
 1125 564 1125 564 1125 333 c 0,29,30
 1125 281 1125 281 1111 230 c 2,31,-1
 1070 80 l 2,32,33
 1048 0 1048 0 968 0 c 2,34,-1
 828 0 l 2,35,36
 765 0 765 0 765 50 c 0,37,38
 765 62 765 62 770 80 c 2,39,-1
 824 279 l 2,40,41
 833 312 833 312 833 343 c 0,42,43
 833 457 833 457 712 471 c 1,44,45
 584 273 584 273 481 80 c 24,46,47
 438 0 438 0 380 0 c 2,48,-1
 240 0 l 2,0,1
EndSplineSet
Validated: 1
EndChar

StartChar: v
Encoding: 118 118 153
Width: 1242
Flags: W
HStem: -20 129<587.43 857.377> 1080 20G<494 705.5 1092 1204.5>
VStem: 246 301<147.714 486.328> 1102 254<525.629 842>
DStem2: 154.945 -20 454.677 -20 0.258819 0.965926<388.839 1166.83>
LayerCount: 2
Fore
SplineSet
602 -20 m 0,0,1
 379 -20 379 -20 295 98 c 16,2,3
 246 167 246 167 246 262 c 0,4,5
 246 320 246 320 264 387 c 2,6,-1
 433 1020 l 2,7,8
 454 1100 454 1100 534 1100 c 2,9,-1
 674 1100 l 2,10,11
 737 1100 737 1100 737 1050 c 0,12,13
 737 1035 737 1035 733 1020 c 2,14,-1
 564 388 l 2,15,16
 547 324 547 324 547 276 c 0,17,18
 547 229 547 229 562 193 c 0,19,20
 596 109 596 109 700 109 c 0,21,22
 817 109 817 109 912 186 c 0,23,24
 1048 296 1048 296 1087 458 c 0,25,26
 1102 521 1102 521 1102 577 c 0,27,28
 1102 613 1102 613 1096 646 c 0,29,30
 1080 732 1080 732 1013 794 c 0,31,32
 942 861 942 861 942 940 c 0,33,34
 942 1016 942 1016 999 1072 c 0,35,36
 1048 1120 1048 1120 1136 1120 c 0,37,38
 1273 1120 1273 1120 1327 970 c 0,39,40
 1356 891 1356 891 1356 793 c 0,41,42
 1356 686 1356 686 1321 557 c 0,43,44
 1271 372 1271 372 1137 220 c 0,45,46
 925 -20 925 -20 602 -20 c 0,0,1
EndSplineSet
Validated: 1
EndChar

StartChar: w
Encoding: 119 119 154
Width: 1892
Flags: W
HStem: -20 142<456.5 762.844 1228.62 1507.38> 1080 20G<494 705.5 1144.5 1356.5 1742 1854.5>
VStem: 245 300<148.182 478.453> 1752 254<525.629 842>
DStem2: 155.069 -20 454.265 -20 0.258819 0.965926<375.039 1166.8> 804.333 -20 1104.68 -20 0.258819 0.965926<388.998 1166.02>
LayerCount: 2
Fore
SplineSet
553 -20 m 0,0,1
 360 -20 360 -20 291 83 c 0,2,3
 245 152 245 152 245 249 c 0,4,5
 245 315 245 315 266 394 c 2,6,-1
 433 1020 l 2,7,8
 454 1100 454 1100 534 1100 c 2,9,-1
 674 1100 l 2,10,11
 737 1100 737 1100 737 1050 c 0,12,13
 737 1035 737 1035 733 1020 c 2,14,-1
 566 397 l 2,15,16
 545 319 545 319 545 262 c 0,17,18
 545 227 545 227 553 203 c 0,19,20
 580 122 580 122 672 122 c 0,21,22
 761 122 761 122 838 216 c 0,23,24
 882 270 882 270 916 397 c 2,25,-1
 1083 1020 l 2,26,27
 1104 1100 1104 1100 1185 1100 c 2,28,-1
 1325 1100 l 2,29,30
 1388 1100 1388 1100 1388 1051 c 0,31,32
 1388 1039 1388 1039 1383 1020 c 2,33,-1
 1214 388 l 2,34,35
 1197 324 1197 324 1197 276 c 0,36,37
 1197 229 1197 229 1212 193 c 0,38,39
 1246 109 1246 109 1350 109 c 0,40,41
 1467 109 1467 109 1562 186 c 0,42,43
 1698 296 1698 296 1737 458 c 0,44,45
 1752 521 1752 521 1752 577 c 0,46,47
 1752 613 1752 613 1746 646 c 0,48,49
 1730 732 1730 732 1663 794 c 0,50,51
 1592 861 1592 861 1592 940 c 0,52,53
 1592 1016 1592 1016 1649 1072 c 0,54,55
 1698 1120 1698 1120 1786 1120 c 0,56,57
 1923 1120 1923 1120 1977 970 c 0,58,59
 2006 891 2006 891 2006 793 c 0,60,61
 2006 686 2006 686 1971 557 c 0,62,63
 1921 372 1921 372 1787 220 c 0,64,65
 1575 -20 1575 -20 1252 -20 c 0,66,67
 1030 -20 1030 -20 945 98 c 0,68,69
 932 116 932 116 923 137 c 1,70,71
 764 -20 764 -20 553 -20 c 0,0,1
EndSplineSet
Validated: 1
EndChar

StartChar: y
Encoding: 121 121 155
Width: 1269
Flags: W
HStem: -430 92<330.399 598.118> -20 142<442 708.343> 1080 20G<493 704.5 1143.5 1355.5>
VStem: 117 315<-296.327 -92.4609> 244 300<147.266 478.453>
DStem2: 44.2099 -430 343.406 -430 0.258819 0.965926<799.503 1591.26> 693.763 -430 993.379 -430 0.258819 0.965926<371.722 573.49 631.653 1590.41>
LayerCount: 2
Fore
SplineSet
524 -20 m 0,0,1
 360 -20 360 -20 290 83 c 0,2,3
 244 151 244 151 244 242 c 0,4,5
 244 315 244 315 265 394 c 2,6,-1
 432 1020 l 2,7,8
 453 1100 453 1100 533 1100 c 2,9,-1
 673 1100 l 2,10,11
 736 1100 736 1100 736 1050 c 0,12,13
 736 1035 736 1035 732 1020 c 2,14,-1
 565 397 l 2,15,16
 544 319 544 319 544 262 c 0,17,18
 544 227 544 227 552 203 c 0,19,20
 579 122 579 122 671 122 c 0,21,22
 760 122 760 122 837 216 c 0,23,24
 881 270 881 270 915 397 c 2,25,-1
 1082 1020 l 2,26,27
 1103 1100 1103 1100 1184 1100 c 2,28,-1
 1324 1100 l 2,29,30
 1387 1100 1387 1100 1387 1051 c 0,31,32
 1387 1039 1387 1039 1382 1020 c 2,33,-1
 1137 106 l 2,34,35
 1071 -140 1071 -140 881 -291 c 0,36,37
 706 -430 706 -430 459 -430 c 0,38,39
 314 -430 314 -430 223 -377 c 0,40,41
 117 -315 117 -315 117 -210 c 0,42,43
 117 -137 117 -137 167 -86 c 0,44,45
 213 -40 213 -40 278 -40 c 0,46,47
 342 -40 342 -40 387 -86 c 128,-1,48
 432 -132 432 -132 432 -195 c 0,49,50
 432 -259 432 -259 387 -297 c 0,51,52
 363 -318 363 -318 328 -324 c 1,53,54
 379 -338 379 -338 444 -338 c 0,55,56
 559 -338 559 -338 663 -246 c 24,57,58
 768 -153 768 -153 813 15 c 2,59,-1
 842 124 l 1,60,61
 702 -20 702 -20 524 -20 c 0,0,1
EndSplineSet
Validated: 1
EndChar

StartChar: z
Encoding: 122 122 156
Width: 1077
Flags: W
HStem: -20 106<535.135 867.308> 1016 104<530.846 850.911>
VStem: 267 364<735.416 967.761> 767 364<129.566 364.584>
DStem2: 7 -11 474 143 0.668418 0.743786<426.694 1313.55>
LayerCount: 2
Fore
SplineSet
17 -20 m 1,0,1
 7 -11 l 1,2,-1
 885 966 l 1,3,4
 844 969 844 969 791 990 c 0,5,6
 726 1016 726 1016 652 1016 c 0,7,8
 598 1016 598 1016 529 1002 c 1,9,10
 556 995 556 995 576 978 c 0,11,12
 631 933 631 933 631 855 c 0,13,14
 631 780 631 780 579 727 c 0,15,16
 525 672 525 672 449 672 c 128,-1,17
 373 672 373 672 320 726 c 128,-1,18
 267 780 267 780 267 857 c 0,19,20
 267 891 267 891 280 929 c 0,21,22
 305 1002 305 1002 389 1054 c 0,23,24
 494 1120 494 1120 673 1120 c 0,25,26
 772 1120 772 1120 891 1088 c 0,27,28
 977 1065 977 1065 1089.5 1065 c 128,-1,29
 1202 1065 1202 1065 1333 1120 c 1,30,31
 1343 1111 l 1,32,-1
 474 143 l 1,33,34
 527 137 527 137 599 109 c 0,35,36
 658 86 658 86 744 86 c 0,37,38
 810 86 810 86 869 98 c 1,39,40
 842 104 842 104 821 121 c 0,41,42
 767 165 767 165 767 245 c 0,43,44
 767 320 767 320 819 373 c 0,45,46
 873 428 873 428 949 428 c 128,-1,47
 1025 428 1025 428 1078 374 c 128,-1,48
 1131 320 1131 320 1131 243 c 0,49,50
 1131 209 1131 209 1118 171 c 0,51,52
 1093 98 1093 98 1009 46 c 0,53,54
 904 -20 904 -20 725 -20 c 0,55,56
 625 -20 625 -20 512 8 c 0,57,58
 406 35 406 35 298 35 c 0,59,60
 160 35 160 35 17 -20 c 1,0,1
EndSplineSet
Validated: 1
EndChar

StartChar: x
Encoding: 120 120 157
Width: 966
Flags: W
HStem: 0 21G<62 227 629 833.5> 1080 20G<320.5 525 966 1042>
VStem: 822 364<821.394 1056.26>
DStem2: 587 1020 293 1020 0.279843 -0.960046<-91.4626 516.76 623.205 660.393 768.686 988.309>
LayerCount: 2
Fore
SplineSet
69 0 m 2,0,1
 55 0 55 0 55 9.5 c 128,-1,2
 55 19 55 19 66 26 c 0,3,4
 316 177 316 177 496 323 c 1,5,-1
 293 1020 l 2,6,7
 289 1034 289 1034 289 1050 c 0,8,9
 289 1100 289 1100 352 1100 c 2,10,-1
 486 1100 l 2,11,12
 564 1100 564 1100 587 1020 c 2,13,-1
 732 524 l 1,14,15
 865 640 865 640 969 768 c 1,16,17
 918 776 918 776 881 807 c 0,18,19
 822 856 822 856 822 936 c 0,20,21
 822 1013 822 1013 875 1066.5 c 128,-1,22
 928 1120 928 1120 1004 1120 c 128,-1,23
 1080 1120 1080 1120 1133 1066 c 128,-1,24
 1186 1012 1186 1012 1186 935 c 0,25,26
 1186 904 1186 904 1176 873 c 0,27,28
 1161 826 1161 826 1131 786 c 0,29,30
 1072 708 1072 708 989 616 c 0,31,32
 930 551 930 551 768 402 c 1,33,-1
 861 80 l 2,34,35
 865 66 865 66 865 50 c 0,36,37
 865 0 865 0 802 0 c 2,38,-1
 668 0 l 2,39,40
 590 0 590 0 567 80 c 2,41,-1
 531 203 l 1,42,43
 414 106 414 106 276 23 c 24,44,45
 239 0 239 0 215 0 c 2,46,-1
 69 0 l 2,0,1
EndSplineSet
Validated: 1
EndChar

StartChar: AE
Encoding: 198 198 158
Width: 2070
Flags: W
HStem: -20 105<1452.61 1792.61> 0 21G<24 108> 491 121<551 1001> 1435 95<1802.11 2032.35> 1490 20G<903 1142>
VStem: 1358 312<970.494 1274.89> 1868 371<1124.51 1352.53>
DStem2: 16 50 163 50 0.563297 0.826255<-8.20144 618.988 765.719 1416.97> 1194 1430 878 1411 0.152225 -0.988346<-76.1006 50.5816 234.723 633.318>
LayerCount: 2
Fore
SplineSet
1001 612 m 1,0,-1
 918 1150 l 1,1,-1
 551 612 l 1,2,-1
 1001 612 l 1,0,-1
41 0 m 2,3,4
 7 0 7 0 7 26 c 0,5,6
 7 37 7 37 16 50 c 2,7,-1
 890 1332 l 1,8,-1
 878 1411 l 2,9,10
 873 1444 873 1444 873 1458 c 0,11,12
 873 1510 873 1510 933 1510 c 2,13,-1
 1102 1510 l 2,14,15
 1182 1510 1182 1510 1194 1430 c 2,16,-1
 1290 804 l 1,17,18
 1391 868 1391 868 1509 889 c 1,19,20
 1447 918 1447 918 1410 961 c 0,21,22
 1358 1022 1358 1022 1358 1108 c 0,23,24
 1358 1151 1358 1151 1371 1199 c 0,25,26
 1409 1339 1409 1339 1566 1437 c 0,27,28
 1717 1530 1717 1530 1927 1530 c 0,29,30
 2083 1530 2083 1530 2176 1426 c 0,31,32
 2239 1355 2239 1355 2239 1264 c 0,33,34
 2239 1168 2239 1168 2178 1106 c 0,35,36
 2126 1053 2126 1053 2048 1053 c 128,-1,37
 1970 1053 1970 1053 1919 1103 c 128,-1,38
 1868 1153 1868 1153 1868 1232 c 0,39,40
 1868 1320 1868 1320 1928 1368 c 0,41,42
 1971 1403 1971 1403 2035 1408 c 1,43,44
 1994 1435 1994 1435 1930 1435 c 0,45,46
 1858 1435 1858 1435 1799 1388 c 0,47,48
 1720 1325 1720 1325 1686 1200 c 0,49,50
 1670 1140 1670 1140 1670 1093 c 0,51,52
 1670 1032 1670 1032 1696 990 c 0,53,54
 1742 918 1742 918 1869 874 c 1,55,-1
 1865 859 l 1,56,57
 1720 845 1720 845 1577 750 c 128,-1,58
 1434 655 1434 655 1386 475 c 0,59,60
 1364 392 1364 392 1363 327 c 0,61,62
 1363 250 1363 250 1394 196 c 0,63,64
 1457 85 1457 85 1600 85 c 0,65,66
 1755 85 1755 85 1882 181 c 0,67,68
 1992 265 1992 265 2098 390 c 1,69,-1
 2114 390 l 1,70,-1
 2061 189 l 1,71,-1
 2058 188 l 1,72,73
 1835 -20 1835 -20 1530 -20 c 0,74,75
 1418 -20 1418 -20 1331 0 c 1,76,-1
 1175 0 l 2,77,78
 1095 0 1095 0 1083 80 c 2,79,-1
 1020 491 l 1,80,-1
 468 491 l 1,81,-1
 163 50 l 2,82,83
 128 0 128 0 88 0 c 2,84,-1
 41 0 l 2,3,4
EndSplineSet
Validated: 1
EndChar

StartChar: Eth
Encoding: 208 208 159
Width: 1515
Flags: W
HStem: 0 110<597.246 898.483> 585 120<230.543 388 740 1001.46> 1410 120<819.554 1172.23>
VStem: 248 349<25 193.516> 1323 350<746.255 1234.24>
DStem2: 231.564 0 551.09 0 0.258819 0.965926<249.464 605.555 812.571 1254.88>
LayerCount: 2
Fore
SplineSet
311 0 m 2,0,1
 248 0 248 0 248 50 c 0,2,3
 248 61 248 61 253 80 c 2,4,-1
 388 585 l 1,5,-1
 250 585 l 2,6,7
 217 585 217 585 217 608 c 0,8,9
 217 613 217 613 219 620 c 2,10,-1
 233 670 l 2,11,12
 243 705 243 705 282 705 c 2,13,-1
 420 705 l 1,14,-1
 532 1125 l 2,15,16
 553 1205 553 1205 634 1205 c 2,17,-1
 794 1205 l 2,18,19
 856 1205 856 1205 856 1155 c 0,20,21
 856 1140 856 1140 852 1125 c 2,22,-1
 740 705 l 1,23,-1
 982 705 l 2,24,25
 1015 705 1015 705 1015 682 c 0,26,27
 1015 677 1015 677 1013 670 c 2,28,-1
 999 620 l 2,29,30
 989 585 989 585 950 585 c 2,31,-1
 708 585 l 1,32,-1
 602 190 l 2,33,34
 597 171 597 171 597 160 c 0,35,36
 597 110 597 110 660 110 c 2,37,-1
 711 110 l 2,38,39
 938 110 938 110 1085 318 c 0,40,41
 1213 498 1213 498 1282 755 c 0,42,43
 1323 906 1323 906 1323 1030 c 0,44,45
 1323 1116 1323 1116 1303 1189 c 0,46,47
 1242 1410 1242 1410 989 1410 c 0,48,49
 602 1410 602 1410 252 1036 c 1,50,-1
 240 1044 l 1,51,52
 578 1530 578 1530 1123 1530 c 0,53,54
 1436 1530 1436 1530 1572 1338 c 0,55,56
 1673 1195 1673 1195 1673 1002 c 0,57,58
 1673 887 1673 887 1637 755 c 0,59,60
 1555 451 1555 451 1335 239 c 0,61,62
 1087 0 1087 0 705 0 c 2,63,-1
 311 0 l 2,0,1
EndSplineSet
Validated: 1
EndChar

StartChar: Dcroat
Encoding: 272 272 160
Width: 1515
Flags: W
HStem: 0 110<597.246 898.483> 585 120<230.543 388 740 1001.46> 1410 120<819.554 1172.23>
VStem: 248 349<25 193.516> 1323 350<746.255 1234.24>
DStem2: 231.564 0 551.09 0 0.258819 0.965926<249.464 605.555 812.571 1254.88>
LayerCount: 2
Fore
SplineSet
311 0 m 2,0,1
 248 0 248 0 248 50 c 0,2,3
 248 61 248 61 253 80 c 2,4,-1
 388 585 l 1,5,-1
 250 585 l 2,6,7
 217 585 217 585 217 608 c 0,8,9
 217 613 217 613 219 620 c 2,10,-1
 233 670 l 2,11,12
 243 705 243 705 282 705 c 2,13,-1
 420 705 l 1,14,-1
 532 1125 l 2,15,16
 553 1205 553 1205 634 1205 c 2,17,-1
 794 1205 l 2,18,19
 856 1205 856 1205 856 1155 c 0,20,21
 856 1140 856 1140 852 1125 c 2,22,-1
 740 705 l 1,23,-1
 982 705 l 2,24,25
 1015 705 1015 705 1015 682 c 0,26,27
 1015 677 1015 677 1013 670 c 2,28,-1
 999 620 l 2,29,30
 989 585 989 585 950 585 c 2,31,-1
 708 585 l 1,32,-1
 602 190 l 2,33,34
 597 171 597 171 597 160 c 0,35,36
 597 110 597 110 660 110 c 2,37,-1
 711 110 l 2,38,39
 938 110 938 110 1085 318 c 0,40,41
 1213 498 1213 498 1282 755 c 0,42,43
 1323 906 1323 906 1323 1030 c 0,44,45
 1323 1116 1323 1116 1303 1189 c 0,46,47
 1242 1410 1242 1410 989 1410 c 0,48,49
 602 1410 602 1410 252 1036 c 1,50,-1
 240 1044 l 1,51,52
 578 1530 578 1530 1123 1530 c 0,53,54
 1436 1530 1436 1530 1572 1338 c 0,55,56
 1673 1195 1673 1195 1673 1002 c 0,57,58
 1673 887 1673 887 1637 755 c 0,59,60
 1555 451 1555 451 1335 239 c 0,61,62
 1087 0 1087 0 705 0 c 2,63,-1
 311 0 l 2,0,1
EndSplineSet
Validated: 1
EndChar

StartChar: Hbar
Encoding: 294 294 161
Width: 1418
Flags: W
HStem: 0 21G<227.5 459 965.5 1197.5> 586 121<689 1075> 1194 120<455.543 500 852 1238 1590 1633.46> 1490 20G<624.5 856.5 1362.5 1594.5>
DStem2: 179.564 0 499.564 0 0.258819 0.965926<76.2148 689.602 814.761 1236.25 1443.27 1569.85> 917.564 0 1237.56 0 0.258819 0.965926<76.3118 606.78 731.939 1236.25 1443.27 1569.85>
LayerCount: 2
Fore
SplineSet
259 0 m 2,0,1
 196 0 196 0 196 50 c 0,2,3
 196 61 196 61 201 80 c 2,4,-1
 500 1194 l 1,5,-1
 475 1194 l 2,6,7
 442 1194 442 1194 442 1216 c 0,8,9
 442 1222 442 1222 444 1229 c 2,10,-1
 458 1279 l 2,11,12
 468 1314 468 1314 507 1314 c 2,13,-1
 532 1314 l 1,14,-1
 563 1430 l 2,15,16
 584 1510 584 1510 665 1510 c 2,17,-1
 825 1510 l 2,18,19
 888 1510 888 1510 888 1460 c 0,20,21
 888 1449 888 1449 883 1430 c 2,22,-1
 852 1314 l 1,23,-1
 1270 1314 l 1,24,-1
 1301 1430 l 2,25,26
 1322 1510 1322 1510 1403 1510 c 2,27,-1
 1563 1510 l 2,28,29
 1626 1510 1626 1510 1626 1460 c 0,30,31
 1626 1449 1626 1449 1621 1430 c 2,32,-1
 1590 1314 l 1,33,-1
 1614 1314 l 2,34,35
 1647 1314 1647 1314 1647 1292 c 0,36,37
 1647 1286 1647 1286 1645 1279 c 2,38,-1
 1631 1229 l 2,39,40
 1621 1194 1621 1194 1582 1194 c 2,41,-1
 1558 1194 l 1,42,-1
 1259 80 l 2,43,44
 1238 0 1238 0 1157 0 c 2,45,-1
 997 0 l 2,46,47
 934 0 934 0 934 50 c 0,48,49
 934 61 934 61 939 80 c 2,50,-1
 1075 586 l 1,51,-1
 657 586 l 1,52,-1
 521 80 l 2,53,54
 499 0 499 0 419 0 c 2,55,-1
 259 0 l 2,0,1
1238 1194 m 1,56,-1
 820 1194 l 1,57,-1
 689 707 l 1,58,-1
 1107 707 l 1,59,-1
 1238 1194 l 1,56,-1
EndSplineSet
Validated: 1
EndChar

StartChar: Lslash
Encoding: 321 321 162
Width: 1250
Flags: W
HStem: -20 105<678.755 1045.23> 35 112<540 772.222> 1490 20G<625.5 857.5>
VStem: 945 364<129.566 364.584>
DStem2: 174.785 -20 495.252 -20 0.258819 0.965926<255.834 503.142 652.329 777.601 927.755 1590.64> 197 536 305 466 0.893985 0.448096<-46.2929 65.1837 578.695 930.366>
LayerCount: 2
Fore
SplineSet
184 -20 m 1,0,-1
 178 -8 l 1,1,-1
 305 466 l 1,2,-1
 230 428 l 2,3,4
 214 420 214 420 201 420 c 0,5,6
 184 420 184 420 177 443 c 2,7,-1
 166 479 l 2,8,9
 162 492 162 492 162 502 c 0,10,11
 162 518 162 518 197 536 c 2,12,-1
 344 610 l 1,13,-1
 564 1430 l 2,14,15
 585 1510 585 1510 666 1510 c 2,16,-1
 826 1510 l 2,17,18
 889 1510 889 1510 889 1460 c 0,19,20
 889 1449 889 1449 884 1430 c 2,21,-1
 714 796 l 1,22,-1
 1007 942 l 2,23,24
 1021 949 1021 949 1031 949 c 0,25,26
 1053 949 1053 949 1060 926 c 2,27,-1
 1071 891 l 2,28,29
 1074 881 1074 881 1074 874 c 0,30,31
 1074 851 1074 851 1040 834 c 2,32,-1
 675 651 l 1,33,-1
 540 147 l 1,34,35
 621 147 621 147 733.5 116 c 128,-1,36
 846 85 846 85 929 85 c 0,37,38
 983 85 983 85 1047 98 c 1,39,40
 1020 104 1020 104 999 121 c 0,41,42
 945 165 945 165 945 245 c 0,43,44
 945 320 945 320 997 373 c 0,45,46
 1051 428 1051 428 1127 428 c 128,-1,47
 1203 428 1203 428 1256 374 c 128,-1,48
 1309 320 1309 320 1309 243 c 0,49,50
 1309 209 1309 209 1296 171 c 0,51,52
 1271 98 1271 98 1187 46 c 0,53,54
 1082 -20 1082 -20 903 -20 c 0,55,56
 796 -20 796 -20 688 8 c 0,57,58
 584 35 584 35 499 35 c 0,59,60
 353 35 353 35 184 -20 c 1,0,-1
EndSplineSet
Validated: 1
EndChar

StartChar: Eng
Encoding: 330 330 163
Width: 1480
Flags: W
HStem: -430 21G<658 918.5> 0 21G<228 459.5> 1388 142<1020.17 1239.19> 1490 20G<624.5 856.5>
VStem: 1288 321<996.562 1338.13>
DStem2: 64.3459 -430 384.346 -430 0.258819 0.965926<521.481 1868.74 1954.65 2015.02> 863.782 -430 1183.78 -430 0.258819 0.965926<301.869 1694>
LayerCount: 2
Fore
SplineSet
259 0 m 2,0,1
 197 0 197 0 197 50 c 0,2,3
 197 65 197 65 201 80 c 2,4,-1
 563 1430 l 2,5,6
 584 1510 584 1510 665 1510 c 2,7,-1
 825 1510 l 2,8,9
 888 1510 888 1510 888 1460 c 0,10,11
 888 1449 888 1449 883 1430 c 2,12,-1
 869 1378 l 1,13,14
 1020 1530 1020 1530 1224 1530 c 0,15,16
 1487 1530 1487 1530 1576 1366 c 0,17,18
 1609 1305 1609 1305 1609 1222 c 0,19,20
 1609 1154 1609 1154 1586 1068 c 2,21,-1
 1299 0 l 2,22,23
 1183 -430 1183 -430 654 -430 c 1,24,-1
 658 -415 l 1,25,26
 896 -309 896 -309 979 0 c 2,27,-1
 1263 1058 l 2,28,29
 1288 1151 1288 1151 1288 1212 c 0,30,31
 1288 1239 1288 1239 1283 1260 c 0,32,33
 1253 1388 1253 1388 1113 1388 c 0,34,35
 974 1388 974 1388 874 1265 c 0,36,37
 822 1201 822 1201 790 1082 c 2,38,-1
 521 80 l 2,39,40
 500 0 500 0 419 0 c 2,41,-1
 259 0 l 2,0,1
EndSplineSet
Validated: 1
EndChar

StartChar: Oslash
Encoding: 216 216 164
Width: 1443
Flags: W
HStem: -20 105<627.782 883.151> 1425 105<965.663 1218.17>
VStem: 242 320<298.649 693.349> 1287 320<819.164 1208.88>
DStem2: 355 -36 466 -80 0.534384 0.845242<-17.7166 120.774 395.066 1550.77 1824.79 1968.38>
LayerCount: 2
Fore
SplineSet
717 -20 m 0,0,1
 606 -20 606 -20 521 8 c 1,2,-1
 466 -80 l 2,3,4
 449 -108 449 -108 425 -108 c 0,5,6
 418 -108 418 -108 408 -104 c 2,7,-1
 366 -87 l 2,8,9
 347 -79 347 -79 347 -52 c 0,10,11
 347 -49 347 -49 355 -36 c 2,12,-1
 416 61 l 1,13,14
 374 91 374 91 338 142 c 0,15,16
 242 278 242 278 242 474 c 0,17,18
 242 602 242 602 283 755 c 0,19,20
 386 1141 386 1141 667 1368 c 0,21,22
 867 1530 867 1530 1132 1530 c 0,23,24
 1243 1530 1243 1530 1327 1502 c 1,25,-1
 1383 1590 l 2,26,27
 1401 1618 1401 1618 1423 1618 c 0,28,29
 1427 1618 1427 1618 1440 1614 c 2,30,-1
 1483 1601 l 2,31,32
 1504 1595 1504 1595 1504 1576 c 0,33,34
 1504 1563 1504 1563 1493 1546 c 2,35,-1
 1432 1449 l 1,36,37
 1478 1416 1478 1416 1511 1368 c 0,38,39
 1607 1232 1607 1232 1607 1037 c 0,40,41
 1607 909 1607 909 1565 755 c 0,42,43
 1461 367 1461 367 1182 142 c 0,44,45
 982 -20 982 -20 717 -20 c 0,0,1
745 85 m 0,46,47
 862 85 862 85 965 202 c 0,48,49
 1127 386 1127 386 1226 755 c 0,50,51
 1287 981 1287 981 1287 1138 c 0,52,53
 1287 1177 1287 1177 1283 1212 c 1,54,-1
 611 151 l 1,55,56
 650 85 650 85 745 85 c 0,46,47
566 298 m 1,57,-1
 1237 1359 l 1,58,59
 1192 1425 1192 1425 1104 1425 c 0,60,61
 987 1425 987 1425 883 1308 c 0,62,63
 721 1124 721 1124 622 755 c 0,64,65
 562 529 562 529 562 373 c 0,66,67
 562 333 562 333 566 298 c 1,57,-1
EndSplineSet
Validated: 1
EndChar

StartChar: OE
Encoding: 338 338 165
Width: 2002
Flags: W
HStem: -20 105<629.497 880.69 1386.6 1724.36> 1425 105<964.625 1216.45 1721.99 1964.35>
VStem: 242 319<234.088 693.61> 1285 316<967.921 1274.89> 1800 371<1124.51 1352.53>
LayerCount: 2
Fore
SplineSet
716 -20 m 0,0,1
 451 -20 451 -20 337 142 c 0,2,3
 242 279 242 279 242 474 c 0,4,5
 242 602 242 602 282 755 c 0,6,7
 382 1139 382 1139 666 1368 c 0,8,9
 866 1530 866 1530 1131 1530 c 0,10,11
 1352 1530 1352 1530 1468 1417 c 1,12,13
 1483 1427 1483 1427 1498 1437 c 0,14,15
 1638 1530 1638 1530 1859 1530 c 0,16,17
 2015 1530 2015 1530 2108 1426 c 0,18,19
 2171 1355 2171 1355 2171 1264 c 0,20,21
 2171 1168 2171 1168 2110 1106 c 0,22,23
 2058 1053 2058 1053 1980 1053 c 128,-1,24
 1902 1053 1902 1053 1851 1103 c 128,-1,25
 1800 1153 1800 1153 1800 1232 c 0,26,27
 1800 1320 1800 1320 1860 1368 c 0,28,29
 1903 1403 1903 1403 1967 1408 c 1,30,31
 1926 1435 1926 1435 1862 1435 c 0,32,33
 1790 1435 1790 1435 1731 1388 c 8,34,35
 1652 1326 1652 1326 1617 1198 c 0,36,37
 1601 1139 1601 1139 1601 1092 c 0,38,39
 1601 1030 1601 1030 1628 988 c 0,40,41
 1674 916 1674 916 1801 872 c 1,42,-1
 1797 857 l 1,43,44
 1685 848 1685 848 1573 788 c 1,45,46
 1569 772 1569 772 1564 755 c 0,47,48
 1473 446 1473 446 1303 256 c 1,49,50
 1310 223 1310 223 1326 196 c 0,51,52
 1391 85 1391 85 1532 85 c 0,53,54
 1687 85 1687 85 1814 181 c 0,55,56
 1924 265 1924 265 2030 390 c 1,57,-1
 2046 390 l 1,58,-1
 1993 189 l 1,59,-1
 1990 188 l 1,60,61
 1766 -20 1766 -20 1462 -20 c 0,62,63
 1215 -20 1215 -20 1089 78 c 1,64,65
 1032 44 1032 44 975 24 c 0,66,67
 850 -20 850 -20 716 -20 c 0,0,1
744 85 m 128,-1,69
 861 85 861 85 964 202 c 0,70,71
 1126 386 1126 386 1225 755 c 0,72,73
 1285 979 1285 979 1285 1135 c 0,74,75
 1285 1236 1285 1236 1260 1308 c 0,76,77
 1219 1425 1219 1425 1102.5 1425 c 128,-1,78
 986 1425 986 1425 882 1308 c 0,79,80
 720 1124 720 1124 621 755 c 0,81,82
 561 531 561 531 561 375 c 0,83,84
 561 274 561 274 586 202 c 0,85,68
 627 85 627 85 744 85 c 128,-1,69
EndSplineSet
Validated: 1
EndChar

StartChar: Scommaaccent
Encoding: 536 536 166
Width: 1283
Flags: W
HStem: -428 21G<265.333 332.888> -20 106<371.87 767.349> 172 369<315.034 453.821> 1423 107<892.894 1210.67>
VStem: 146 375<238.372 468.859> 460 288<1059 1235.2> 1020 318<360.639 596.952> 1039 373<1106.09 1332.18>
DStem2: 922 986 672 778 0.902391 -0.430917<-198.903 235.433>
LayerCount: 2
Fore
SplineSet
578 -80 m 0,0,1
 643 -80 643 -80 671 -130 c 0,2,3
 685 -155 685 -155 685 -190 c 0,4,5
 685 -282 685 -282 576 -321 c 2,6,-1
 277 -428 l 1,7,-1
 263 -404 l 1,8,-1
 474 -138 l 2,9,10
 520 -80 520 -80 578 -80 c 0,0,1
594.5 -20 m 128,-1,12
 339 -20 339 -20 221 122 c 0,13,14
 146 212 146 212 146 320 c 0,15,16
 146 423 146 423 204 485 c 0,17,18
 257 541 257 541 337 541 c 128,-1,19
 417 541 417 541 469 488 c 128,-1,20
 521 435 521 435 521 355 c 0,21,22
 521 273 521 273 459 220 c 0,23,24
 404 172 404 172 314 172 c 1,25,26
 400 86 400 86 587 86 c 0,27,28
 744 86 744 86 888 209 c 0,29,30
 1002 306 1002 306 1018 443 c 0,31,32
 1020 460 1020 460 1020 475 c 0,33,34
 1020 613 1020 613 830 703 c 2,35,-1
 672 778 l 2,36,37
 460 879 460 879 460 1059 c 0,38,39
 460 1096 460 1096 469 1137 c 0,40,41
 508 1312 508 1312 690 1431 c 0,42,43
 842 1530 842 1530 1043 1530 c 0,44,45
 1260 1530 1260 1530 1364 1381 c 0,46,47
 1412 1312 1412 1312 1412 1232 c 0,48,49
 1412 1148 1412 1148 1353 1089 c 0,50,51
 1297 1032 1297 1032 1218 1032 c 0,52,53
 1142 1032 1142 1032 1091 1086 c 0,54,55
 1039 1141 1039 1141 1039 1215 c 0,56,57
 1039 1291 1039 1291 1091 1340 c 0,58,59
 1139 1385 1139 1385 1212 1388 c 1,60,61
 1151 1423 1151 1423 1073 1423 c 0,62,63
 955 1423 955 1423 867 1362 c 0,64,65
 776 1299 776 1299 752 1199 c 0,66,67
 748 1182 748 1182 748 1165 c 0,68,69
 748 1069 748 1069 922 986 c 2,70,-1
 1100 901 l 2,71,72
 1338 787 1338 787 1338 562 c 0,73,74
 1338 518 1338 518 1329 470 c 0,75,76
 1291 266 1291 266 1069 122 c 0,77,11
 850 -20 850 -20 594.5 -20 c 128,-1,12
EndSplineSet
Validated: 1
EndChar

StartChar: Tbar
Encoding: 358 358 167
Width: 1325
Flags: W
HStem: 0 21G<558.5 790.5> 555 120<489.891 659 1011 1197.44> 1390 120<739.27 1425.52>
VStem: 1292 369<1120.06 1327.95>
DStem2: 510.564 0 830.564 0 0.258819 0.965926<76.3118 574.507 781.522 1254.88>
LayerCount: 2
Fore
SplineSet
1045 1510 m 2,0,-1
 1314 1510 l 2,1,2
 1518 1510 1518 1510 1613 1391 c 0,3,4
 1661 1331 1661 1331 1661 1250 c 0,5,6
 1661 1167 1661 1167 1603 1104 c 0,7,8
 1549 1045 1549 1045 1470 1045 c 0,9,10
 1389 1045 1389 1045 1340 1097 c 0,11,12
 1292 1147 1292 1147 1292 1212 c 0,13,14
 1292 1287 1292 1287 1345 1337 c 0,15,16
 1379 1370 1379 1370 1429 1381 c 1,17,18
 1386 1390 1386 1390 1313 1390 c 2,19,-1
 1004 1390 l 2,20,21
 523 1390 523 1390 236 1015 c 1,22,-1
 224 1023 l 1,23,24
 486 1510 486 1510 1045 1510 c 2,0,-1
590 0 m 2,25,26
 527 0 527 0 527 50 c 0,27,28
 527 61 527 61 532 80 c 2,29,-1
 659 555 l 1,30,-1
 510 555 l 2,31,32
 477 555 477 555 477 578 c 0,33,34
 477 582 477 582 479 590 c 2,35,-1
 492 640 l 2,36,37
 501 675 501 675 542 675 c 2,38,-1
 691 675 l 1,39,-1
 811 1125 l 2,40,41
 832 1205 832 1205 913 1205 c 2,42,-1
 1073 1205 l 2,43,44
 1135 1205 1135 1205 1135 1155 c 0,45,46
 1135 1140 1135 1140 1131 1125 c 2,47,-1
 1011 675 l 1,48,-1
 1178 675 l 2,49,50
 1210 675 1210 675 1210 654 c 0,51,52
 1210 648 1210 648 1208 640 c 2,53,-1
 1195 590 l 2,54,55
 1186 555 1186 555 1146 555 c 2,56,-1
 979 555 l 1,57,-1
 852 80 l 2,58,59
 831 0 831 0 750 0 c 2,60,-1
 590 0 l 2,25,26
EndSplineSet
Validated: 1
EndChar

StartChar: uni021A
Encoding: 538 538 168
Width: 1325
Flags: W
HStem: -428 21G<234.333 301.888> 0 21G<558.5 790.5> 1390 120<739.27 1425.52>
VStem: 1292 369<1120.06 1327.95>
DStem2: 395.882 -428 715.882 -428 0.258819 0.965926<519.41 1697.98>
LayerCount: 2
Fore
SplineSet
590 0 m 2,0,1
 527 0 527 0 527 50 c 0,2,3
 527 61 527 61 532 80 c 2,4,-1
 811 1125 l 2,5,6
 832 1205 832 1205 913 1205 c 2,7,-1
 1073 1205 l 2,8,9
 1135 1205 1135 1205 1135 1155 c 0,10,11
 1135 1140 1135 1140 1131 1125 c 2,12,-1
 852 80 l 2,13,14
 831 0 831 0 750 0 c 2,15,-1
 590 0 l 2,0,1
1045 1510 m 2,16,-1
 1314 1510 l 2,17,18
 1518 1510 1518 1510 1613 1391 c 0,19,20
 1661 1331 1661 1331 1661 1250 c 0,21,22
 1661 1167 1661 1167 1603 1104 c 0,23,24
 1549 1045 1549 1045 1470 1045 c 0,25,26
 1389 1045 1389 1045 1340 1097 c 0,27,28
 1292 1147 1292 1147 1292 1212 c 0,29,30
 1292 1287 1292 1287 1345 1337 c 0,31,32
 1379 1370 1379 1370 1429 1381 c 1,33,34
 1386 1390 1386 1390 1313 1390 c 2,35,-1
 1004 1390 l 2,36,37
 523 1390 523 1390 236 1015 c 1,38,-1
 224 1023 l 1,39,40
 486 1510 486 1510 1045 1510 c 2,16,-1
547 -80 m 0,41,42
 612 -80 612 -80 640 -130 c 0,43,44
 654 -155 654 -155 654 -190 c 0,45,46
 654 -282 654 -282 545 -321 c 2,47,-1
 246 -428 l 1,48,-1
 232 -404 l 1,49,-1
 443 -138 l 2,50,51
 489 -80 489 -80 547 -80 c 0,41,42
EndSplineSet
Validated: 1
EndChar

StartChar: uni1E02
Encoding: 7682 7682 169
Width: 1418
Flags: W
HStem: 0 110<597.246 895.907> 1410 120<797.888 1110.13> 1560 370<995.14 1232.86>
VStem: 248 349<25 189.609> 932 364<1622.58 1867.42> 1136 339<384.454 710.304> 1171 326<1082.54 1354.46>
DStem2: 231.564 0 551.09 0 0.258819 0.965926<249.464 1254.88>
LayerCount: 2
Fore
SplineSet
311 0 m 2,0,1
 248 0 248 0 248 50 c 0,2,3
 248 61 248 61 253 80 c 2,4,-1
 532 1125 l 2,5,6
 553 1205 553 1205 634 1205 c 2,7,-1
 794 1205 l 2,8,9
 856 1205 856 1205 856 1155 c 0,10,11
 856 1140 856 1140 852 1125 c 2,12,-1
 602 190 l 2,13,14
 597 171 597 171 597 160 c 0,15,16
 597 110 597 110 660 110 c 2,17,-1
 711 110 l 2,18,19
 881 110 881 110 991 229 c 0,20,21
 1084 328 1084 328 1123 476 c 0,22,23
 1136 525 1136 525 1136 569 c 0,24,25
 1136 661 1136 661 1077 729 c 0,26,27
 1000 819 1000 819 836 848 c 1,28,29
 950 876 950 876 1027 947 c 0,30,31
 1128 1040 1128 1040 1159 1156 c 0,32,33
 1171 1202 1171 1202 1171 1240 c 0,34,35
 1171 1297 1171 1297 1143 1335 c 0,36,37
 1088 1410 1088 1410 958 1410 c 0,38,39
 588 1410 588 1410 251 1036 c 1,40,-1
 240 1044 l 1,41,42
 569 1530 569 1530 1091 1530 c 0,43,44
 1352 1530 1352 1530 1448 1396 c 0,45,46
 1497 1328 1497 1328 1497 1245 c 0,47,48
 1497 1204 1497 1204 1485 1161 c 0,49,50
 1448 1030 1448 1030 1317 936 c 0,51,52
 1254 891 1254 891 1175 861 c 1,53,54
 1287 844 1287 844 1355 794 c 0,55,56
 1475 706 1475 706 1475 570 c 0,57,58
 1475 512 1475 512 1458 449 c 0,59,60
 1401 236 1401 236 1192.5 118 c 128,-1,61
 984 0 984 0 705 0 c 2,62,-1
 311 0 l 2,0,1
1114 1930 m 128,-1,64
 1190 1930 1190 1930 1243 1876 c 128,-1,65
 1296 1822 1296 1822 1296 1745 c 128,-1,66
 1296 1668 1296 1668 1243 1614 c 128,-1,67
 1190 1560 1190 1560 1114 1560 c 128,-1,68
 1038 1560 1038 1560 985 1614 c 128,-1,69
 932 1668 932 1668 932 1745 c 128,-1,70
 932 1822 932 1822 985 1876 c 128,-1,63
 1038 1930 1038 1930 1114 1930 c 128,-1,64
EndSplineSet
Validated: 1
EndChar

StartChar: uni1E03
Encoding: 7683 7683 170
Width: 1219
Flags: W
HStem: -20 105<543.757 735.734> 1015 105<775.334 963.457> 1490 20G<604.5 816.5> 1560 370<669.14 906.86>
VStem: 255 272<114.726 412.792> 606 364<1622.58 1867.42> 1012 311<518.211 938.493>
DStem2: 154.724 -20 455.022 -20 0.258819 0.965926<315.165 1112.79 1191.59 1590.42>
LayerCount: 2
Fore
SplineSet
619 -20 m 0,0,1
 391 -20 391 -20 298 116 c 16,2,3
 255 179 255 179 255 277 c 0,4,5
 255 354 255 354 282 455 c 2,6,-1
 543 1430 l 2,7,8
 564 1510 564 1510 645 1510 c 2,9,-1
 785 1510 l 2,10,11
 848 1510 848 1510 848 1460 c 0,12,13
 848 1449 848 1449 843 1430 c 2,14,-1
 743 1056 l 1,15,16
 838 1120 838 1120 958 1120 c 0,17,18
 1145 1120 1145 1120 1236 1004 c 0,19,20
 1323 894 1323 894 1323 738 c 0,21,22
 1323 651 1323 651 1296 550 c 0,23,24
 1228 296 1228 296 1060 152 c 0,25,26
 859 -20 859 -20 619 -20 c 0,0,1
870 1015 m 0,27,28
 806 1015 806 1015 749 952 c 0,29,30
 701 899 701 899 667 773 c 2,31,-1
 548 327 l 2,32,33
 527 250 527 250 527 199 c 0,34,35
 527 168 527 168 535 148 c 0,36,37
 557 85 557 85 621 85 c 0,38,39
 720 85 720 85 827 221 c 0,40,41
 920 340 920 340 976 550 c 0,42,43
 1012 687 1012 687 1012 789 c 0,44,45
 1012 838 1012 838 1004 879 c 0,46,47
 973 1015 973 1015 870 1015 c 0,27,28
788 1930 m 128,-1,49
 864 1930 864 1930 917 1876 c 128,-1,50
 970 1822 970 1822 970 1745 c 128,-1,51
 970 1668 970 1668 917 1614 c 128,-1,52
 864 1560 864 1560 788 1560 c 128,-1,53
 712 1560 712 1560 659 1614 c 128,-1,54
 606 1668 606 1668 606 1745 c 128,-1,55
 606 1822 606 1822 659 1876 c 128,-1,48
 712 1930 712 1930 788 1930 c 128,-1,49
EndSplineSet
Validated: 1
EndChar

StartChar: uni1E0A
Encoding: 7690 7690 171
Width: 1515
Flags: W
HStem: 0 110<597.246 898.483> 1410 120<819.554 1172.23> 1560 370<1085.14 1322.86>
VStem: 248 349<25 189.609> 1022 364<1622.58 1867.42> 1323 350<746.255 1234.24>
DStem2: 231.564 0 551.09 0 0.258819 0.965926<249.464 1254.88>
LayerCount: 2
Fore
SplineSet
311 0 m 2,0,1
 248 0 248 0 248 50 c 0,2,3
 248 61 248 61 253 80 c 2,4,-1
 532 1125 l 2,5,6
 553 1205 553 1205 634 1205 c 2,7,-1
 794 1205 l 2,8,9
 856 1205 856 1205 856 1155 c 0,10,11
 856 1140 856 1140 852 1125 c 2,12,-1
 602 190 l 2,13,14
 597 171 597 171 597 160 c 0,15,16
 597 110 597 110 660 110 c 2,17,-1
 711 110 l 2,18,19
 938 110 938 110 1085 318 c 0,20,21
 1213 498 1213 498 1282 755 c 0,22,23
 1323 906 1323 906 1323 1030 c 0,24,25
 1323 1116 1323 1116 1303 1189 c 0,26,27
 1242 1410 1242 1410 989 1410 c 0,28,29
 602 1410 602 1410 252 1036 c 1,30,-1
 240 1044 l 1,31,32
 578 1530 578 1530 1123 1530 c 0,33,34
 1436 1530 1436 1530 1572 1338 c 0,35,36
 1673 1195 1673 1195 1673 1002 c 0,37,38
 1673 887 1673 887 1637 755 c 0,39,40
 1555 451 1555 451 1335 239 c 0,41,42
 1087 0 1087 0 705 0 c 2,43,-1
 311 0 l 2,0,1
1204 1930 m 128,-1,45
 1280 1930 1280 1930 1333 1876 c 128,-1,46
 1386 1822 1386 1822 1386 1745 c 128,-1,47
 1386 1668 1386 1668 1333 1614 c 128,-1,48
 1280 1560 1280 1560 1204 1560 c 128,-1,49
 1128 1560 1128 1560 1075 1614 c 128,-1,50
 1022 1668 1022 1668 1022 1745 c 128,-1,51
 1022 1822 1022 1822 1075 1876 c 128,-1,44
 1128 1930 1128 1930 1204 1930 c 128,-1,45
EndSplineSet
Validated: 1
EndChar

